<svg width="46" height="46" viewBox="0 0 46 46" fill="none" xmlns="http://www.w3.org/2000/svg">
<g opacity="0.6">
<path opacity="0.4" d="M15.3894 24.2803C14.6475 24.2803 14.0469 24.8898 14.0469 25.6428L13.6768 32.2247C13.6768 33.1842 14.4439 33.9611 15.3894 33.9611C16.3349 33.9611 17.1003 33.1842 17.1003 32.2247L16.7319 25.6428C16.7319 24.8898 16.1313 24.2803 15.3894 24.2803Z" fill="white"/>
<path d="M17.2218 11.0306C17.2218 11.0306 16.8365 10.6345 16.5976 10.462C16.2511 10.1957 15.8238 10.0625 15.3981 10.0625C14.9203 10.0625 14.4762 10.2127 14.1145 10.4962C14.0489 10.5628 13.7696 10.8137 13.5391 11.0477C12.0923 12.4153 9.72525 15.9854 9.00185 17.8549C8.88745 18.1384 8.64014 18.8555 8.625 19.2396C8.625 19.605 8.70575 19.9567 8.87062 20.2897C9.1011 20.7063 9.46281 21.0409 9.89012 21.2236C10.1862 21.3414 11.0728 21.5241 11.0896 21.5241C12.0603 21.7085 13.6384 21.8075 15.3813 21.8075C17.0418 21.8075 18.5542 21.7085 19.5401 21.5582C19.5569 21.5412 20.6571 21.3585 21.0357 21.157C21.7254 20.7899 22.1544 20.0728 22.1544 19.3062V19.2396C22.1376 18.7394 21.7086 17.6876 21.6934 17.6876C20.97 15.9188 18.7174 12.4323 17.2218 11.0306Z" fill="white"/>
<path opacity="0.4" d="M30.6111 21.7201C31.353 21.7201 31.9536 21.1105 31.9536 20.3576L32.322 13.7755C32.322 12.8159 31.5565 12.0391 30.6111 12.0391C29.6656 12.0391 28.8984 12.8159 28.8984 13.7755L29.2686 20.3576C29.2686 21.1105 29.8692 21.7201 30.6111 21.7201Z" fill="white"/>
<path d="M37.1297 25.7098C36.8993 25.2932 36.5376 24.9602 36.1102 24.7758C35.8141 24.658 34.9259 24.4753 34.9107 24.4753C33.94 24.2909 32.362 24.1919 30.6191 24.1919C28.9586 24.1919 27.4462 24.2909 26.4603 24.4412C26.4435 24.4583 25.3432 24.6427 24.9647 24.8424C24.2733 25.2095 23.8459 25.9266 23.8459 26.695V26.7615C23.8628 27.2618 24.2901 28.3119 24.3069 28.3119C25.0303 30.0807 27.2813 33.569 28.7786 34.9691C28.7786 34.9691 29.1638 35.3652 29.4027 35.5359C29.7476 35.804 30.1749 35.9372 30.6039 35.9372C31.08 35.9372 31.5225 35.7869 31.8859 35.5035C31.9515 35.4369 32.2308 35.1859 32.4612 34.9537C33.9064 33.5844 36.2751 30.0142 36.9968 28.1463C37.1129 27.8628 37.3602 27.144 37.3754 26.7615C37.3754 26.3945 37.2946 26.0427 37.1297 25.7098Z" fill="white"/>
</g>
</svg>
