<svg width="46" height="46" viewBox="0 0 46 46" fill="none" xmlns="http://www.w3.org/2000/svg">
<g opacity="0.6">
<path fill-rule="evenodd" clip-rule="evenodd" d="M29.06 13.72C29.06 16.558 31.364 18.8586 34.2061 18.8586C34.519 18.857 34.8312 18.827 35.1387 18.7688V28.9561C35.1387 33.242 32.6106 35.7776 28.3184 35.7776H18.9701C14.6668 35.7776 12.1387 33.242 12.1387 28.9561V19.6215C12.1387 15.3356 14.6668 12.7776 18.9701 12.7776H29.1499C29.0895 13.0881 29.0594 13.4037 29.06 13.72ZM26.3863 26.701L30.038 21.9888V21.9664C30.3506 21.5463 30.2708 20.954 29.8582 20.6312C29.6585 20.4771 29.4047 20.4103 29.1548 20.4463C28.905 20.4822 28.6804 20.6178 28.5323 20.822L25.4537 24.7825L21.9481 22.0225C21.7479 21.8665 21.4933 21.7977 21.2417 21.8315C20.9901 21.8653 20.7628 21.9988 20.611 22.202L16.8357 27.0712C16.703 27.2367 16.6316 27.4427 16.6335 27.6547C16.6116 28.083 16.882 28.4721 17.2916 28.6013C17.7011 28.7306 18.1464 28.5675 18.375 28.2044L21.5323 24.1205L25.038 26.8693C25.2374 27.03 25.4936 27.1029 25.7479 27.0712C26.0022 27.0394 26.2326 26.9058 26.3863 26.701Z" fill="white"/>
<ellipse opacity="0.4" cx="34.4996" cy="13.4166" rx="3.19445" ry="3.19444" fill="white"/>
</g>
</svg>
