<svg width="32" height="32" viewBox="0 0 32 32" fill="none" xmlns="http://www.w3.org/2000/svg">
<path fill-rule="evenodd" clip-rule="evenodd" d="M20.06 6.72015C20.06 9.55808 22.364 11.8587 25.2061 11.8587C25.519 11.8571 25.8312 11.8271 26.1387 11.7689V21.9562C26.1387 26.2421 23.6106 28.7777 19.3184 28.7777H9.97013C5.66676 28.7777 3.13867 26.2421 3.13867 21.9562V12.6216C3.13867 8.33576 5.66676 5.77771 9.97013 5.77771H20.1499C20.0895 6.08822 20.0594 6.40384 20.06 6.72015ZM17.3863 19.7011L21.038 14.9889V14.9665C21.3506 14.5464 21.2708 13.9541 20.8582 13.6314C20.6585 13.4772 20.4047 13.4105 20.1548 13.4464C19.905 13.4823 19.6804 13.6179 19.5323 13.8221L16.4537 17.7826L12.9481 15.0226C12.7479 14.8667 12.4933 14.7978 12.2417 14.8316C11.9901 14.8654 11.7628 14.9989 11.611 15.2021L7.83572 20.0714C7.70302 20.2368 7.63158 20.4429 7.63347 20.6548C7.61156 21.0831 7.88204 21.4722 8.29157 21.6015C8.7011 21.7307 9.1464 21.5676 9.37504 21.2045L12.5323 17.1206L16.038 19.8694C16.2374 20.0302 16.4936 20.103 16.7479 20.0713C17.0022 20.0396 17.2326 19.9059 17.3863 19.7011Z" fill="white"/>
<ellipse opacity="0.4" cx="25.5001" cy="6.41661" rx="3.19445" ry="3.19444" fill="white"/>
</svg>
