<svg width="46" height="46" viewBox="0 0 46 46" fill="none" xmlns="http://www.w3.org/2000/svg">
<path d="M19.9076 33.8655V30.3386C19.9076 29.4449 20.6344 28.7188 21.5345 28.7132H24.8398C25.744 28.7132 26.477 29.4409 26.477 30.3386V33.8553C26.477 34.6305 27.107 35.2605 27.8877 35.2661H30.1427C31.1959 35.2688 32.2069 34.8553 32.9526 34.1169C33.6983 33.3785 34.1173 32.3759 34.1173 31.3303V21.3118C34.1173 20.4672 33.7402 19.666 33.0876 19.1241L25.4268 13.0415C24.0876 11.9776 22.175 12.012 20.8755 13.1233L13.3794 19.1241C12.696 19.6501 12.2875 20.4536 12.2673 21.3118V31.32C12.2673 33.4994 14.0468 35.2661 16.2419 35.2661H18.4455C18.8214 35.2688 19.1828 35.1224 19.4496 34.8595C19.7164 34.5966 19.8664 34.2388 19.8664 33.8655H19.9076Z" fill="white"/>
</svg>
