<svg width="46" height="46" viewBox="0 0 46 46" fill="none" xmlns="http://www.w3.org/2000/svg">
<path d="M31.3214 18.0882C26.4806 17.0509 26.4806 20.3357 22.85 20.3357C19.2194 20.3357 19.2194 16.878 14.3786 18.0882C9.53786 19.2984 7.11748 35.2038 10.7481 35.2038C14.3786 35.2038 16.799 30.7088 22.85 30.7088C28.901 30.7088 31.3214 35.2038 34.9519 35.2038C38.5825 35.2038 36.1621 19.2984 31.3214 18.0882ZM19.3923 27.0783H17.1448V29.3258H14.7244V27.0783H12.4769V24.8308H14.7244V22.5832H16.9719V24.8308H19.3923V27.0783ZM29.7654 28.8071C28.2094 28.8071 26.8264 27.5969 26.8264 25.8681C26.8264 24.1392 28.2094 23.1019 29.7654 23.1019C31.3214 23.1019 32.7044 24.3121 32.7044 26.0409C32.7044 27.7698 31.3214 28.8071 29.7654 28.8071Z" fill="#A4A8BD"/>
<path d="M22.8499 18.6069C23.3686 18.6069 23.8872 18.4341 24.4059 18.2612C24.233 17.9154 24.0601 17.3967 24.0601 16.7052V15.495C24.0601 14.2848 25.0974 13.2475 26.3076 13.2475H30.9755V11H25.789C23.5414 11 21.6397 12.9017 21.6397 15.1492V16.7052C21.6397 17.3967 21.4668 17.9154 21.2939 18.2612C21.8126 18.6069 22.3313 18.6069 22.8499 18.6069Z" fill="#525981"/>
</svg>
