<svg width="46" height="46" viewBox="0 0 46 46" fill="none" xmlns="http://www.w3.org/2000/svg">
<g opacity="0.6">
<path fill-rule="evenodd" clip-rule="evenodd" d="M11.6106 28.5128L12.5931 20.5974C13.1916 17.7729 14.8855 16.6106 16.5004 16.6106H29.4759C31.1134 16.6106 32.8638 17.6916 33.3719 20.5974L34.3657 28.5128C35.1788 34.3244 32.1862 35.7773 28.2789 35.7773H17.6862C13.7901 35.7773 10.8878 33.6735 11.6106 28.5128ZM26.7092 23.1894C27.3329 23.1894 27.8385 22.669 27.8385 22.0271C27.8385 21.3852 27.3329 20.8648 26.7092 20.8648C26.0855 20.8648 25.5799 21.3852 25.5799 22.0271C25.5799 22.669 26.0855 23.1894 26.7092 23.1894ZM20.4414 22.0271C20.4414 22.669 19.9358 23.1894 19.3121 23.1894C18.6884 23.1894 18.1828 22.669 18.1828 22.0271C18.1828 21.3852 18.6884 20.8648 19.3121 20.8648C19.9358 20.8648 20.4414 21.3852 20.4414 22.0271Z" fill="white"/>
<path opacity="0.4" d="M16.6438 16.3227C16.6398 16.4218 16.6588 16.5205 16.6994 16.6111H18.5358C18.5713 16.519 18.5902 16.4213 18.5914 16.3227C18.5914 13.8726 20.5845 11.8863 23.0431 11.8863C25.5016 11.8863 27.4947 13.8726 27.4947 16.3227C27.4779 16.4181 27.4779 16.5157 27.4947 16.6111H29.3755C29.3924 16.5157 29.3924 16.4181 29.3755 16.3227C29.2326 12.9131 26.4174 10.2222 22.993 10.2222C19.5686 10.2222 16.7533 12.9131 16.6104 16.3227H16.6438Z" fill="white"/>
</g>
</svg>
