<svg width="46" height="46" viewBox="0 0 46 46" fill="none" xmlns="http://www.w3.org/2000/svg">
<g opacity="0.6">
<path opacity="0.4" d="M19.1665 31.9929L25.8435 19.1525C25.9163 19.0126 26.0609 18.9248 26.2186 18.9248C26.3812 18.9248 26.5294 19.0181 26.5998 19.1646L32.7573 31.9929" fill="white"/>
<path d="M24.529 24.4378C24.4465 24.2626 24.2703 24.1507 24.0766 24.1507H23.6804C23.4793 24.1507 23.2977 24.0302 23.2196 23.8448L19.2717 14.4685C19.2081 14.3173 19.06 14.219 18.8959 14.219C18.7415 14.219 18.6003 14.3063 18.5312 14.4444L15.6458 20.2153C15.5611 20.3847 15.388 20.4917 15.1986 20.4917H14.2484C14.0591 20.4917 13.8859 20.5987 13.8012 20.7681L8.02855 32.3134C7.86233 32.6459 8.10407 33.037 8.47577 33.037H27.7878C28.1543 33.037 28.3963 32.6558 28.2402 32.3241L24.529 24.4378Z" fill="white"/>
<path opacity="0.4" d="M29.5101 17.3965C30.9874 17.5432 37.3862 18.6362 40.4009 19.1643C41.3683 19.4636 41.1139 18.3444 40.8657 17.7474C39.4526 17.7037 29.1502 15.4208 24.1757 14.2848L23.8644 14.8225L24.3614 19.1739L25.5567 17.2743L26.2696 18.7277L27.2455 17.116L27.8135 17.8072L29.5101 17.3965Z" fill="white"/>
<path d="M27.4713 10.2048C27.0413 10.5057 26.1227 11.3909 25.8682 12.5347C26.0931 11.5092 26.6729 9.24373 27.2327 8.21871C26.2818 8.71331 24.0753 11.0938 22.8568 16.6589L23.3854 16.3244C23.2419 16.634 23.0115 17.3649 23.2377 17.8113C23.2634 17.8765 23.3774 18.0331 23.6281 18.137C23.4483 18.684 23.4293 20.57 24.7913 23.7384C24.6499 22.2446 24.4813 19.0005 24.9386 17.9742C25.1591 16.8566 25.9744 13.738 27.4713 10.2048Z" fill="white"/>
<path opacity="0.4" d="M23.4932 16.2663C23.3427 16.4431 23.0929 16.9591 23.298 17.6092C22.8116 17.3152 22.1697 16.635 23.4932 16.2663Z" fill="white"/>
</g>
</svg>
