<svg
        width="31"
        height="31"
        viewBox="0 0 31 31"
        color="white"
        xmlns="http://www.w3.org/2000/svg"
>
    <path
            d="M28.2799 8.71164C28.2799 6.53986 26.5193 4.7793 24.3475 4.7793H5.99634C3.82453 4.7793 2.06396 6.53989 2.06396 8.71167V21.8196C2.06396 23.9914 3.82456 25.752 5.99634 25.752H24.3475C26.5193 25.752 28.2798 23.9914 28.2798 21.8196V19.198H21.7259C19.5541 19.198 17.7935 17.4374 17.7935 15.2656C17.7935 13.0939 19.5541 11.3333 21.7259 11.3333H28.2799V8.71167L28.2799 8.71164Z"
            fill="currentColor"
    />
    <path
            d="M19.7598 15.2661C19.7598 15.7876 19.9669 16.2877 20.3356 16.6564C20.7044 17.0252 21.2045 17.2323 21.726 17.2323C22.2474 17.2323 22.7475 17.0252 23.1163 16.6564C23.485 16.2877 23.6921 15.7876 23.6921 15.2661C23.6921 14.7446 23.485 14.2445 23.1163 13.8758C22.7475 13.5071 22.2474 13.2999 21.726 13.2999C21.2045 13.2999 20.7044 13.5071 20.3356 13.8758C19.9669 14.2445 19.7598 14.7446 19.7598 15.2661Z"
            fill="currentColor"
    />
</svg>