<svg width="74" height="74" viewBox="0 0 74 74" fill="none" xmlns="http://www.w3.org/2000/svg">
<g clip-path="url(#clip0)">
<rect width="74" height="74" rx="37" fill="#45B36B"/>
<rect y="-20.0415" width="74" height="110.986"/>
<circle cx="37" cy="42" r="32" fill="#7585D6"/>
<path d="M73.9204 36.9993C73.9282 43.7249 72.1006 50.3251 68.6344 56.0887C65.1682 61.8523 60.1949 66.5608 54.2504 69.7067C48.3059 72.8527 41.6157 74.3168 34.9005 73.9414C28.1854 73.5659 21.7001 71.3651 16.1433 67.5761C10.5866 63.7871 6.16918 58.5536 3.36709 52.4395C0.56501 46.3254 -0.515497 39.5626 0.24201 32.8797C0.999518 26.1969 3.56632 19.8475 7.66581 14.5157C11.7653 9.18395 17.2421 5.07194 23.5059 2.62282C32.1417 -0.849535 41.7855 -0.849535 50.4214 2.62282C57.3419 5.32371 63.2869 10.0494 67.4792 16.1824C71.6716 22.3153 73.9165 29.5703 73.9204 36.9993ZM22.7505 29.2115C22.6914 32.0634 23.3829 34.8808 24.7556 37.3813C26.1284 39.8818 28.1342 41.9776 30.5722 43.4586C32.4747 44.5681 34.6337 45.1621 36.836 45.1822C39.0382 45.2023 41.2077 44.6477 43.1302 43.5732C45.6279 42.1129 47.6899 40.0113 49.1024 37.4862C50.515 34.961 51.2267 32.1042 51.1641 29.2115C51.3827 27.214 51.1779 25.1928 50.5631 23.2797C49.9482 21.3666 48.9372 19.6045 47.5958 18.1083C46.2544 16.6121 44.6128 15.4154 42.7779 14.5961C40.943 13.7768 38.9561 13.3533 36.9467 13.3533C34.9372 13.3533 32.9503 13.7768 31.1154 14.5961C29.2805 15.4154 27.6389 16.6121 26.2975 18.1083C24.9561 19.6045 23.9451 21.3666 23.3302 23.2797C22.7154 25.1928 22.5106 27.214 22.7292 29.2115H22.7505ZM37.0994 71.5285C42.2232 71.533 47.2833 70.3921 51.9093 68.1892C56.5354 65.9863 60.6106 62.7771 63.8367 58.7965C63.0897 52.6681 57.1184 47.448 48.6643 44.8464C45.441 47.8412 41.1929 49.4877 36.7932 49.4474C32.3935 49.4072 28.1763 47.6833 25.0083 44.63C16.7834 46.9769 10.7611 51.7642 9.34788 57.5021C12.546 61.8563 16.7254 65.3954 21.5471 67.8324C26.3687 70.2694 31.6969 71.5357 37.0994 71.5285Z" fill="#1B2559"/>
</g>
<defs>
<clipPath id="clip0">
<rect width="74" height="74" rx="37" fill="white"/>
</clipPath>
</defs>
</svg>
