<svg width="296" height="296" viewBox="0 0 296 296" fill="none" xmlns="http://www.w3.org/2000/svg">
<path d="M148 296C229.738 296 296 229.738 296 148C296 66.2619 229.738 0 148 0C66.2619 0 0 66.2619 0 148C0 229.738 66.2619 296 148 296Z" fill="#F0B90B"/>
<path fill-rule="evenodd" clip-rule="evenodd" d="M85.0127 110.408L148.061 47.36L173.2 72.4993L110.152 135.547L85.0127 110.408ZM85.0585 185.749L185.815 84.9919L210.955 110.131L110.198 210.888L85.0585 185.749ZM223.499 122.747L122.742 223.504L147.88 248.64L248.64 147.885L223.499 122.747ZM47.36 148.053L72.4993 122.914L97.6385 148.053L72.4993 173.193L47.36 148.053Z" fill="white"/>
</svg>
