<svg width="48" height="48" viewBox="0 0 48 48" fill="none" xmlns="http://www.w3.org/2000/svg">
<rect width="48" height="48" rx="24" fill="#E6007A"/>
<path d="M32.0797 33.7914C31.8714 33.7492 31.6569 33.7486 31.4484 33.7895C31.2399 33.8305 31.0415 33.9123 30.8647 34.0301C30.6879 34.148 30.5362 34.2996 30.4182 34.4763C30.3002 34.653 30.2183 34.8513 30.1771 35.0598C30.1324 35.2682 30.1299 35.4835 30.1698 35.6929C30.2097 35.9023 30.2911 36.1016 30.4094 36.279C30.5276 36.4564 30.6803 36.6083 30.8582 36.7256C31.0362 36.843 31.2359 36.9235 31.4455 36.9623C31.6537 37.0097 31.8694 37.0141 32.0794 36.9753C32.2894 36.9364 32.4893 36.8552 32.6668 36.7364C32.8443 36.6177 32.9957 36.464 33.1118 36.2848C33.2279 36.1056 33.3063 35.9045 33.342 35.694C33.4132 35.2758 33.3222 34.8462 33.0877 34.4927C32.8532 34.1392 32.4927 33.8884 32.0797 33.7914Z" fill="white"/>
<path d="M24.5455 11.5571C21.995 11.5667 19.5518 12.5841 17.7483 14.3875C15.9449 16.191 14.9275 18.6342 14.918 21.1846C14.9178 22.248 15.0892 23.3044 15.4253 24.3133C15.546 24.6434 15.7884 24.915 16.1028 25.0722C16.4173 25.2294 16.7799 25.2604 17.1165 25.1589C17.4431 25.0347 17.71 24.7906 17.8627 24.4762C18.0154 24.1619 18.0423 23.8012 17.9379 23.4677C17.6519 22.6832 17.5246 21.8496 17.5634 21.0155C17.6034 19.669 18.034 18.3632 18.8029 17.257C19.5718 16.1509 20.6457 15.2923 21.8939 14.7856C23.1421 14.279 24.5107 14.1463 25.833 14.4036C27.1553 14.6609 28.3743 15.2972 29.3414 16.235C30.3085 17.1727 30.982 18.3715 31.28 19.6852C31.5779 20.999 31.4874 22.371 31.0195 23.6342C30.5516 24.8974 29.7264 25.9973 28.6445 26.7999C27.5626 27.6025 26.2706 28.0732 24.926 28.1546C24.926 28.1546 23.5791 28.2392 22.9026 28.3237C22.6546 28.3587 22.4086 28.4071 22.1658 28.4687C22.1483 28.4818 22.1268 28.4881 22.105 28.4866C22.0832 28.485 22.0628 28.4757 22.0474 28.4603C22.0319 28.4449 22.0226 28.4244 22.0211 28.4026C22.0195 28.3809 22.0259 28.3593 22.0389 28.3419L22.2503 27.2003L23.5187 21.4564C23.5916 21.1144 23.5256 20.7575 23.3353 20.4641C23.145 20.1708 22.846 19.965 22.504 19.8921C22.162 19.8192 21.8051 19.8852 21.5117 20.0755C21.2183 20.2658 21.0126 20.5648 20.9397 20.9068C20.9397 20.9068 17.9198 34.9313 17.9198 35.0582C17.8782 35.2274 17.8716 35.4033 17.9003 35.5751C17.9291 35.747 17.9927 35.9112 18.0871 36.0576C18.1815 36.2041 18.3048 36.3297 18.4495 36.4268C18.5942 36.5239 18.7571 36.5905 18.9284 36.6225C19.098 36.6631 19.2741 36.6688 19.446 36.6393C19.6179 36.6098 19.7819 36.5456 19.9283 36.4507C20.0746 36.3558 20.2001 36.2321 20.2971 36.0872C20.3941 35.9423 20.4607 35.7792 20.4927 35.6078C20.535 35.4387 20.9155 33.5784 20.9155 33.5784C21.0557 32.8937 21.4024 32.2683 21.9089 31.7867C22.4154 31.305 23.0573 30.9902 23.7482 30.8846C24.0381 30.8423 25.2642 30.7578 25.2642 30.7578C27.7144 30.5313 29.9847 29.3747 31.6083 27.5258C33.232 25.6769 34.0855 23.2762 33.9935 20.8172C33.9014 18.3583 32.8708 16.0281 31.1135 14.3058C29.3562 12.5834 27.0057 11.5998 24.5455 11.5571Z" fill="white"/>
</svg>
