<svg width="38" height="38" viewBox="0 0 38 38" fill="none" xmlns="http://www.w3.org/2000/svg">
<path d="M38 19C38 8.50646 29.4896 0 19 0C8.51042 0 0 8.50646 0 19C0 29.4935 8.51042 38 19 38C29.4896 38 38 29.4935 38 19Z" fill="white"/>
<path d="M18.9676 7.6001L19.126 8.11943V23.192L18.9676 23.3448L11.9693 19.2091L18.9676 7.6001Z" fill="#343434"/>
<path d="M18.9685 7.6001L25.9668 19.2091L18.9685 23.3448V16.029V7.6001Z" fill="#8C8C8C"/>
<path d="M18.9696 24.6694L19.0566 24.7747V30.1438L18.9696 30.3956L11.9712 20.5361L18.9696 24.6694Z" fill="#3C3C3B"/>
<path d="M18.9685 30.3948V24.6694L25.9668 20.5361L18.9685 30.3948Z" fill="#8C8C8C"/>
<path d="M18.9678 23.3446L11.9695 19.2089L18.9678 16.0288V23.3446Z" fill="#141414"/>
<path d="M25.9668 19.2089L18.9685 23.3446V16.0288L25.9668 19.2089Z" fill="#393939"/>
</svg>
