<svg width="38" height="38" viewBox="0 0 38 38" fill="none" xmlns="http://www.w3.org/2000/svg">
<path d="M38 19C38 8.50646 29.4896 0 19 0C8.51042 0 0 8.50646 0 19C0 29.4935 8.51042 38 19 38C29.4896 38 38 29.4935 38 19Z" fill="#3E8445"/>
<path d="M15.7742 11.2246V13.4452C13.9844 14.1158 12.4903 15.3929 11.54 17.0256V10.3994H14.9507C15.4051 10.3994 15.7742 10.7685 15.7742 11.2246Z" fill="white"/>
<path d="M21.6598 14.0352V16.1628C21.6598 17.336 20.7087 18.2871 19.5355 18.2871H18.8429C17.1537 18.2871 15.7828 19.6546 15.7794 21.3455V27.2917H12.3646C11.9085 27.2917 11.5402 26.9226 11.5402 26.4674V21.4308C11.5368 21.343 11.5352 21.2551 11.5352 21.1664C11.5352 17.2254 14.7304 14.0293 18.6723 14.0293C18.761 14.0293 18.8488 14.031 18.9375 14.0344H21.6598V14.0352Z" fill="white"/>
<path d="M22.7607 26.4668V24.2463C24.5514 23.5748 26.0455 22.2977 26.9949 20.665V27.292H23.5843C23.1307 27.292 22.7607 26.9229 22.7607 26.4668Z" fill="white"/>
<path d="M16.876 23.6559V21.5283C16.876 20.3551 17.827 19.404 19.0002 19.404H19.6928C21.3821 19.404 22.7529 18.0366 22.7563 16.3456V10.3994H26.1712C26.6273 10.3994 26.9955 10.7685 26.9955 11.2238V16.2603C26.9997 16.3482 27.0006 16.436 27.0006 16.5255C27.0006 20.4666 23.8053 23.6627 19.8634 23.6627C19.7748 23.6627 19.6869 23.661 19.5982 23.6576H16.876V23.6559Z" fill="white"/>
</svg>
