<svg width="20" height="20" viewBox="0 0 20 20" fill="none" xmlns="http://www.w3.org/2000/svg">
<path d="M10.1506 0L4.83887 3.06341L6.79173 4.19512L10.1506 2.26341L13.5096 4.19512L15.4624 3.06341L10.1506 0Z" fill="#F0B90B"/>
<path d="M13.5096 5.79492L15.4624 6.92667V9.19007L12.1035 11.1218V14.9852L10.1506 16.1169L8.19778 14.9852V11.1218L4.83887 9.19007V6.92667L6.79173 5.79492L10.1506 7.72667L13.5096 5.79492Z" fill="#F0B90B"/>
<path d="M15.4636 10.79V13.0534L13.5107 14.1851V11.9217L15.4636 10.79Z" fill="#F0B90B"/>
<path d="M13.4912 15.7852L16.8501 13.8535V9.9901L18.803 8.8584V14.9852L13.4912 18.0486V15.7852Z" fill="#F0B90B"/>
<path d="M16.8503 6.12672L14.8975 4.99499L16.8503 3.86328L18.8032 4.99499V7.25842L16.8503 8.39012V6.12672Z" fill="#F0B90B"/>
<path d="M8.19824 18.8684V16.605L10.1511 17.7367L12.104 16.605V18.8684L10.1511 20.0001L8.19824 18.8684Z" fill="#F0B90B"/>
<path d="M6.79173 14.1851L4.83887 13.0534V10.79L6.79173 11.9217V14.1851Z" fill="#F0B90B"/>
<path d="M10.1511 6.12672L8.19824 4.99499L10.1511 3.86328L12.104 4.99499L10.1511 6.12672Z" fill="#F0B90B"/>
<path d="M5.40574 4.99499L3.45287 6.12672V8.39012L1.5 7.25842V4.99499L3.45287 3.86328L5.40574 4.99499Z" fill="#F0B90B"/>
<path d="M1.5 8.8584L3.45287 9.9901V13.8535L6.81179 15.7852V18.0486L1.5 14.9852V8.8584Z" fill="#F0B90B"/>
</svg>
