<svg width="38" height="38" viewBox="0 0 38 38" fill="none" xmlns="http://www.w3.org/2000/svg">
<path d="M38 19C38 8.50646 29.4896 0 19 0C8.51042 0 0 8.50646 0 19C0 29.4935 8.51042 38 19 38C29.4896 38 38 29.4935 38 19Z" fill="#1B2559"/>
<path d="M27.5302 12.0003V12.002H30.3854C30.9375 12.002 31.2716 12.6015 31.1524 13.3542L31.1407 13.421L31.1171 13.5427C30.9694 14.3025 30.4151 14.9226 29.8641 14.9594L29.8124 14.9612H28.0324C27.4385 14.9612 26.8281 15.6251 26.6689 16.444C26.514 17.2398 26.843 17.8895 27.4072 17.9249L27.4561 17.9265H28.8188C29.387 17.9265 29.7243 18.5614 29.5719 19.345C29.4242 20.1048 28.8699 20.7251 28.3189 20.762L28.2672 20.7637H26.9046C26.3286 20.7637 25.7372 21.3878 25.5567 22.1722L25.541 22.2462L25.063 24.7047C24.8165 25.9723 23.8713 27 22.9517 27C22.3805 27 21.9288 26.5964 21.7529 25.9347L21.7351 25.8629L19.65 17.747C19.6219 17.637 19.4964 17.675 19.4579 17.7932L19.4511 17.8197L18.017 25.1923C17.8358 26.1308 17.166 26.9002 16.4849 26.9892L16.4265 26.9951L16.431 27H11.8231C11.6248 26.9989 11.4293 26.9551 11.2509 26.8719C10.8954 26.7399 10.5878 26.5108 10.3658 26.2127C10.1439 25.9146 10.0173 25.5606 10.0016 25.1942L10 25.1193V13.8572C10 12.4971 10.7827 12.0327 11.7611 12.0144L11.8225 12.0138H15.1421C15.1965 12.0151 15.2507 12.0191 15.3047 12.0258L15.3853 12.0379C16.2035 12.1397 16.9531 12.531 17.488 13.1358L16.5513 17.6821C16.1533 13.8224 14.8513 14.453 12.9763 14.453H12.6509C12.4523 14.453 12.2893 14.6624 12.2719 14.9296L12.2703 14.9774V24.1039C12.2703 24.2052 12.3095 24.3028 12.3802 24.3778C12.4508 24.4528 12.5479 24.4998 12.6526 24.5097L12.6946 24.5116H14.0948C14.3885 24.5089 14.678 24.4439 14.9427 24.3212C15.2074 24.1985 15.4407 24.0211 15.626 23.8017L15.6758 23.7402L17.5111 14.2967C17.7522 13.0558 18.0875 12.0449 18.9633 12.0015L19.0226 12H19.6237C20.1957 12 20.6474 12.4042 20.8233 13.0666L20.8411 13.1386L23.2731 22.2241C23.3023 22.3324 23.4269 22.2941 23.465 22.1764L23.4718 22.15L24.8691 14.961H22.4183C21.8506 14.961 21.2659 14.326 21.1136 13.5425L21.0899 13.4207C20.9397 12.637 21.277 12.0017 21.8452 12.0017H25.5968V12L27.5302 12.0003Z" fill="white"/>
</svg>
