<svg width="48" height="48" viewBox="0 0 48 48" fill="none" xmlns="http://www.w3.org/2000/svg">
<rect width="48" height="48" rx="24" fill="#F0B90B"/>
<path d="M24.1808 13L17.8066 16.6761L20.1501 18.0341L24.1808 15.7161L28.2115 18.0341L30.5549 16.6761L24.1808 13Z" fill="white"/>
<path d="M28.2115 19.9541L30.5549 21.3122V24.0283L26.5242 26.3463V30.9824L24.1808 32.3404L21.8373 30.9824V26.3463L17.8066 24.0283V21.3122L20.1501 19.9541L24.1808 22.2722L28.2115 19.9541Z" fill="white"/>
<path d="M30.5553 25.9482V28.6643L28.2119 30.0224V27.3063L30.5553 25.9482Z" fill="white"/>
<path d="M28.1885 31.9425L32.2192 29.6245V24.9884L34.5626 23.6304V30.9825L28.1885 34.6587V31.9425Z" fill="white"/>
<path d="M32.2204 20.3524L29.877 18.9943L32.2204 17.6362L34.5638 18.9943V21.7104L32.2204 23.0684V20.3524Z" fill="white"/>
<path d="M21.8379 35.6419V32.9258L24.1813 34.2838L26.5248 32.9258V35.6419L24.1813 36.9999L21.8379 35.6419Z" fill="white"/>
<path d="M20.1501 30.0224L17.8066 28.6643V25.9482L20.1501 27.3063V30.0224Z" fill="white"/>
<path d="M24.1813 20.3524L21.8379 18.9943L24.1813 17.6362L26.5248 18.9943L24.1813 20.3524Z" fill="white"/>
<path d="M18.4867 18.9943L16.1432 20.3524V23.0684L13.7998 21.7104V18.9943L16.1432 17.6362L18.4867 18.9943Z" fill="white"/>
<path d="M13.7998 23.6304L16.1432 24.9884V29.6245L20.174 31.9425V34.6587L13.7998 30.9825V23.6304Z" fill="white"/>
</svg>
