<svg width="14" height="19" viewBox="0 0 14 19" fill="none" xmlns="http://www.w3.org/2000/svg">
<path d="M12.5171 16.2168C12.3652 16.186 12.2087 16.1855 12.0566 16.2154C11.9046 16.2453 11.7599 16.3049 11.631 16.3909C11.502 16.4769 11.3913 16.5875 11.3052 16.7164C11.2192 16.8452 11.1594 16.9899 11.1294 17.1419C11.0968 17.2939 11.095 17.451 11.1241 17.6037C11.1532 17.7564 11.2126 17.9018 11.2988 18.0312C11.3851 18.1605 11.4964 18.2713 11.6262 18.3569C11.756 18.4425 11.9016 18.5012 12.0545 18.5296C12.2064 18.5641 12.3637 18.5673 12.5169 18.539C12.6701 18.5107 12.8158 18.4514 12.9453 18.3648C13.0748 18.2782 13.1852 18.1661 13.2699 18.0354C13.3546 17.9047 13.4117 17.758 13.4378 17.6045C13.4897 17.2994 13.4234 16.9861 13.2523 16.7283C13.0812 16.4704 12.8183 16.2875 12.5171 16.2168Z" fill="#E6007A"/>
<path d="M7.02196 0C5.16177 0.00696276 3.37975 0.749011 2.06438 2.06438C0.749011 3.37975 0.00696281 5.16177 4.81333e-08 7.02196C-8.95326e-05 7.79755 0.124861 8.56807 0.370041 9.30388C0.458073 9.5447 0.63487 9.74273 0.864202 9.85739C1.09354 9.97206 1.35804 9.99468 1.60351 9.92062C1.84175 9.83008 2.03643 9.652 2.14779 9.42274C2.25914 9.19349 2.27875 8.93037 2.20262 8.68715C1.99406 8.11493 1.90122 7.507 1.9295 6.89862C1.95863 5.91652 2.27273 4.96409 2.83352 4.15732C3.39432 3.35055 4.17762 2.72427 5.08801 2.35475C5.99841 1.98523 6.99661 1.88841 7.96105 2.0761C8.92549 2.26379 9.81453 2.72788 10.5199 3.41185C11.2253 4.09581 11.7165 4.97014 11.9339 5.92833C12.1512 6.88653 12.0852 7.88724 11.7439 8.80859C11.4026 9.72994 10.8007 10.5322 10.0116 11.1176C9.22253 11.7029 8.28023 12.0462 7.29949 12.1056C7.29949 12.1056 6.31712 12.1673 5.82374 12.229C5.64282 12.2545 5.46341 12.2898 5.2863 12.3347C5.27357 12.3442 5.25783 12.3489 5.24196 12.3477C5.2261 12.3466 5.21117 12.3398 5.19992 12.3286C5.18868 12.3173 5.18186 12.3024 5.18074 12.2865C5.17961 12.2706 5.18424 12.2549 5.19379 12.2422L5.34797 11.4096L6.27307 7.2202C6.32623 6.97076 6.27812 6.71042 6.13933 6.49644C6.00054 6.28247 5.78243 6.1324 5.53299 6.07924C5.28355 6.02608 5.02321 6.07419 4.80924 6.21298C4.59526 6.35177 4.44519 6.56988 4.39203 6.81932C4.39203 6.81932 2.18941 17.0483 2.18941 17.1408C2.15908 17.2642 2.15426 17.3925 2.17524 17.5179C2.19622 17.6432 2.24257 17.763 2.31144 17.8698C2.38031 17.9766 2.47025 18.0682 2.57577 18.1391C2.68129 18.2099 2.80015 18.2585 2.92508 18.2818C3.04878 18.3114 3.17721 18.3156 3.30258 18.2941C3.42794 18.2725 3.54761 18.2257 3.65433 18.1565C3.76104 18.0873 3.85257 17.9971 3.92334 17.8914C3.99412 17.7857 4.04267 17.6667 4.06604 17.5417C4.09688 17.4183 4.37441 16.0615 4.37441 16.0615C4.47664 15.5621 4.7295 15.106 5.09891 14.7547C5.46832 14.4034 5.93654 14.1738 6.44047 14.0968C6.65192 14.066 7.54619 14.0043 7.54619 14.0043C9.33327 13.8391 10.9891 12.9955 12.1734 11.647C13.3576 10.2984 13.9801 8.54744 13.913 6.754C13.8459 4.96056 13.0941 3.261 11.8124 2.00476C10.5307 0.748529 8.81639 0.031104 7.02196 0Z" fill="#1E1E1E"/>
</svg>
