<svg width="38" height="38" viewBox="0 0 38 38" fill="none" xmlns="http://www.w3.org/2000/svg">
<path d="M38 19C38 8.50646 29.4896 0 19 0C8.51042 0 0 8.50646 0 19C0 29.4935 8.51042 38 19 38C29.4896 38 38 29.4935 38 19Z" fill="#F0B90B"/>
<path d="M19.1506 9L13.8389 12.0634L15.7917 13.1951L19.1506 11.2634L22.5096 13.1951L24.4624 12.0634L19.1506 9Z" fill="white"/>
<path d="M22.5096 14.7949L24.4624 15.9267V18.1901L21.1035 20.1218V23.9852L19.1506 25.1169L17.1978 23.9852V20.1218L13.8389 18.1901V15.9267L15.7917 14.7949L19.1506 16.7267L22.5096 14.7949Z" fill="white"/>
<path d="M24.4636 19.79V22.0534L22.5107 23.1851V20.9217L24.4636 19.79Z" fill="white"/>
<path d="M22.4912 24.7852L25.8501 22.8535V18.9901L27.803 17.8584V23.9852L22.4912 27.0486V24.7852Z" fill="white"/>
<path d="M25.8503 15.1267L23.8975 13.995L25.8503 12.8633L27.8032 13.995V16.2584L25.8503 17.3901V15.1267Z" fill="white"/>
<path d="M17.1982 27.8684V25.605L19.1511 26.7367L21.104 25.605V27.8684L19.1511 29.0001L17.1982 27.8684Z" fill="white"/>
<path d="M15.7917 23.1851L13.8389 22.0534V19.79L15.7917 20.9217V23.1851Z" fill="white"/>
<path d="M19.1511 15.1267L17.1982 13.995L19.1511 12.8633L21.104 13.995L19.1511 15.1267Z" fill="white"/>
<path d="M14.4057 13.995L12.4529 15.1267V17.3901L10.5 16.2584V13.995L12.4529 12.8633L14.4057 13.995Z" fill="white"/>
<path d="M10.5 17.8584L12.4529 18.9901V22.8535L15.8118 24.7852V27.0486L10.5 23.9852V17.8584Z" fill="white"/>
</svg>
