<?xml version="1.0" encoding="UTF-8"?>
<svg width="50px" height="51px" viewBox="0 0 50 51" version="1.1" xmlns="http://www.w3.org/2000/svg" xmlns:xlink="http://www.w3.org/1999/xlink">
    <g id="Dark-/-Landing-page" stroke="none" stroke-width="1" fill="none" fill-rule="evenodd">
        <g id="DNFT" transform="translate(-136.000000, -6420.000000)" fill-rule="nonzero">
            <g id="dnftBack" transform="translate(136.000000, 6420.500000)">
                <g id="组_10" transform="translate(0.063753, 0.103796)">
                    <circle id="椭圆_2-2" fill="#FFFFFF" cx="24.3034731" cy="24.174914" r="24.1443548"></circle>
                    <path d="M38.2279032,13.0687742 L38.2279032,13.0719355 L43.2633118,13.0719355 C44.2368086,13.0719355 44.8259665,14.1712542 44.6158897,15.5516922 L44.5952688,15.6742043 L44.5536452,15.8976022 C44.2930782,17.290869 43.3156192,18.4279969 42.3438202,18.4956343 L42.2527527,18.4988172 L39.1135914,18.4988172 C38.0661505,18.4988172 36.9897312,19.7164409 36.7089032,21.2180538 C36.4358761,22.6774429 37.0159521,23.868899 38.0109455,23.9339649 L38.0972366,23.9367634 L40.5003441,23.9367634 C41.5024731,23.9367634 42.0973226,25.101172 41.8286129,26.5379785 C41.5680459,27.9312453 40.590587,29.0688686 39.6187879,29.1365361 L39.5277204,29.1397204 L37.1246129,29.1397204 C36.1089127,29.1397204 35.0659636,30.2841714 34.7476233,31.7227296 L34.7199247,31.8584301 L33.876914,36.366957 C33.4422366,38.6915591 31.7751828,40.5762151 30.1534409,40.5762151 C29.1461884,40.5762151 28.3496484,39.8360195 28.0393514,38.6226226 L28.0079785,38.4908172 L24.330871,23.6074624 C24.2812036,23.4058423 24.0598805,23.475475 23.9920378,23.6921319 L23.9799677,23.7407634 L21.4509355,37.2610753 C21.1312939,38.9822222 19.9500828,40.3931045 18.7488127,40.5563435 L18.6458172,40.5672581 L18.6537204,40.5762151 L10.5276237,40.5762151 C10.1779684,40.5742229 9.83320056,40.4939271 9.51864516,40.3412258 C8.23315935,39.8446036 7.37094328,38.6328424 7.31543861,37.264575 L7.3125914,37.1272473 L7.3125914,16.4740108 C7.3125914,13.9800752 8.69286792,13.1283149 10.4182909,13.0945879 L10.5265699,13.0935376 L16.3807527,13.0935376 C16.4766847,13.0958799 16.5723956,13.1032376 16.6674944,13.1155704 L16.8096344,13.1377957 C18.2530065,13.324502 19.5750477,14.0422513 20.517828,15.1510108 L18.8660538,23.4883871 L18.8660538,23.4883871 C18.1642473,16.4102581 15.8680968,17.5667634 12.5613871,17.5667634 L11.9876129,17.5667634 C11.6372951,17.5667634 11.3499527,17.9507252 11.319107,18.4407948 L11.3163656,18.5283226 L11.3163656,35.2652473 C11.3163655,35.4636264 11.3952074,35.6538728 11.5355321,35.7940986 C11.6583161,35.9167963 11.819364,35.9923941 11.9906059,36.0092828 L12.0645376,36.0128925 L14.5340323,36.0128925 C15.5854975,36.0027526 16.5747598,35.523585 17.2344067,34.7110665 L17.3222903,34.5982151 L20.5589247,17.2801398 C20.9841526,15.0045262 21.5752699,13.1504429 23.1200149,13.070906 L23.2244194,13.0682473 L24.2845054,13.0682473 C25.293284,13.0682473 26.0898766,13.8094252 26.4001754,15.0243126 L26.4315484,15.1562796 L30.7203656,31.8178602 C30.772,32.0165298 30.9916184,31.9462414 31.0587966,31.7303669 L31.0707419,31.6819247 L33.5349677,18.4982903 L29.2127593,18.4982903 C28.211684,18.4982903 27.1805765,17.3338817 26.9118668,15.8970753 L26.8702431,15.6736774 C26.6052216,14.2363441 27.2000711,13.0714086 28.2022001,13.0714086 L34.8182539,13.0714086 L34.8182539,13.0682473 L38.2279032,13.0687742 Z" id="路径备份" fill="#00398D"></path>
                </g>
            </g>
        </g>
    </g>
</svg>