<svg width="83" height="38" viewBox="0 0 83 38" fill="none" xmlns="http://www.w3.org/2000/svg">
<path d="M3.43584 28.3413C6.13594 28.3413 7.72607 29.9472 7.72607 32.7978C7.72607 35.6484 6.13594 37.3231 3.43584 37.3231H0V28.3413H3.43584ZM1.88299 35.7669H3.21141C4.89511 35.7669 5.80552 34.7462 5.80552 32.804C5.80552 30.9243 4.86997 29.891 3.21141 29.891H1.88299V35.7669Z" fill="white"/>
<path d="M8.9375 37.3231V28.3413H10.5087L14.7117 34.1921H14.7617V28.3413H16.5638V37.3231H15.0047L10.7956 31.441H10.7396V37.3231H8.9375Z" fill="white"/>
<path d="M18.0635 37.3231V28.3413H23.9563V29.891H19.9465V32.2998H23.6071V33.7875H19.9465V37.3231H18.0635Z" fill="white"/>
<path d="M27.2185 37.3231V29.8911H24.6182V28.3413H31.7083V29.891H29.1017V37.323L27.2185 37.3231Z" fill="white"/>
<path d="M38.9386 28.3413C40.7845 28.3413 42.0564 29.5674 42.0564 31.4159C42.0564 33.2585 40.7407 34.4909 38.845 34.4909H37.1613V37.3232H35.2783V28.3413H38.9386ZM37.1613 33.0221H38.4335C39.5123 33.0221 40.1421 32.4494 40.1421 31.4222C40.1421 30.4014 39.5186 29.8287 38.4398 29.8287H37.1614L37.1613 33.0221Z" fill="white"/>
<path d="M43.0127 30.6505H44.7714V31.8518H44.8087C45.0456 31.0052 45.6131 30.5448 46.3988 30.5448C46.5737 30.5431 46.7479 30.5661 46.9164 30.613V32.2127C46.7041 32.1382 46.4802 32.1023 46.2553 32.1069C45.3573 32.1069 44.8336 32.6548 44.8336 33.5946V37.3231H43.0127V30.6505Z" fill="white"/>
<path d="M47.1973 33.9806C47.1973 31.8206 48.507 30.5073 50.5087 30.5073C52.5104 30.5073 53.8199 31.8144 53.8199 33.9806C53.8199 36.1778 52.529 37.4663 50.5087 37.4663C48.4884 37.4663 47.1973 36.1715 47.1973 33.9806ZM51.9677 33.9868C51.9677 32.6611 51.3942 31.8954 50.5087 31.8954C49.6232 31.8954 49.0432 32.6611 49.0432 33.9868C49.0432 35.3252 49.6107 36.0782 50.5087 36.0782C51.4004 36.0782 51.9677 35.3252 51.9677 33.9868Z" fill="white"/>
<path d="M57.0643 29.1128V30.6503H58.2989V32.0195H57.0643V35.2129C57.0643 35.7233 57.3139 35.9659 57.8501 35.9659C57.9982 35.9667 58.1461 35.9563 58.2927 35.9349V37.2732C58.0072 37.3281 57.7168 37.3532 57.4261 37.3479C55.8546 37.3479 55.2435 36.8251 55.2435 35.5242V32.0195H54.3018V30.6504H55.2435V29.1129L57.0643 29.1128Z" fill="white"/>
<path d="M58.9629 33.9806C58.9629 31.8206 60.2724 30.5073 62.2741 30.5073C64.2757 30.5073 65.5852 31.8144 65.5852 33.9806C65.5852 36.1778 64.2944 37.4663 62.2741 37.4663C60.2537 37.4663 58.9629 36.1715 58.9629 33.9806ZM63.7331 33.9868C63.7331 32.6611 63.1596 31.8954 62.2741 31.8954C61.3885 31.8954 60.8086 32.6611 60.8086 33.9868C60.8086 35.3252 61.3761 36.0782 62.2741 36.0782C63.1658 36.0782 63.7331 35.3252 63.7331 33.9868Z" fill="white"/>
<path d="M70.9055 33.1342C70.7995 32.4309 70.3317 31.9329 69.5836 31.9329C68.6856 31.9329 68.1243 32.6921 68.1243 33.9806C68.1243 35.2939 68.6856 36.041 69.5898 36.041C70.3193 36.041 70.7933 35.605 70.9055 34.8769H72.6016C72.5081 36.4517 71.3295 37.4663 69.5711 37.4663C67.5567 37.4663 66.2783 36.1592 66.2783 33.9806C66.2783 31.8395 67.5567 30.5073 69.5584 30.5073C71.367 30.5073 72.5143 31.6214 72.5954 33.1342H70.9055Z" fill="white"/>
<path d="M73.2393 33.9806C73.2393 31.8206 74.549 30.5073 76.5507 30.5073C78.5524 30.5073 79.8619 31.8144 79.8619 33.9806C79.8619 36.1778 78.571 37.4663 76.5507 37.4663C74.5303 37.4663 73.2393 36.1715 73.2393 33.9806ZM78.0097 33.9868C78.0097 32.6611 77.4362 31.8954 76.5507 31.8954C75.6652 31.8954 75.0852 32.6611 75.0852 33.9868C75.0852 35.3252 75.6527 36.0782 76.5507 36.0782C77.4424 36.0782 78.0097 35.3252 78.0097 33.9868Z" fill="white"/>
<path d="M80.8418 28.3413H82.6628V37.3231H80.8418V28.3413Z" fill="white"/>
<path d="M49.7952 0.000351138V0.00251259H53.2071C53.8668 0.00251259 54.2659 0.750855 54.1236 1.69054L54.1096 1.77394L54.0814 1.92589C53.9049 2.87435 53.2425 3.64841 52.5841 3.69446L52.5224 3.69662H50.3954C49.6856 3.69662 48.9563 4.5255 48.766 5.54768C48.581 6.54122 48.974 7.35219 49.6482 7.39646L49.7067 7.39839H51.335C52.014 7.39839 52.4171 8.19103 52.235 9.16923C52.0584 10.1177 51.3961 10.8921 50.7377 10.9381L50.676 10.9403H49.0476C48.3594 10.9403 47.6527 11.7194 47.4371 12.6986L47.4183 12.791L46.8471 15.8601C46.5525 17.4425 45.4231 18.7254 44.3241 18.7254C43.6416 18.7254 43.1019 18.2216 42.8917 17.3956L42.8704 17.3059L40.3789 7.17437C40.3452 7.03703 40.1953 7.08451 40.1493 7.232L40.1411 7.2651L38.4275 16.4687C38.2109 17.6404 37.4106 18.6008 36.5967 18.7119L36.527 18.7194L36.5323 18.7254H31.0261C30.7892 18.7241 30.5556 18.6694 30.3424 18.5655C29.9176 18.4007 29.55 18.1147 29.2848 17.7426C29.0196 17.3705 28.8683 16.9286 28.8496 16.4711L28.8477 16.3776V2.3184C28.8477 0.620613 29.7829 0.0408818 30.952 0.0179426L31.0254 0.0172114H34.9921C35.0571 0.0188127 35.122 0.0238165 35.1864 0.0322022L35.2827 0.047339C36.2605 0.17434 37.1563 0.66292 37.7953 1.41784L36.676 7.09328C36.2005 2.27501 34.6447 3.06227 32.4042 3.06227H32.0154C31.778 3.06227 31.5833 3.32363 31.5624 3.65723L31.5605 3.71681V15.1101C31.5606 15.2365 31.6074 15.3583 31.6918 15.4519C31.7763 15.5456 31.8923 15.6042 32.0174 15.6166L32.0675 15.619H33.7407C34.0917 15.6157 34.4377 15.5345 34.7539 15.3813C35.0702 15.2282 35.3489 15.0068 35.5704 14.7329L35.63 14.656L37.823 2.86716C38.1111 1.31808 38.5118 0.056018 39.5583 0.00181143L39.6291 0H40.3474C41.0309 0 41.5707 0.504545 41.7809 1.33155L41.8022 1.42138L44.7082 12.7634C44.7431 12.8986 44.892 12.8508 44.9375 12.7038L44.9456 12.6708L46.6153 3.69639H43.6868C43.0085 3.69639 42.3098 2.90375 42.1277 1.92554L42.0995 1.77359C41.9199 0.795156 42.323 0.00216257 43.002 0.00216257H47.4849V0L49.7952 0.000351138Z" fill="white"/>
</svg>
