<svg xmlns="http://www.w3.org/2000/svg" xmlns:xlink="http://www.w3.org/1999/xlink" version="1.1" id="Layer_1" x="0px" y="0px" width="200px" height="200px" viewBox="0 0 1000 1000" xml:space="preserve">
<g>
	<path fill-rule="evenodd" clip-rule="evenodd" fill="#9BD3AE" d="M182.653,824.926c-89.378,0-162.87,67.989-171.582,155.074   h343.166C345.525,892.915,272.031,824.926,182.653,824.926z"/>
    <path fill-rule="evenodd" clip-rule="evenodd" fill="#F4F4F4" d="M182.653,853.274c-39.789,0-75.816,16.13-101.892,42.204   C58.537,917.703,43.542,947.154,39.595,980h6.346c3.912-31.104,18.194-58.989,39.272-80.066   c24.935-24.935,59.389-40.36,97.44-40.36s72.508,15.426,97.438,40.36c21.078,21.077,35.359,48.963,39.274,80.066h6.344   c-3.947-32.846-18.941-62.297-41.166-84.521C258.469,869.404,222.44,853.274,182.653,853.274z"/>
    <path fill-rule="evenodd" clip-rule="evenodd" fill="#F4F4F4" d="M182.653,884.776c-31.091,0-59.243,12.602-79.616,32.979   c-16.506,16.5-27.911,38.106-31.648,62.244h6.382c3.681-22.396,14.362-42.437,29.72-57.793   c19.232-19.233,45.809-31.132,75.163-31.132c29.352,0,55.929,11.898,75.161,31.132c15.36,15.356,26.042,35.396,29.72,57.793h6.38   c-3.735-24.138-15.141-45.744-31.645-62.244C241.894,897.378,213.743,884.776,182.653,884.776z"/>
    <path fill-rule="evenodd" clip-rule="evenodd" fill="#F4F4F4" d="M182.651,916.274c-22.39,0-42.67,9.078-57.342,23.755   c-10.769,10.763-18.522,24.549-21.887,39.971h6.463c3.255-13.681,10.262-25.903,19.877-35.519   c13.536-13.534,32.235-21.908,52.889-21.908c20.656,0,39.354,8.374,52.889,21.908c9.615,9.615,16.626,21.838,19.877,35.519h6.465   c-3.369-15.422-11.125-29.208-21.889-39.971C225.321,925.353,205.043,916.274,182.651,916.274z"/>
    <path fill-rule="evenodd" clip-rule="evenodd" fill="#F4F4F4" d="M182.651,947.777c-13.692,0-26.093,5.55-35.067,14.526   c-4.97,4.968-8.891,10.986-11.399,17.696h6.797c2.183-4.973,5.27-9.457,9.054-13.245c7.833-7.833,18.661-12.679,30.615-12.679   s22.782,4.846,30.615,12.679c3.784,3.788,6.873,8.272,9.051,13.245h6.799c-2.508-6.71-6.429-12.729-11.399-17.696   C208.744,953.327,196.344,947.777,182.651,947.777z"/>
</g>
    <g>
	<path fill-rule="evenodd" clip-rule="evenodd" fill="#9BD3AE" d="M872.449,824.926c-89.38,0-162.87,67.989-171.582,155.074h343.164   C1035.319,892.915,961.825,824.926,872.449,824.926z"/>
        <path fill-rule="evenodd" clip-rule="evenodd" fill="#F4F4F4" d="M872.449,853.274c-39.787,0-75.813,16.13-101.892,42.204   c-22.221,22.225-37.22,51.676-41.171,84.521h6.353c3.914-31.104,18.196-58.989,39.273-80.066   c24.931-24.935,59.384-40.36,97.437-40.36c38.054,0,72.506,15.426,97.437,40.36c21.077,21.077,35.359,48.963,39.274,80.066h6.348   c-3.947-32.846-18.945-62.297-41.171-84.521C948.268,869.404,912.24,853.274,872.449,853.274z"/>
        <path fill-rule="evenodd" clip-rule="evenodd" fill="#F4F4F4" d="M872.449,884.776c-31.091,0-59.24,12.602-79.618,32.979   c-16.504,16.5-27.909,38.106-31.645,62.244h6.38c3.683-22.396,14.359-42.437,29.721-57.793   c19.229-19.233,45.809-31.132,75.162-31.132s55.929,11.898,75.163,31.132c15.356,15.356,26.037,35.396,29.72,57.793h6.38   c-3.739-24.138-15.141-45.744-31.648-62.244C931.689,897.378,903.541,884.776,872.449,884.776z"/>
        <path fill-rule="evenodd" clip-rule="evenodd" fill="#F4F4F4" d="M872.445,916.274c-22.388,0-42.668,9.078-57.341,23.755   c-10.767,10.763-18.521,24.549-21.887,39.971h6.466c3.251-13.681,10.258-25.903,19.873-35.519   c13.537-13.534,32.238-21.908,52.889-21.908c20.658,0,39.355,8.374,52.889,21.908c9.615,9.615,16.626,21.838,19.881,35.519h6.462   c-3.365-15.422-11.12-29.208-21.887-39.971C915.117,925.353,894.841,916.274,872.445,916.274z"/>
        <path fill-rule="evenodd" clip-rule="evenodd" fill="#F4F4F4" d="M872.445,947.777c-13.692,0-26.091,5.55-35.066,14.526   c-4.969,4.968-8.887,10.986-11.397,17.696h6.795c2.181-4.973,5.27-9.457,9.058-13.245c7.833-7.833,18.656-12.679,30.611-12.679   c11.959,0,22.782,4.846,30.615,12.679c3.784,3.788,6.872,8.272,9.054,13.245h6.799c-2.511-6.71-6.429-12.729-11.401-17.696   C898.54,953.327,886.142,947.777,872.445,947.777z"/>
</g>

    <g>
	<path fill-rule="evenodd" clip-rule="evenodd" fill="#9BD3AE" d="M527.552,824.926c89.376,0,162.87,67.989,171.582,155.074H355.971   C364.682,892.915,438.173,824.926,527.552,824.926z"/>
        <path fill-rule="evenodd" clip-rule="evenodd" fill="#F4F4F4" d="M527.552,853.274c39.783,0,75.814,16.13,101.888,42.204   c22.225,22.225,37.223,51.676,41.17,84.521h-6.348c-3.914-31.104-18.196-58.989-39.274-80.066   c-24.931-24.935-59.387-40.36-97.437-40.36c-38.053,0-72.505,15.426-97.44,40.36c-21.077,21.077-35.359,48.963-39.274,80.066   h-6.344c3.947-32.846,18.941-62.297,41.166-84.521C451.73,869.404,487.762,853.274,527.552,853.274z"/>
        <path fill-rule="evenodd" clip-rule="evenodd" fill="#F4F4F4" d="M527.552,884.776c31.087,0,59.241,12.602,79.614,32.979   c16.508,16.5,27.909,38.106,31.649,62.244h-6.38c-3.683-22.396-14.364-42.437-29.72-57.793   c-19.23-19.233-45.813-31.132-75.163-31.132c-29.354,0-55.933,11.898-75.163,31.132c-15.36,15.356-26.038,35.396-29.72,57.793   h-6.384c3.739-24.138,15.145-45.744,31.648-62.244C468.308,897.378,496.461,884.776,527.552,884.776z"/>
        <path fill-rule="evenodd" clip-rule="evenodd" fill="#F4F4F4" d="M527.552,916.274c22.392,0,42.667,9.078,57.34,23.755   c10.767,10.763,18.522,24.549,21.892,39.971h-6.466c-3.251-13.681-10.262-25.903-19.877-35.519   c-13.534-13.534-32.235-21.908-52.889-21.908s-39.355,8.374-52.889,21.908c-9.615,9.615-16.626,21.838-19.877,35.519h-6.461   c3.365-15.422,11.121-29.208,21.887-39.971C484.881,925.353,505.161,916.274,527.552,916.274z"/>
        <path fill-rule="evenodd" clip-rule="evenodd" fill="#F4F4F4" d="M527.552,947.777c13.692,0,26.095,5.55,35.067,14.526   c4.968,4.968,8.891,10.986,11.397,17.696h-6.795c-2.181-4.973-5.27-9.457-9.054-13.245c-7.833-7.833-18.661-12.679-30.615-12.679   s-22.782,4.846-30.615,12.679c-3.784,3.788-6.873,8.272-9.053,13.245h-6.795c2.511-6.71,6.429-12.729,11.397-17.696   C501.458,953.327,513.86,947.777,527.552,947.777z"/>
</g>
    <g>
	<g>
		<path fill-rule="evenodd" clip-rule="evenodd" fill="#BE1F24" d="M983.725,745.148c0,0-19.027-71.191,18.701-106.62    c0,0,7.706,5.737,9.347,15.418c0,0,6.726-30.835,30.676-47.733c0,0,8.036,6.726,6.889,25.26c0,0,23.783-12.301,32.316-46.419    c0,0,14.758,20.011,5.574,54.785c0,0,8.203-6.396,14.6-6.56c0,0-2.787,27.059-13.94,47.4c0,0,7.056-5.001,14.93-4.59    c0,0-25.18,67.325-92.758,80.118L983.725,745.148z"/>
        <path fill-rule="evenodd" clip-rule="evenodd" fill="#A31B1F" d="M1081.653,585.054c0,0,14.758,20.011,5.574,54.785    c0,0,8.203-6.396,14.6-6.56c0,0-2.787,27.059-13.94,47.4c0,0,7.056-5.001,14.926-4.59c0,0-25.176,67.325-92.758,80.118    l-10.123-4.252c66.186-29.464,80.269-85.86,80.269-85.86c-11.93,9.444-21.875,6.214-21.875,6.214    C1090.638,632.535,1081.653,585.054,1081.653,585.054z"/>
        <path fill-rule="evenodd" clip-rule="evenodd" fill="#BE1F24" d="M309.132,737.523c0,0-0.513,60.689,81.697,60.689    c82.21,0,370.222,0,458.805,0c88.578,0,119.482-51.38,151.835-81.515c0,0,16.442-18.282,28.642,3.951    c0,0-17.664,114.408-86.784,168.469c-79.801,62.406-130.387,51.311-212.268,51.311c-81.885,0-291.426-1.412-372.049-1.412    c-80.624,0-147.52-29.643-147.52-177.853L309.132,737.523z"/>
        <path fill-rule="evenodd" clip-rule="evenodd" fill="#BE1F24" d="M985.527,840.807c-11.284,18.021-25.18,34.998-42.2,48.312    c-53.052,41.492-93.192,50.484-138.199,51.863c-14.535-13.297-3.085-33.955,53.153-44.6    C945.41,879.882,980.205,846.418,985.527,840.807z"/>
        <g>
			<g>
				<g>
					<path fill-rule="evenodd" clip-rule="evenodd" fill="#FFCB05" d="M1018.051,749.592c1.884,0,3.727,0.175,5.518,0.513       c-0.668,2.494-1.392,5.106-2.177,7.821c-1.087-0.171-2.206-0.261-3.341-0.261V749.592z"/>
                    <path fill-rule="evenodd" clip-rule="evenodd" fill="#FFCB05" d="M1018.051,749.592c1.985,0,3.927-0.199,5.807-0.569       c0.858-3.255,1.611-6.287,2.278-9.078c-2.499,1.009-5.225,1.566-8.085,1.566V749.592z"/>
				</g>
                <g>
					<path fill-rule="evenodd" clip-rule="evenodd" fill="#343C18" d="M1011.129,779.206c0-3.434,2.507-6.282,5.786-6.823       c-1.232,3.719-2.56,7.548-4,11.466C1011.809,782.62,1011.129,780.992,1011.129,779.206z"/>
                    <path fill-rule="evenodd" clip-rule="evenodd" fill="#343C18" d="M1011.129,719.97c0,3.825,3.101,6.921,6.922,6.921       c3.82,0,6.917-3.096,6.917-6.921c0-3.816-3.097-6.917-6.917-6.917C1014.229,713.053,1011.129,716.153,1011.129,719.97z"/>
				</g>
			</g>
            <g>
				<g>
					<path fill-rule="evenodd" clip-rule="evenodd" fill="#FFCB05" d="M990.499,779.206c8.163,0,15.564,3.313,20.919,8.663       c-1.062,2.795-2.185,5.627-3.353,8.484c-0.7-0.981-1.481-1.904-2.336-2.76c-3.894-3.897-9.285-6.307-15.23-6.307V779.206       L990.499,779.206z M990.499,832.522v-2.156c0.419,0,0.83-0.013,1.241-0.033L990.499,832.522z"/>
                    <path fill-rule="evenodd" clip-rule="evenodd" fill="#FFCB05" d="M990.499,779.206c8.175,0,15.585-3.316,20.939-8.675       c5.363-5.359,8.679-12.769,8.679-20.939c0-8.179-3.315-15.58-8.679-20.943c-3.837-3.837-8.724-6.628-14.188-7.901       c-2.234,2.205-4.48,4.496-6.751,6.848v0.456c5.945,0,11.337,2.413,15.23,6.311c3.898,3.895,6.312,9.282,6.312,15.23       c0,5.945-2.413,11.332-6.312,15.23c-3.894,3.895-9.285,6.312-15.23,6.312V779.206z"/>
                    <path fill-rule="evenodd" clip-rule="evenodd" fill="#FFCB05" d="M1012.712,709.939c-0.411,0.464-0.834,0.92-1.273,1.355       c-3.304,3.308-7.394,5.839-11.963,7.291l1.994-1.888C1001.47,716.698,1006.323,711.307,1012.712,709.939z"/>
				</g>
                <g>
					<circle fill-rule="evenodd" clip-rule="evenodd" fill="#343C18" cx="990.498" cy="808.828" r="6.919"/>
                    <path fill-rule="evenodd" clip-rule="evenodd" fill="#343C18" d="M983.578,749.592c0,3.821,3.101,6.918,6.921,6.918       c3.821,0,6.918-3.097,6.918-6.918c0-3.824-3.097-6.921-6.918-6.921C986.679,742.671,983.578,745.768,983.578,749.592z"/>
				</g>
			</g>
            <g>
				<g>
					<path fill-rule="evenodd" clip-rule="evenodd" fill="#FFCB05" d="M963.555,868.062c0.605,0,1.208,0.02,1.807,0.057       c-0.599,0.684-1.201,1.363-1.807,2.034V868.062z"/>
                    <path fill-rule="evenodd" clip-rule="evenodd" fill="#FFCB05" d="M963.555,868.062c0.643,0,1.277-0.021,1.908-0.062       c3.088-3.532,6.047-7.17,8.874-10.9c-3.169,1.835-6.856,2.889-10.782,2.889V868.062L963.555,868.062z M991.943,829.979       c-1.42-4.773-4.016-9.042-7.45-12.476c-5.358-5.359-12.765-8.676-20.938-8.676v8.073c5.944,0,11.336,2.417,15.229,6.315       c3.898,3.894,6.312,9.281,6.312,15.23c0,1.188-0.098,2.355-0.281,3.491C987.313,837.995,989.693,834,991.943,829.979z"/>
                    <path fill-rule="evenodd" clip-rule="evenodd" fill="#FFCB05" d="M968.652,750.027c6.133,1.066,11.626,4.021,15.841,8.24       c5.363,5.358,8.68,12.764,8.68,20.938c0,8.179-3.316,15.585-8.68,20.943c-5.358,5.363-12.765,8.679-20.938,8.679v-8.076       c5.944,0,11.336-2.417,15.229-6.312c3.898-3.894,6.312-9.285,6.312-15.234c0-5.944-2.413-11.332-6.312-15.23       c-3.894-3.894-9.285-6.311-15.229-6.311v-2.836C965.292,753.238,966.988,751.635,968.652,750.027z"/>
                    <path fill-rule="evenodd" clip-rule="evenodd" fill="#FFCB05" d="M969.784,748.933c5.676-1.217,10.754-4.061,14.709-8.02       c4.159-4.159,7.089-9.546,8.191-15.572C985.462,732.75,978.04,740.872,969.784,748.933z"/>
				</g>
                <g>
					<circle fill-rule="evenodd" clip-rule="evenodd" fill="#343C18" cx="963.554" cy="838.447" r="6.917"/>
                    <circle fill-rule="evenodd" clip-rule="evenodd" fill="#343C18" cx="963.554" cy="779.206" r="6.917"/>
				</g>
			</g>
            <g>
				<g>
					<path fill-rule="evenodd" clip-rule="evenodd" fill="#FFCB05" d="M965.621,867.821c-0.068-8.077-3.369-15.394-8.675-20.699       c-5.363-5.358-12.769-8.675-20.943-8.675v8.076c5.949,0,11.337,2.413,15.23,6.308c3.898,3.897,6.312,9.285,6.312,15.23       c0,4.39-1.314,8.472-3.564,11.877C958.057,876.094,961.939,872.041,965.621,867.821L965.621,867.821z M945.391,887.458       c-2.841,1.375-6.022,2.148-9.388,2.148v5.091c2.413-1.791,4.858-3.65,7.324-5.579       C944.023,888.573,944.703,888.016,945.391,887.458z"/>
                    <path fill-rule="evenodd" clip-rule="evenodd" fill="#FFCB05" d="M936.003,779.206c8.175,0,15.58,3.316,20.943,8.68       c5.358,5.358,8.675,12.765,8.675,20.942c0,8.175-3.316,15.581-8.675,20.939c-5.363,5.363-12.769,8.68-20.943,8.68v-8.081       c5.949,0,11.337-2.409,15.23-6.308c3.898-3.897,6.312-9.285,6.312-15.23c0-5.952-2.413-11.336-6.312-15.234       c-3.894-3.897-9.281-6.307-15.23-6.307V779.206z"/>
                    <path fill-rule="evenodd" clip-rule="evenodd" fill="#FFCB05" d="M936.003,779.206c8.175,0,15.58-3.316,20.943-8.675       c4.577-4.578,7.67-10.657,8.468-17.428c-8.622,8.064-18.209,15.914-29.411,22.746V779.206z"/>
				</g>
                <g>
					<circle fill-rule="evenodd" clip-rule="evenodd" fill="#343C18" cx="936.005" cy="868.062" r="6.919"/>
                    <circle fill-rule="evenodd" clip-rule="evenodd" fill="#343C18" cx="936.005" cy="808.828" r="6.919"/>
				</g>
			</g>
            <g>
				<g>
					<path fill-rule="evenodd" clip-rule="evenodd" fill="#FFCB05" d="M909.059,868.062c8.179,0,15.584,3.32,20.942,8.679       c4.31,4.31,7.3,9.94,8.306,16.231c-2.608,1.965-5.181,3.85-7.728,5.664l0.021-0.956c0-5.945-2.413-11.332-6.312-15.23       c-3.894-3.895-9.281-6.307-15.229-6.307V868.062z"/>
                    <path fill-rule="evenodd" clip-rule="evenodd" fill="#FFCB05" d="M909.059,868.062c8.179,0,15.584-3.316,20.942-8.676       c5.359-5.358,8.676-12.765,8.676-20.938c0-8.179-3.316-15.585-8.676-20.943c-5.358-5.359-12.764-8.676-20.942-8.676v8.073       c5.948,0,11.336,2.417,15.229,6.315c3.898,3.894,6.312,9.281,6.312,15.23c0,5.948-2.413,11.332-6.312,15.23       c-3.894,3.894-9.281,6.311-15.229,6.311V868.062z"/>
                    <path fill-rule="evenodd" clip-rule="evenodd" fill="#FFCB05" d="M938.294,774.425c0.252,1.559,0.383,3.154,0.383,4.781       c0,8.179-3.316,15.585-8.676,20.943c-5.358,5.363-12.764,8.679-20.942,8.679v-8.076c5.948,0,11.336-2.417,15.229-6.312       c3.898-3.894,6.312-9.285,6.312-15.234l-0.004-0.207C933.248,777.53,935.812,776,938.294,774.425z"/>
				</g>
                <g>
					<path fill-rule="evenodd" clip-rule="evenodd" fill="#343C18" d="M902.141,897.68c0-3.817,3.097-6.918,6.918-6.918       c3.82,0,6.917,3.101,6.917,6.918c0,3.82-3.097,6.921-6.917,6.921C905.237,904.601,902.141,901.5,902.141,897.68z"/>
                    <circle fill-rule="evenodd" clip-rule="evenodd" fill="#343C18" cx="909.058" cy="838.447" r="6.917"/>
				</g>
			</g>
            <g>
				<g>
					<path fill-rule="evenodd" clip-rule="evenodd" fill="#FFCB05" d="M881.507,897.68c8.179,0,15.584,3.32,20.943,8.679       c2.067,2.071,3.829,4.439,5.217,7.044c-2.381,1.363-4.736,2.665-7.072,3.902c-1.018-1.938-2.323-3.699-3.854-5.233       c-3.898-3.897-9.285-6.311-15.234-6.311V897.68z"/>
                    <path fill-rule="evenodd" clip-rule="evenodd" fill="#FFCB05" d="M881.507,897.68c8.179,0,15.584-3.316,20.943-8.676       c5.358-5.358,8.675-12.764,8.675-20.942c0-8.171-3.316-15.581-8.675-20.939c-5.359-5.358-12.765-8.675-20.943-8.675v8.076       c5.949,0,11.336,2.413,15.234,6.308c3.895,3.897,6.307,9.285,6.307,15.23c0,5.948-2.412,11.336-6.307,15.234       c-3.898,3.897-9.285,6.311-15.234,6.311V897.68z"/>
                    <path fill-rule="evenodd" clip-rule="evenodd" fill="#FFCB05" d="M904.562,790.233c4.102,5.082,6.563,11.552,6.563,18.595       c0,8.175-3.316,15.581-8.675,20.939c-5.359,5.363-12.765,8.68-20.943,8.68v-8.081c5.949,0,11.336-2.409,15.234-6.308       c3.895-3.897,6.307-9.285,6.307-15.23c0-5.952-2.412-11.336-6.307-15.234c-0.293-0.288-0.594-0.573-0.903-0.846       C898.833,791.979,901.738,791.137,904.562,790.233z"/>
				</g>
                <g>
					<path fill-rule="evenodd" clip-rule="evenodd" fill="#343C18" d="M874.59,927.302c0-3.82,3.101-6.921,6.917-6.921       c2.515,0,4.708,1.338,5.925,3.34c-4.272,1.9-8.492,3.602-12.671,5.119C874.646,928.344,874.59,927.831,874.59,927.302z"/>
                    <path fill-rule="evenodd" clip-rule="evenodd" fill="#343C18" d="M874.59,868.062c0,3.824,3.101,6.921,6.917,6.921       c3.825,0,6.922-3.097,6.922-6.921c0-3.821-3.097-6.918-6.922-6.918C877.69,861.144,874.59,864.24,874.59,868.062z"/>
                    <path fill-rule="evenodd" clip-rule="evenodd" fill="#343C18" d="M874.59,808.828c0-3.82,3.101-6.921,6.917-6.921       c3.825,0,6.922,3.101,6.922,6.921c0,3.821-3.097,6.918-6.922,6.918C877.69,815.746,874.59,812.649,874.59,808.828z"/>
				</g>
			</g>
            <g>
				<g>
					<path fill-rule="evenodd" clip-rule="evenodd" fill="#FFCB05" d="M868.746,930.915c-4.211-2.303-9.045-3.613-14.18-3.613v7.621       C859.266,933.788,863.981,932.466,868.746,930.915z"/>
                    <path fill-rule="evenodd" clip-rule="evenodd" fill="#FFCB05" d="M854.566,868.062c8.174,0,15.58,3.32,20.938,8.679       c5.359,5.359,8.676,12.765,8.676,20.939c0,8.179-3.316,15.584-8.676,20.943c-5.358,5.362-12.765,8.679-20.938,8.679v-8.081       c5.948,0,11.332-2.409,15.229-6.307c3.895-3.898,6.312-9.281,6.312-15.234c0-5.945-2.417-11.332-6.312-15.23       c-3.897-3.895-9.281-6.307-15.229-6.307V868.062z"/>
                    <path fill-rule="evenodd" clip-rule="evenodd" fill="#FFCB05" d="M854.566,868.062c8.174,0,15.58-3.316,20.938-8.676       c5.359-5.358,8.676-12.765,8.676-20.938c0-8.179-3.316-15.585-8.676-20.943c-5.358-5.359-12.765-8.676-20.938-8.676v8.073       c5.948,0,11.332,2.417,15.229,6.315c3.895,3.894,6.312,9.281,6.312,15.23c0,5.948-2.417,11.332-6.312,15.23       c-3.897,3.894-9.281,6.311-15.229,6.311V868.062z"/>
                    <path fill-rule="evenodd" clip-rule="evenodd" fill="#FFCB05" d="M878.858,796.149c-0.997,1.429-2.124,2.771-3.354,4       c-5.358,5.363-12.765,8.679-20.938,8.679v-8.076c4.102,0,7.938-1.147,11.201-3.142       C870.293,797.265,874.65,796.772,878.858,796.149z"/>
				</g>
                <g>
					<path fill-rule="evenodd" clip-rule="evenodd" fill="#343C18" d="M847.645,897.68c0-3.817,3.101-6.918,6.922-6.918       c3.82,0,6.917,3.101,6.917,6.918c0,3.82-3.097,6.921-6.917,6.921C850.745,904.601,847.645,901.5,847.645,897.68z"/>
                    <circle fill-rule="evenodd" clip-rule="evenodd" fill="#343C18" cx="854.564" cy="838.447" r="6.919"/>
				</g>
			</g>
            <g>
				<g>
					<path fill-rule="evenodd" clip-rule="evenodd" fill="#FFCB05" d="M827.011,897.68c8.179,0,15.584,3.32,20.943,8.679       c5.358,5.359,8.675,12.769,8.675,20.943c0,2.531-0.317,4.993-0.915,7.341c-3.113,0.769-6.214,1.456-9.314,2.063       c1.384-2.84,2.157-6.034,2.157-9.403c0-5.949-2.418-11.336-6.312-15.23c-3.898-3.897-9.285-6.311-15.234-6.311V897.68z"/>
                    <path fill-rule="evenodd" clip-rule="evenodd" fill="#FFCB05" d="M827.011,897.68c8.179,0,15.584-3.316,20.943-8.676       c5.358-5.358,8.675-12.764,8.675-20.942c0-8.171-3.316-15.581-8.675-20.939c-5.359-5.358-12.765-8.675-20.943-8.675v8.076       c5.949,0,11.336,2.413,15.234,6.308c3.894,3.897,6.312,9.285,6.312,15.23c0,5.948-2.418,11.336-6.312,15.234       c-3.898,3.897-9.285,6.311-15.234,6.311V897.68z"/>
                    <path fill-rule="evenodd" clip-rule="evenodd" fill="#FFCB05" d="M854.644,798.147c1.281,3.313,1.985,6.913,1.985,10.681       c0,8.175-3.316,15.581-8.675,20.939c-5.359,5.363-12.765,8.68-20.943,8.68v-8.081c5.949,0,11.336-2.409,15.234-6.308       c3.894-3.897,6.312-9.285,6.312-15.23c0-3.861-1.018-7.482-2.796-10.615h3.874       C851.327,798.213,852.991,798.184,854.644,798.147z"/>
				</g>
                <g>
					<path fill-rule="evenodd" clip-rule="evenodd" fill="#343C18" d="M820.094,927.302c0-3.82,3.096-6.921,6.917-6.921       c3.825,0,6.921,3.101,6.921,6.921c0,3.821-3.096,6.917-6.921,6.917C823.189,934.219,820.094,931.123,820.094,927.302z"/>
                    <path fill-rule="evenodd" clip-rule="evenodd" fill="#343C18" d="M820.094,868.062c0,3.824,3.096,6.921,6.917,6.921       c3.825,0,6.921-3.097,6.921-6.921c0-3.821-3.096-6.918-6.921-6.918C823.189,861.144,820.094,864.24,820.094,868.062z"/>
                    <path fill-rule="evenodd" clip-rule="evenodd" fill="#343C18" d="M820.094,808.828c0-3.82,3.096-6.921,6.917-6.921       c3.825,0,6.921,3.101,6.921,6.921c0,3.821-3.096,6.918-6.921,6.918C823.189,815.746,820.094,812.649,820.094,808.828z"/>
				</g>
			</g>
            <g>
				<g>
					<path fill-rule="evenodd" clip-rule="evenodd" fill="#FFCB05" d="M824.269,939.843c-0.977-1.38-2.067-2.674-3.26-3.866       c-5.358-5.358-12.765-8.675-20.943-8.675v8.077c5.371,0,10.287,1.965,14.055,5.217       C817.521,940.4,820.903,940.156,824.269,939.843z"/>
                    <path fill-rule="evenodd" clip-rule="evenodd" fill="#FFCB05" d="M800.065,868.062c8.179,0,15.585,3.32,20.943,8.679       c5.363,5.359,8.68,12.765,8.68,20.939c0,8.179-3.316,15.584-8.68,20.943c-5.358,5.362-12.765,8.679-20.943,8.679v-8.081       c5.953,0,11.341-2.409,15.234-6.307c3.898-3.898,6.312-9.281,6.312-15.234c0-5.945-2.413-11.332-6.312-15.23       c-3.894-3.895-9.281-6.307-15.234-6.307V868.062z"/>
                    <path fill-rule="evenodd" clip-rule="evenodd" fill="#FFCB05" d="M800.065,868.062c8.179,0,15.585-3.316,20.943-8.676       c5.363-5.358,8.68-12.765,8.68-20.938c0-8.179-3.316-15.585-8.68-20.943c-5.358-5.359-12.765-8.676-20.943-8.676v8.073       c5.953,0,11.341,2.417,15.234,6.315c3.898,3.894,6.312,9.281,6.312,15.23c0,5.948-2.413,11.332-6.312,15.23       c-3.894,3.894-9.281,6.311-15.234,6.311V868.062z"/>
                    <path fill-rule="evenodd" clip-rule="evenodd" fill="#FFCB05" d="M822.783,798.213c-0.565,0.671-1.156,1.318-1.774,1.937       c-5.358,5.363-12.765,8.679-20.943,8.679v-8.076c3.675,0,7.134-0.924,10.156-2.539H822.783z"/>
				</g>
                <g>
					<path fill-rule="evenodd" clip-rule="evenodd" fill="#343C18" d="M793.152,897.68c0-3.817,3.097-6.918,6.913-6.918       c3.821,0,6.922,3.101,6.922,6.918c0,3.82-3.101,6.921-6.922,6.921C796.249,904.601,793.152,901.5,793.152,897.68z"/>
                    <path fill-rule="evenodd" clip-rule="evenodd" fill="#343C18" d="M793.152,838.447c0,3.82,3.097,6.917,6.913,6.917       c3.821,0,6.922-3.097,6.922-6.917c0-3.821-3.101-6.922-6.922-6.922C796.249,831.525,793.152,834.626,793.152,838.447z"/>
				</g>
			</g>
            <g>
				<g>
					<path fill-rule="evenodd" clip-rule="evenodd" fill="#FFCB05" d="M772.519,897.68c8.175,0,15.58,3.32,20.939,8.679       c5.362,5.359,8.679,12.769,8.679,20.943c0,4.993-1.236,9.7-3.422,13.826c-3.21,0.049-6.453,0.069-9.733,0.062       c3.17-3.748,5.078-8.598,5.078-13.888c0-5.949-2.412-11.336-6.311-15.23c-3.898-3.897-9.281-6.311-15.23-6.311V897.68z"/>
                    <path fill-rule="evenodd" clip-rule="evenodd" fill="#FFCB05" d="M772.519,897.68c8.175,0,15.58-3.316,20.939-8.676       c5.362-5.358,8.679-12.764,8.679-20.942c0-8.171-3.316-15.581-8.679-20.939c-5.359-5.358-12.765-8.675-20.939-8.675v8.076       c5.949,0,11.332,2.413,15.23,6.308c3.898,3.897,6.311,9.285,6.311,15.23c0,5.948-2.412,11.336-6.311,15.234       c-3.898,3.897-9.281,6.311-15.23,6.311V897.68z"/>
                    <path fill-rule="evenodd" clip-rule="evenodd" fill="#FFCB05" d="M800.176,798.213c1.27,3.296,1.961,6.872,1.961,10.615       c0,8.175-3.316,15.581-8.679,20.939c-5.359,5.363-12.765,8.68-20.939,8.68v-8.081c5.949,0,11.332-2.409,15.23-6.308       c3.898-3.897,6.311-9.285,6.311-15.23c0-3.861-1.017-7.482-2.795-10.615H800.176z"/>
				</g>
                <g>
					<circle fill-rule="evenodd" clip-rule="evenodd" fill="#343C18" cx="772.519" cy="927.302" r="6.917"/>
                    <circle fill-rule="evenodd" clip-rule="evenodd" fill="#343C18" cx="772.519" cy="868.062" r="6.917"/>
                    <circle fill-rule="evenodd" clip-rule="evenodd" fill="#343C18" cx="772.519" cy="808.828" r="6.917"/>
				</g>
			</g>
            <g>
				<g>
					<path fill-rule="evenodd" clip-rule="evenodd" fill="#FFCB05" d="M770.537,940.981c-1.155-1.811-2.507-3.491-4.024-5.005       c-5.358-5.358-12.765-8.675-20.939-8.675v8.077c5.469,0,10.462,2.043,14.258,5.396L770.537,940.981z"/>
                    <path fill-rule="evenodd" clip-rule="evenodd" fill="#FFCB05" d="M745.573,868.062c8.175,0,15.581,3.32,20.939,8.679       c5.359,5.359,8.68,12.765,8.68,20.939c0,8.179-3.32,15.584-8.68,20.943c-5.358,5.362-12.765,8.679-20.939,8.679v-8.081       c5.949,0,11.333-2.409,15.23-6.307c3.898-3.898,6.312-9.281,6.312-15.234c0-5.945-2.413-11.332-6.312-15.23       c-3.897-3.895-9.281-6.307-15.23-6.307V868.062z"/>
                    <path fill-rule="evenodd" clip-rule="evenodd" fill="#FFCB05" d="M745.573,868.062c8.175,0,15.581-3.316,20.939-8.676       c5.359-5.358,8.68-12.765,8.68-20.938c0-8.179-3.32-15.585-8.68-20.943c-5.358-5.359-12.765-8.676-20.939-8.676v8.073       c5.949,0,11.333,2.417,15.23,6.315c3.898,3.894,6.312,9.281,6.312,15.23c0,5.948-2.413,11.332-6.312,15.23       c-3.897,3.894-9.281,6.311-15.23,6.311V868.062z"/>
                    <path fill-rule="evenodd" clip-rule="evenodd" fill="#FFCB05" d="M768.287,798.213c-0.562,0.671-1.151,1.318-1.774,1.937       c-5.358,5.363-12.765,8.679-20.939,8.679v-8.076c3.671,0,7.129-0.924,10.152-2.539H768.287z"/>
				</g>
                <g>
					<path fill-rule="evenodd" clip-rule="evenodd" fill="#343C18" d="M738.656,897.68c0-3.817,3.097-6.918,6.917-6.918       c3.821,0,6.918,3.101,6.918,6.918c0,3.82-3.097,6.921-6.918,6.921C741.753,904.601,738.656,901.5,738.656,897.68z"/>
                    <circle fill-rule="evenodd" clip-rule="evenodd" fill="#343C18" cx="745.574" cy="838.447" r="6.917"/>
				</g>
			</g>
            <g>
				<g>
					<path fill-rule="evenodd" clip-rule="evenodd" fill="#FFCB05" d="M718.022,897.68c8.175,0,15.58,3.32,20.939,8.679       c5.362,5.359,8.679,12.769,8.679,20.943c0,4.749-1.119,9.241-3.108,13.221c-3.104-0.041-6.25-0.069-9.44-0.082       c2.8-3.638,4.472-8.194,4.472-13.139c0-5.949-2.413-11.336-6.311-15.23c-3.895-3.897-9.286-6.311-15.23-6.311V897.68z"/>
                    <path fill-rule="evenodd" clip-rule="evenodd" fill="#FFCB05" d="M718.022,897.68c8.175,0,15.58-3.316,20.939-8.676       c5.362-5.358,8.679-12.764,8.679-20.942c0-8.171-3.316-15.581-8.679-20.939c-5.359-5.358-12.765-8.675-20.939-8.675v8.076       c5.944,0,11.336,2.413,15.23,6.308c3.897,3.897,6.311,9.285,6.311,15.23c0,5.948-2.413,11.336-6.311,15.234       c-3.895,3.897-9.286,6.311-15.23,6.311V897.68z"/>
                    <path fill-rule="evenodd" clip-rule="evenodd" fill="#FFCB05" d="M745.68,798.213c1.266,3.296,1.961,6.872,1.961,10.615       c0,8.175-3.316,15.581-8.679,20.939c-5.359,5.363-12.765,8.68-20.939,8.68v-8.081c5.944,0,11.336-2.409,15.23-6.308       c3.897-3.897,6.311-9.285,6.311-15.23c0-3.861-1.013-7.482-2.791-10.615H745.68z"/>
				</g>
                <g>
					<circle fill-rule="evenodd" clip-rule="evenodd" fill="#343C18" cx="718.022" cy="927.302" r="6.917"/>
                    <circle fill-rule="evenodd" clip-rule="evenodd" fill="#343C18" cx="718.022" cy="868.062" r="6.917"/>
                    <circle fill-rule="evenodd" clip-rule="evenodd" fill="#343C18" cx="718.022" cy="808.828" r="6.917"/>
				</g>
			</g>
            <g>
				<g>
					<path fill-rule="evenodd" clip-rule="evenodd" fill="#FFCB05" d="M715.675,940.416c-1.074-1.595-2.304-3.08-3.658-4.439       c-5.354-5.358-12.765-8.675-20.939-8.675v8.077c5.261,0,10.079,1.884,13.818,5.017L715.675,940.416z"/>
                    <path fill-rule="evenodd" clip-rule="evenodd" fill="#FFCB05" d="M691.078,868.062c8.174,0,15.584,3.32,20.939,8.679       c5.363,5.359,8.679,12.765,8.679,20.939c0,8.179-3.315,15.584-8.679,20.943c-5.354,5.362-12.765,8.679-20.939,8.679v-8.081       c5.949,0,11.336-2.409,15.234-6.307c3.895-3.898,6.308-9.281,6.308-15.234c0-5.945-2.413-11.332-6.308-15.23       c-3.897-3.895-9.285-6.307-15.234-6.307V868.062z"/>
                    <path fill-rule="evenodd" clip-rule="evenodd" fill="#FFCB05" d="M691.078,868.062c8.174,0,15.584-3.316,20.939-8.676       c5.363-5.358,8.679-12.765,8.679-20.938c0-8.179-3.315-15.585-8.679-20.943c-5.354-5.359-12.765-8.676-20.939-8.676v8.073       c5.949,0,11.336,2.417,15.234,6.315c3.895,3.894,6.308,9.281,6.308,15.23c0,5.948-2.413,11.332-6.308,15.23       c-3.897,3.894-9.285,6.311-15.234,6.311V868.062z"/>
                    <path fill-rule="evenodd" clip-rule="evenodd" fill="#FFCB05" d="M713.791,798.213c-0.562,0.671-1.152,1.318-1.774,1.937       c-5.354,5.363-12.765,8.679-20.939,8.679v-8.076c3.67,0,7.129-0.924,10.152-2.539H713.791z"/>
				</g>
                <g>
					<path fill-rule="evenodd" clip-rule="evenodd" fill="#343C18" d="M684.16,897.68c0-3.817,3.097-6.918,6.917-6.918       s6.917,3.101,6.917,6.918c0,3.82-3.096,6.921-6.917,6.921S684.16,901.5,684.16,897.68z"/>
                    <circle fill-rule="evenodd" clip-rule="evenodd" fill="#343C18" cx="691.077" cy="838.447" r="6.917"/>
				</g>
			</g>
            <g>
				<g>
					<path fill-rule="evenodd" clip-rule="evenodd" fill="#FFCB05" d="M663.526,897.68c8.175,0,15.584,3.32,20.943,8.679       c5.359,5.359,8.675,12.769,8.675,20.943c0,4.684-1.09,9.114-3.027,13.054l-9.436-0.028c2.755-3.622,4.386-8.13,4.386-13.025       c0-5.949-2.413-11.336-6.311-15.23c-3.895-3.897-9.282-6.311-15.23-6.311V897.68z"/>
                    <path fill-rule="evenodd" clip-rule="evenodd" fill="#FFCB05" d="M663.526,897.68c8.175,0,15.584-3.316,20.943-8.676       c5.359-5.358,8.675-12.764,8.675-20.942c0-8.171-3.316-15.581-8.675-20.939s-12.768-8.675-20.943-8.675v8.076       c5.949,0,11.336,2.413,15.23,6.308c3.898,3.897,6.311,9.285,6.311,15.23c0,5.948-2.413,11.336-6.311,15.234       c-3.895,3.897-9.282,6.311-15.23,6.311V897.68z"/>
                    <path fill-rule="evenodd" clip-rule="evenodd" fill="#FFCB05" d="M691.183,798.213c1.27,3.296,1.961,6.872,1.961,10.615       c0,8.175-3.316,15.581-8.675,20.939c-5.359,5.363-12.768,8.68-20.943,8.68v-8.081c5.949,0,11.336-2.409,15.23-6.308       c3.898-3.897,6.311-9.285,6.311-15.23c0-3.861-1.013-7.482-2.795-10.615H691.183z"/>
				</g>
                <g>
					<circle fill-rule="evenodd" clip-rule="evenodd" fill="#343C18" cx="663.528" cy="927.302" r="6.919"/>
                    <circle fill-rule="evenodd" clip-rule="evenodd" fill="#343C18" cx="663.528" cy="868.062" r="6.919"/>
                    <circle fill-rule="evenodd" clip-rule="evenodd" fill="#343C18" cx="663.528" cy="808.828" r="6.919"/>
				</g>
			</g>
            <g>
				<g>
					<path fill-rule="evenodd" clip-rule="evenodd" fill="#FFCB05" d="M661.068,940.254c-1.05-1.534-2.233-2.967-3.544-4.277       c-5.359-5.358-12.769-8.675-20.943-8.675v8.077c5.155,0,9.892,1.811,13.598,4.834L661.068,940.254z"/>
                    <path fill-rule="evenodd" clip-rule="evenodd" fill="#FFCB05" d="M636.582,868.062c8.174,0,15.584,3.32,20.943,8.679       c5.359,5.359,8.675,12.765,8.675,20.939c0,8.179-3.316,15.584-8.675,20.943c-5.359,5.362-12.769,8.679-20.943,8.679v-8.081       c5.949,0,11.336-2.409,15.23-6.307c3.898-3.898,6.311-9.281,6.311-15.234c0-5.945-2.413-11.332-6.311-15.23       c-3.894-3.895-9.281-6.307-15.23-6.307V868.062z"/>
                    <path fill-rule="evenodd" clip-rule="evenodd" fill="#FFCB05" d="M636.582,868.062c8.174,0,15.584-3.316,20.943-8.676       c5.359-5.358,8.675-12.765,8.675-20.938c0-8.179-3.316-15.585-8.675-20.943c-5.359-5.359-12.769-8.676-20.943-8.676v8.073       c5.949,0,11.336,2.417,15.23,6.315c3.898,3.894,6.311,9.281,6.311,15.23c0,5.948-2.413,11.332-6.311,15.23       c-3.894,3.894-9.281,6.311-15.23,6.311V868.062z"/>
                    <path fill-rule="evenodd" clip-rule="evenodd" fill="#FFCB05" d="M659.294,798.213c-0.562,0.671-1.151,1.318-1.77,1.937       c-5.359,5.363-12.769,8.679-20.943,8.679v-8.076c3.674,0,7.128-0.924,10.156-2.539H659.294z"/>
				</g>
                <g>
					<path fill-rule="evenodd" clip-rule="evenodd" fill="#343C18" d="M629.664,897.68c0-3.817,3.097-6.918,6.917-6.918       s6.921,3.101,6.921,6.918c0,3.82-3.101,6.921-6.921,6.921S629.664,901.5,629.664,897.68z"/>
                    <path fill-rule="evenodd" clip-rule="evenodd" fill="#343C18" d="M629.664,838.447c0,3.82,3.097,6.917,6.917,6.917       s6.921-3.097,6.921-6.917c0-3.821-3.101-6.922-6.921-6.922S629.664,834.626,629.664,838.447z"/>
				</g>
			</g>
            <g>
				<g>
					<path fill-rule="evenodd" clip-rule="evenodd" fill="#FFCB05" d="M609.03,897.68c8.179,0,15.584,3.32,20.943,8.679       c5.359,5.359,8.679,12.769,8.679,20.943c0,4.603-1.054,8.96-2.93,12.846l-9.371-0.036c2.653-3.581,4.219-8.012,4.219-12.81       c0-5.949-2.413-11.336-6.307-15.23c-3.898-3.897-9.286-6.311-15.234-6.311V897.68z"/>
                    <path fill-rule="evenodd" clip-rule="evenodd" fill="#FFCB05" d="M609.03,897.68c8.179,0,15.584-3.316,20.943-8.676       c5.359-5.358,8.679-12.764,8.679-20.942c0-8.171-3.32-15.581-8.679-20.939s-12.764-8.675-20.943-8.675v8.076       c5.949,0,11.336,2.413,15.234,6.308c3.894,3.897,6.307,9.285,6.307,15.23c0,5.948-2.413,11.336-6.307,15.234       c-3.898,3.897-9.286,6.311-15.234,6.311V897.68z"/>
                    <path fill-rule="evenodd" clip-rule="evenodd" fill="#FFCB05" d="M636.687,798.213c1.27,3.296,1.965,6.872,1.965,10.615       c0,8.175-3.32,15.581-8.679,20.939c-5.359,5.363-12.764,8.68-20.943,8.68v-8.081c5.949,0,11.336-2.409,15.234-6.308       c3.894-3.897,6.307-9.285,6.307-15.23c0-3.861-1.013-7.482-2.791-10.615H636.687z"/>
				</g>
                <g>
					<circle fill-rule="evenodd" clip-rule="evenodd" fill="#343C18" cx="609.03" cy="927.302" r="6.917"/>
                    <circle fill-rule="evenodd" clip-rule="evenodd" fill="#343C18" cx="609.03" cy="868.062" r="6.917"/>
                    <circle fill-rule="evenodd" clip-rule="evenodd" fill="#343C18" cx="609.03" cy="808.828" r="6.917"/>
				</g>
			</g>
            <g>
				<g>
					<path fill-rule="evenodd" clip-rule="evenodd" fill="#FFCB05" d="M606.41,940.018c-1.005-1.444-2.136-2.796-3.377-4.041       c-5.363-5.358-12.769-8.675-20.943-8.675v8.077c5.013,0,9.631,1.713,13.289,4.59L606.41,940.018z"/>
                    <path fill-rule="evenodd" clip-rule="evenodd" fill="#FFCB05" d="M582.089,868.062c8.174,0,15.58,3.32,20.943,8.679       c5.355,5.359,8.675,12.765,8.675,20.939c0,8.179-3.32,15.584-8.675,20.943c-5.363,5.362-12.769,8.679-20.943,8.679v-8.081       c5.949,0,11.332-2.409,15.23-6.307c3.898-3.898,6.307-9.281,6.307-15.234c0-5.945-2.409-11.332-6.307-15.23       c-3.898-3.895-9.281-6.307-15.23-6.307V868.062z"/>
                    <path fill-rule="evenodd" clip-rule="evenodd" fill="#FFCB05" d="M582.089,868.062c8.174,0,15.58-3.316,20.943-8.676       c5.355-5.358,8.675-12.765,8.675-20.938c0-8.179-3.32-15.585-8.675-20.943c-5.363-5.359-12.769-8.676-20.943-8.676v8.073       c5.949,0,11.332,2.417,15.23,6.315c3.898,3.894,6.307,9.281,6.307,15.23c0,5.948-2.409,11.332-6.307,15.23       c-3.898,3.894-9.281,6.311-15.23,6.311V868.062z"/>
                    <path fill-rule="evenodd" clip-rule="evenodd" fill="#FFCB05" d="M604.802,798.213c-0.562,0.671-1.155,1.318-1.77,1.937       c-5.363,5.363-12.769,8.679-20.943,8.679v-8.076c3.67,0,7.125-0.924,10.152-2.539H604.802z"/>
				</g>
                <g>
					<path fill-rule="evenodd" clip-rule="evenodd" fill="#343C18" d="M575.168,897.68c0-3.817,3.101-6.918,6.921-6.918       s6.917,3.101,6.917,6.918c0,3.82-3.096,6.921-6.917,6.921S575.168,901.5,575.168,897.68z"/>
                    <circle fill-rule="evenodd" clip-rule="evenodd" fill="#343C18" cx="582.087" cy="838.447" r="6.919"/>
				</g>
			</g>
            <g>
				<g>
					<path fill-rule="evenodd" clip-rule="evenodd" fill="#FFCB05" d="M554.538,897.68c8.175,0,15.58,3.32,20.939,8.679       c5.359,5.359,8.675,12.769,8.675,20.943c0,4.505-1.005,8.772-2.808,12.598l-9.306-0.041c2.543-3.535,4.041-7.873,4.041-12.557       c0-5.949-2.417-11.336-6.311-15.23c-3.898-3.897-9.285-6.311-15.23-6.311V897.68z"/>
                    <path fill-rule="evenodd" clip-rule="evenodd" fill="#FFCB05" d="M554.538,897.68c8.175,0,15.58-3.316,20.939-8.676       c5.359-5.358,8.675-12.764,8.675-20.942c0-8.171-3.316-15.581-8.675-20.939s-12.764-8.675-20.939-8.675v8.076       c5.945,0,11.332,2.413,15.23,6.308c3.894,3.897,6.311,9.285,6.311,15.23c0,5.948-2.417,11.336-6.311,15.234       c-3.898,3.897-9.285,6.311-15.23,6.311V897.68z"/>
                    <path fill-rule="evenodd" clip-rule="evenodd" fill="#FFCB05" d="M582.195,798.213c1.266,3.296,1.958,6.872,1.958,10.615       c0,8.175-3.316,15.581-8.675,20.939c-5.359,5.363-12.764,8.68-20.939,8.68v-8.081c5.945,0,11.332-2.409,15.23-6.308       c3.894-3.897,6.311-9.285,6.311-15.23c0-3.861-1.013-7.482-2.795-10.615H582.195z"/>
				</g>
                <g>
					<path fill-rule="evenodd" clip-rule="evenodd" fill="#343C18" d="M547.617,927.302c0-3.82,3.096-6.921,6.921-6.921       c3.821,0,6.917,3.101,6.917,6.921c0,3.821-3.096,6.917-6.917,6.917C550.713,934.219,547.617,931.123,547.617,927.302z"/>
                    <path fill-rule="evenodd" clip-rule="evenodd" fill="#343C18" d="M547.617,868.062c0,3.824,3.096,6.921,6.921,6.921       c3.821,0,6.917-3.097,6.917-6.921c0-3.821-3.096-6.918-6.917-6.918C550.713,861.144,547.617,864.24,547.617,868.062z"/>
                    <path fill-rule="evenodd" clip-rule="evenodd" fill="#343C18" d="M547.617,808.828c0-3.82,3.096-6.921,6.921-6.921       c3.821,0,6.917,3.101,6.917,6.921c0,3.821-3.096,6.918-6.917,6.918C550.713,815.746,547.617,812.649,547.617,808.828z"/>
				</g>
			</g>
            <g>
				<g>
					<path fill-rule="evenodd" clip-rule="evenodd" fill="#FFCB05" d="M551.734,939.757c-0.96-1.347-2.034-2.612-3.202-3.78       c-5.359-5.358-12.765-8.675-20.943-8.675v8.077c4.862,0,9.347,1.611,12.952,4.325L551.734,939.757z"/>
                    <path fill-rule="evenodd" clip-rule="evenodd" fill="#FFCB05" d="M527.589,868.062c8.179,0,15.584,3.32,20.943,8.679       c5.359,5.359,8.679,12.765,8.679,20.939c0,8.179-3.32,15.584-8.679,20.943c-5.359,5.362-12.765,8.679-20.943,8.679v-8.081       c5.949,0,11.336-2.409,15.234-6.307c3.898-3.898,6.311-9.281,6.311-15.234c0-5.945-2.413-11.332-6.311-15.23       c-3.898-3.895-9.285-6.307-15.234-6.307V868.062z"/>
                    <path fill-rule="evenodd" clip-rule="evenodd" fill="#FFCB05" d="M527.589,868.062c8.179,0,15.584-3.316,20.943-8.676       c5.359-5.358,8.679-12.765,8.679-20.938c0-8.179-3.32-15.585-8.679-20.943c-5.359-5.359-12.765-8.676-20.943-8.676v8.073       c5.949,0,11.336,2.417,15.234,6.315c3.898,3.894,6.311,9.281,6.311,15.23c0,5.948-2.413,11.332-6.311,15.23       c-3.898,3.894-9.285,6.311-15.234,6.311V868.062z"/>
                    <path fill-rule="evenodd" clip-rule="evenodd" fill="#FFCB05" d="M550.306,798.213c-0.565,0.671-1.156,1.318-1.774,1.937       c-5.359,5.363-12.765,8.679-20.943,8.679v-8.076c3.674,0,7.133-0.924,10.156-2.539H550.306z"/>
				</g>
                <g>
					<path fill-rule="evenodd" clip-rule="evenodd" fill="#343C18" d="M520.672,897.68c0-3.817,3.096-6.918,6.917-6.918       c3.825,0,6.921,3.101,6.921,6.918c0,3.82-3.096,6.921-6.921,6.921C523.768,904.601,520.672,901.5,520.672,897.68z"/>
                    <path fill-rule="evenodd" clip-rule="evenodd" fill="#343C18" d="M520.672,838.447c0,3.82,3.096,6.917,6.917,6.917       c3.825,0,6.921-3.097,6.921-6.917c0-3.821-3.096-6.922-6.921-6.922C523.768,831.525,520.672,834.626,520.672,838.447z"/>
				</g>
			</g>
            <g>
				<g>
					<path fill-rule="evenodd" clip-rule="evenodd" fill="#FFCB05" d="M500.042,897.68c8.174,0,15.58,3.32,20.939,8.679       c5.363,5.359,8.679,12.769,8.679,20.943c0,4.402-0.964,8.577-2.686,12.337l-9.245-0.044c2.429-3.487,3.853-7.724,3.853-12.293       c0-5.949-2.413-11.336-6.311-15.23c-3.898-3.897-9.281-6.311-15.23-6.311V897.68z"/>
                    <path fill-rule="evenodd" clip-rule="evenodd" fill="#FFCB05" d="M500.042,897.68c8.174,0,15.58-3.316,20.939-8.676       c5.363-5.358,8.679-12.764,8.679-20.942c0-8.171-3.316-15.581-8.679-20.939c-5.359-5.358-12.765-8.675-20.939-8.675v8.076       c5.949,0,11.332,2.413,15.23,6.308c3.898,3.897,6.311,9.285,6.311,15.23c0,5.948-2.413,11.336-6.311,15.234       c-3.898,3.897-9.281,6.311-15.23,6.311V897.68z"/>
                    <path fill-rule="evenodd" clip-rule="evenodd" fill="#FFCB05" d="M527.699,798.213c1.266,3.296,1.961,6.872,1.961,10.615       c0,8.175-3.316,15.581-8.679,20.939c-5.359,5.363-12.765,8.68-20.939,8.68v-8.081c5.949,0,11.332-2.409,15.23-6.308       c3.898-3.897,6.311-9.285,6.311-15.23c0-3.861-1.017-7.482-2.795-10.615H527.699z"/>
				</g>
                <g>
					<circle fill-rule="evenodd" clip-rule="evenodd" fill="#343C18" cx="500.042" cy="927.302" r="6.917"/>
                    <circle fill-rule="evenodd" clip-rule="evenodd" fill="#343C18" cx="500.042" cy="868.062" r="6.917"/>
                    <circle fill-rule="evenodd" clip-rule="evenodd" fill="#343C18" cx="500.042" cy="808.828" r="6.917"/>
				</g>
			</g>
            <g>
				<g>
					<path fill-rule="evenodd" clip-rule="evenodd" fill="#FFCB05" d="M497.047,939.497c-0.911-1.254-1.917-2.426-3.007-3.521       c-5.363-5.358-12.769-8.675-20.943-8.675v8.077c4.7,0,9.05,1.506,12.59,4.061L497.047,939.497z"/>
                    <path fill-rule="evenodd" clip-rule="evenodd" fill="#FFCB05" d="M473.097,868.062c8.175,0,15.581,3.32,20.943,8.679       c5.359,5.359,8.675,12.765,8.675,20.939c0,8.179-3.316,15.584-8.675,20.943c-5.363,5.362-12.769,8.679-20.943,8.679v-8.081       c5.949,0,11.336-2.409,15.23-6.307c3.898-3.898,6.311-9.281,6.311-15.234c0-5.945-2.413-11.332-6.311-15.23       c-3.894-3.895-9.281-6.307-15.23-6.307V868.062z"/>
                    <path fill-rule="evenodd" clip-rule="evenodd" fill="#FFCB05" d="M473.097,868.062c8.175,0,15.581-3.316,20.943-8.676       c5.359-5.358,8.675-12.765,8.675-20.938c0-8.179-3.316-15.585-8.675-20.943c-5.363-5.359-12.769-8.676-20.943-8.676v8.073       c5.949,0,11.336,2.417,15.23,6.315c3.898,3.894,6.311,9.281,6.311,15.23c0,5.948-2.413,11.332-6.311,15.23       c-3.894,3.894-9.281,6.311-15.23,6.311V868.062z"/>
                    <path fill-rule="evenodd" clip-rule="evenodd" fill="#FFCB05" d="M495.81,798.213c-0.562,0.671-1.151,1.318-1.77,1.937       c-5.363,5.363-12.769,8.679-20.943,8.679v-8.076c3.674,0,7.125-0.924,10.152-2.539H495.81z"/>
				</g>
                <g>
					<path fill-rule="evenodd" clip-rule="evenodd" fill="#343C18" d="M466.18,897.68c0-3.817,3.096-6.918,6.917-6.918       s6.917,3.101,6.917,6.918c0,3.82-3.097,6.921-6.917,6.921S466.18,901.5,466.18,897.68z"/>
                    <circle fill-rule="evenodd" clip-rule="evenodd" fill="#343C18" cx="473.097" cy="838.447" r="6.917"/>
				</g>
			</g>
            <g>
				<g>
					<path fill-rule="evenodd" clip-rule="evenodd" fill="#FFCB05" d="M445.545,897.68c8.175,0,15.584,3.32,20.943,8.679       c5.359,5.359,8.675,12.769,8.675,20.943c0,4.301-0.92,8.391-2.568,12.081l-9.184-0.045c2.319-3.438,3.674-7.58,3.674-12.036       c0-5.949-2.413-11.336-6.311-15.23c-3.894-3.897-9.281-6.311-15.23-6.311V897.68z"/>
                    <path fill-rule="evenodd" clip-rule="evenodd" fill="#FFCB05" d="M445.545,897.68c8.175,0,15.584-3.316,20.943-8.676       c5.359-5.358,8.675-12.764,8.675-20.942c0-8.171-3.316-15.581-8.675-20.939s-12.769-8.675-20.943-8.675v8.076       c5.949,0,11.336,2.413,15.23,6.308c3.898,3.897,6.311,9.285,6.311,15.23c0,5.948-2.413,11.336-6.311,15.234       c-3.894,3.897-9.281,6.311-15.23,6.311V897.68z"/>
                    <path fill-rule="evenodd" clip-rule="evenodd" fill="#FFCB05" d="M473.203,798.213c1.266,3.296,1.961,6.872,1.961,10.615       c0,8.175-3.316,15.581-8.675,20.939c-5.359,5.363-12.769,8.68-20.943,8.68v-8.081c5.949,0,11.336-2.409,15.23-6.308       c3.898-3.897,6.311-9.285,6.311-15.23c0-3.861-1.013-7.482-2.795-10.615H473.203z"/>
				</g>
                <g>
					<circle fill-rule="evenodd" clip-rule="evenodd" fill="#343C18" cx="445.546" cy="927.302" r="6.917"/>
                    <circle fill-rule="evenodd" clip-rule="evenodd" fill="#343C18" cx="445.546" cy="868.062" r="6.917"/>
                    <circle fill-rule="evenodd" clip-rule="evenodd" fill="#343C18" cx="445.546" cy="808.828" r="6.917"/>
				</g>
			</g>
            <g>
				<g>
					<path fill-rule="evenodd" clip-rule="evenodd" fill="#FFCB05" d="M442.368,939.248c-0.863-1.159-1.807-2.25-2.828-3.271       c-5.355-5.358-12.761-8.675-20.935-8.675v8.077c4.549,0,8.772,1.416,12.248,3.825L442.368,939.248z"/>
                    <path fill-rule="evenodd" clip-rule="evenodd" fill="#FFCB05" d="M418.605,868.062c8.174,0,15.58,3.32,20.935,8.679       c5.363,5.359,8.679,12.765,8.679,20.939c0,8.179-3.316,15.584-8.679,20.943c-5.355,5.362-12.761,8.679-20.935,8.679v-8.081       c5.945,0,11.332-2.409,15.226-6.307c3.898-3.898,6.311-9.281,6.311-15.234c0-5.945-2.413-11.332-6.311-15.23       c-3.894-3.895-9.281-6.307-15.226-6.307V868.062z"/>
                    <path fill-rule="evenodd" clip-rule="evenodd" fill="#FFCB05" d="M418.605,868.062c8.174,0,15.58-3.316,20.935-8.676       c5.363-5.358,8.679-12.765,8.679-20.938c0-8.179-3.316-15.585-8.679-20.943c-5.355-5.359-12.761-8.676-20.935-8.676v8.073       c5.945,0,11.332,2.417,15.226,6.315c3.898,3.894,6.311,9.281,6.311,15.23c0,5.948-2.413,11.332-6.311,15.23       c-3.894,3.894-9.281,6.311-15.226,6.311V868.062z"/>
                    <path fill-rule="evenodd" clip-rule="evenodd" fill="#FFCB05" d="M441.314,798.213c-0.562,0.671-1.152,1.318-1.774,1.937       c-5.355,5.363-12.761,8.679-20.935,8.679v-8.076c3.67,0,7.125-0.924,10.148-2.539H441.314z"/>
				</g>
                <g>
					<path fill-rule="evenodd" clip-rule="evenodd" fill="#343C18" d="M411.684,897.68c0-3.817,3.096-6.918,6.921-6.918       c3.816,0,6.913,3.101,6.913,6.918c0,3.82-3.097,6.921-6.913,6.921C414.78,904.601,411.684,901.5,411.684,897.68z"/>
                    <path fill-rule="evenodd" clip-rule="evenodd" fill="#343C18" d="M411.684,838.447c0,3.82,3.096,6.917,6.921,6.917       c3.816,0,6.913-3.097,6.913-6.917c0-3.821-3.097-6.922-6.913-6.922C414.78,831.525,411.684,834.626,411.684,838.447z"/>
				</g>
			</g>
            <g>
				<g>
					<path fill-rule="evenodd" clip-rule="evenodd" fill="#FFCB05" d="M391.049,897.68c8.175,0,15.581,3.32,20.943,8.679       c5.359,5.359,8.675,12.769,8.675,20.943c0,4.212-0.879,8.22-2.466,11.854l-9.143-0.037c2.234-3.39,3.532-7.45,3.532-11.816       c0-5.949-2.413-11.336-6.311-15.23c-3.894-3.897-9.281-6.311-15.23-6.311V897.68z"/>
                    <path fill-rule="evenodd" clip-rule="evenodd" fill="#FFCB05" d="M391.049,897.68c8.175,0,15.581-3.316,20.943-8.676       c5.359-5.358,8.675-12.764,8.675-20.942c0-8.171-3.316-15.581-8.675-20.939c-5.363-5.358-12.769-8.675-20.943-8.675v8.076       c5.949,0,11.336,2.413,15.23,6.308c3.898,3.897,6.311,9.285,6.311,15.23c0,5.948-2.413,11.336-6.311,15.234       c-3.894,3.897-9.281,6.311-15.23,6.311V897.68z"/>
                    <path fill-rule="evenodd" clip-rule="evenodd" fill="#FFCB05" d="M418.707,798.213c1.27,3.296,1.961,6.872,1.961,10.615       c0,8.175-3.316,15.581-8.675,20.939c-5.363,5.363-12.769,8.68-20.943,8.68v-8.081c5.949,0,11.336-2.409,15.23-6.308       c3.898-3.897,6.311-9.285,6.311-15.23c0-3.861-1.013-7.482-2.792-10.615H418.707z"/>
				</g>
                <g>
					<path fill-rule="evenodd" clip-rule="evenodd" fill="#343C18" d="M384.132,927.302c0-3.82,3.096-6.921,6.917-6.921       c3.825,0,6.917,3.101,6.917,6.921c0,3.821-3.092,6.917-6.917,6.917C387.229,934.219,384.132,931.123,384.132,927.302z"/>
                    <path fill-rule="evenodd" clip-rule="evenodd" fill="#343C18" d="M384.132,868.062c0,3.824,3.096,6.921,6.917,6.921       c3.825,0,6.917-3.097,6.917-6.921c0-3.821-3.092-6.918-6.917-6.918C387.229,861.144,384.132,864.24,384.132,868.062z"/>
                    <path fill-rule="evenodd" clip-rule="evenodd" fill="#343C18" d="M384.132,808.828c0-3.82,3.096-6.921,6.917-6.921       c3.825,0,6.917,3.101,6.917,6.921c0,3.821-3.092,6.918-6.917,6.918C387.229,815.746,384.132,812.649,384.132,808.828z"/>
				</g>
			</g>
            <g>
				<g>
					<path fill-rule="evenodd" clip-rule="evenodd" fill="#FFCB05" d="M387.729,939.058c-0.822-1.087-1.717-2.116-2.681-3.081       c-5.359-5.358-12.765-8.675-20.943-8.675v8.077c4.443,0,8.578,1.343,12.008,3.654L387.729,939.058z"/>
                    <path fill-rule="evenodd" clip-rule="evenodd" fill="#FFCB05" d="M364.104,868.062c8.179,0,15.584,3.32,20.943,8.679       c5.359,5.359,8.675,12.765,8.675,20.939c0,8.179-3.316,15.584-8.675,20.943c-5.359,5.362-12.765,8.679-20.943,8.679v-8.081       c5.949,0,11.336-2.409,15.23-6.307c3.898-3.898,6.315-9.281,6.315-15.234c0-5.945-2.417-11.332-6.315-15.23       c-3.894-3.895-9.282-6.307-15.23-6.307V868.062z"/>
                    <path fill-rule="evenodd" clip-rule="evenodd" fill="#FFCB05" d="M364.104,868.062c8.179,0,15.584-3.316,20.943-8.676       c5.359-5.358,8.675-12.765,8.675-20.938c0-8.179-3.316-15.585-8.675-20.943c-5.359-5.359-12.765-8.676-20.943-8.676v8.073       c5.949,0,11.336,2.417,15.23,6.315c3.898,3.894,6.315,9.281,6.315,15.23c0,5.948-2.417,11.332-6.315,15.23       c-3.894,3.894-9.282,6.311-15.23,6.311V868.062z"/>
                    <path fill-rule="evenodd" clip-rule="evenodd" fill="#FFCB05" d="M386.862,798.164c-0.574,0.688-1.18,1.351-1.814,1.985       c-5.359,5.363-12.765,8.679-20.943,8.679v-8.076c4.215,0,8.15-1.213,11.475-3.309       C379.147,797.818,382.903,798.066,386.862,798.164z"/>
				</g>
                <g>
					<path fill-rule="evenodd" clip-rule="evenodd" fill="#343C18" d="M357.187,897.68c0-3.817,3.097-6.918,6.917-6.918       s6.921,3.101,6.921,6.918c0,3.82-3.101,6.921-6.921,6.921S357.187,901.5,357.187,897.68z"/>
                    <path fill-rule="evenodd" clip-rule="evenodd" fill="#343C18" d="M357.187,838.447c0,3.82,3.097,6.917,6.917,6.917       s6.921-3.097,6.921-6.917c0-3.821-3.101-6.922-6.921-6.922S357.187,834.626,357.187,838.447z"/>
				</g>
			</g>
            <g>
				<g>
					<path fill-rule="evenodd" clip-rule="evenodd" fill="#FFCB05" d="M336.553,897.68c8.179,0,15.584,3.32,20.943,8.679       c5.359,5.359,8.679,12.769,8.679,20.943c0,4.158-0.863,8.118-2.409,11.715h-4.756c-1.457,0-2.905-0.013-4.354-0.032       c2.177-3.365,3.438-7.378,3.438-11.683c0-5.949-2.409-11.336-6.307-15.23c-3.898-3.897-9.286-6.311-15.234-6.311V897.68z"/>
                    <path fill-rule="evenodd" clip-rule="evenodd" fill="#FFCB05" d="M336.553,897.68c8.179,0,15.584-3.316,20.943-8.676       c5.359-5.358,8.679-12.764,8.679-20.942c0-8.171-3.32-15.581-8.679-20.939s-12.765-8.675-20.943-8.675v8.076       c5.949,0,11.336,2.413,15.234,6.308c3.898,3.897,6.307,9.285,6.307,15.23c0,5.948-2.409,11.336-6.307,15.234       c-3.898,3.897-9.286,6.311-15.234,6.311V897.68z"/>
                    <path fill-rule="evenodd" clip-rule="evenodd" fill="#FFCB05" d="M362.981,795.438c2.042,4.021,3.194,8.573,3.194,13.391       c0,8.175-3.32,15.581-8.679,20.939c-5.359,5.363-12.765,8.68-20.943,8.68v-8.081c5.949,0,11.336-2.409,15.234-6.308       c3.898-3.897,6.307-9.285,6.307-15.23c0-5.952-2.409-11.336-6.307-15.234c-0.891-0.887-1.859-1.7-2.893-2.425       C353.126,792.857,357.802,794.303,362.981,795.438L362.981,795.438z M341.851,787.942c-1.697-0.427-3.467-0.655-5.298-0.655       v-2.433C338.222,785.928,339.979,786.958,341.851,787.942z"/>
				</g>
                <g>
					<circle fill-rule="evenodd" clip-rule="evenodd" fill="#343C18" cx="336.555" cy="927.302" r="6.919"/>
                    <circle fill-rule="evenodd" clip-rule="evenodd" fill="#343C18" cx="336.555" cy="868.062" r="6.919"/>
                    <circle fill-rule="evenodd" clip-rule="evenodd" fill="#343C18" cx="336.555" cy="808.828" r="6.919"/>
				</g>
			</g>
            <g>
				<g>
					<path fill-rule="evenodd" clip-rule="evenodd" fill="#FFCB05" d="M332.175,937.739c-0.517-0.606-1.058-1.196-1.624-1.763       c-5.359-5.358-12.764-8.675-20.939-8.675v6.751C316.896,935.741,324.432,936.945,332.175,937.739z"/>
                    <path fill-rule="evenodd" clip-rule="evenodd" fill="#FFCB05" d="M309.612,868.062c8.175,0,15.58,3.32,20.939,8.679       c5.359,5.359,8.679,12.765,8.679,20.939c0,8.179-3.32,15.584-8.679,20.943c-5.359,5.362-12.764,8.679-20.939,8.679v-8.081       c5.949,0,11.332-2.409,15.23-6.307c3.898-3.898,6.311-9.281,6.311-15.234c0-5.945-2.413-11.332-6.311-15.23       c-3.898-3.895-9.281-6.307-15.23-6.307V868.062z"/>
                    <path fill-rule="evenodd" clip-rule="evenodd" fill="#FFCB05" d="M309.612,868.062c8.175,0,15.58-3.316,20.939-8.676       c5.359-5.358,8.679-12.765,8.679-20.938c0-8.179-3.32-15.585-8.679-20.943c-5.359-5.359-12.764-8.676-20.939-8.676v8.073       c5.949,0,11.332,2.417,15.23,6.315c3.898,3.894,6.311,9.281,6.311,15.23c0,5.948-2.413,11.332-6.311,15.23       c-3.898,3.894-9.281,6.311-15.23,6.311V868.062z"/>
                    <path fill-rule="evenodd" clip-rule="evenodd" fill="#FFCB05" d="M309.612,749.592c0.452,0,0.907,0.009,1.355,0.028       c0.684,2.588,1.611,5.453,2.897,8.468c-1.375-0.276-2.799-0.423-4.252-0.423V749.592L309.612,749.592z M338.441,786.025       c-1.286,5.44-4.069,10.303-7.89,14.124c-5.359,5.363-12.764,8.679-20.939,8.679v-8.076c5.949,0,11.332-2.417,15.23-6.312       c3.523-3.523,5.831-8.269,6.242-13.541C333.306,782.697,335.748,784.41,338.441,786.025z"/>
                    <path fill-rule="evenodd" clip-rule="evenodd" fill="#FFCB05" d="M309.612,749.592c0.448,0,0.896-0.012,1.335-0.032       c-0.647-2.474-1.066-4.688-1.335-6.526V749.592z"/>
				</g>
                <g>
					<path fill-rule="evenodd" clip-rule="evenodd" fill="#343C18" d="M302.695,897.68c0-3.817,3.092-6.918,6.917-6.918       c3.821,0,6.917,3.101,6.917,6.918c0,3.82-3.097,6.921-6.917,6.921C305.788,904.601,302.695,901.5,302.695,897.68z"/>
                    <path fill-rule="evenodd" clip-rule="evenodd" fill="#343C18" d="M302.695,838.447c0,3.82,3.092,6.917,6.917,6.917       c3.821,0,6.917-3.097,6.917-6.917c0-3.821-3.097-6.922-6.917-6.922C305.788,831.525,302.695,834.626,302.695,838.447z"/>
                    <path fill-rule="evenodd" clip-rule="evenodd" fill="#343C18" d="M302.695,779.206c0-3.82,3.092-6.917,6.917-6.917       c3.821,0,6.917,3.097,6.917,6.917c0,3.821-3.097,6.922-6.917,6.922C305.788,786.128,302.695,783.027,302.695,779.206z"/>
				</g>
			</g>
            <g>
				<g>
					<path fill-rule="evenodd" clip-rule="evenodd" fill="#FFCB05" d="M282.061,897.68c8.175,0,15.581,3.32,20.939,8.679       c5.359,5.359,8.675,12.769,8.675,20.943c0,2.421-0.289,4.777-0.838,7.027c-2.645-0.59-5.257-1.245-7.833-1.97       c0.391-1.623,0.598-3.316,0.598-5.058c0-5.949-2.417-11.336-6.311-15.23c-3.898-3.897-9.286-6.311-15.23-6.311V897.68z"/>
                    <path fill-rule="evenodd" clip-rule="evenodd" fill="#FFCB05" d="M282.061,897.68c8.175,0,15.581-3.316,20.939-8.676       c5.359-5.358,8.675-12.764,8.675-20.942c0-8.171-3.316-15.581-8.675-20.939s-12.765-8.675-20.939-8.675v8.076       c5.945,0,11.333,2.413,15.23,6.308c3.894,3.897,6.311,9.285,6.311,15.23c0,5.948-2.417,11.336-6.311,15.234       c-3.898,3.897-9.286,6.311-15.23,6.311V897.68z"/>
                    <path fill-rule="evenodd" clip-rule="evenodd" fill="#FFCB05" d="M282.061,779.206c8.175,0,15.581,3.316,20.939,8.68       c5.359,5.358,8.675,12.765,8.675,20.942c0,8.175-3.316,15.581-8.675,20.939c-5.359,5.363-12.765,8.68-20.939,8.68v-8.081       c5.945,0,11.333-2.409,15.23-6.308c3.894-3.897,6.311-9.285,6.311-15.23c0-5.952-2.417-11.336-6.311-15.234       c-3.898-3.897-9.286-6.307-15.23-6.307V779.206z"/>
                    <path fill-rule="evenodd" clip-rule="evenodd" fill="#FFCB05" d="M282.061,779.206c8.175,0,15.581-3.316,20.939-8.675       c4.862-4.862,8.044-11.414,8.593-18.693c-2.417-7.955-2.466-13.839-2.466-14.278l-0.012-0.032l-8.032,1.945       c1.603,3.015,2.519,6.461,2.519,10.119c0,5.945-2.417,11.332-6.311,15.23c-3.898,3.895-9.286,6.312-15.23,6.312V779.206z"/>
				</g>
                <g>
					<path fill-rule="evenodd" clip-rule="evenodd" fill="#343C18" d="M277.471,922.122c1.221-1.082,2.828-1.741,4.59-1.741       c3.821,0,6.917,3.101,6.917,6.921l-0.008,0.276C285.023,925.967,281.19,924.148,277.471,922.122z"/>
                    <path fill-rule="evenodd" clip-rule="evenodd" fill="#343C18" d="M275.14,868.062c0,3.824,3.097,6.921,6.921,6.921       c3.821,0,6.917-3.097,6.917-6.921c0-3.821-3.097-6.918-6.917-6.918C278.236,861.144,275.14,864.24,275.14,868.062z"/>
                    <path fill-rule="evenodd" clip-rule="evenodd" fill="#343C18" d="M275.14,808.828c0-3.82,3.097-6.921,6.921-6.921       c3.821,0,6.917,3.101,6.917,6.921c0,3.821-3.097,6.918-6.917,6.918C278.236,815.746,275.14,812.649,275.14,808.828z"/>
                    <path fill-rule="evenodd" clip-rule="evenodd" fill="#343C18" d="M275.14,749.592c0,3.821,3.097,6.918,6.921,6.918       c3.821,0,6.917-3.097,6.917-6.918c0-2.75-1.599-5.123-3.918-6.237l-8.517,2.059C275.661,746.577,275.14,748.021,275.14,749.592       z"/>
				</g>
			</g>
            <g>
				<g>
					<path fill-rule="evenodd" clip-rule="evenodd" fill="#FFCB05" d="M255.116,868.062c8.175,0,15.58,3.32,20.939,8.679       c5.363,5.359,8.679,12.765,8.679,20.939c0,8.179-3.316,15.584-8.679,20.943c-0.582,0.581-1.188,1.139-1.814,1.672       c-2.458-1.452-4.854-3.015-7.198-4.675c1.192-0.79,2.299-1.701,3.304-2.706c3.898-3.898,6.311-9.281,6.311-15.234       c0-5.945-2.413-11.332-6.311-15.23c-3.894-3.895-9.286-6.307-15.23-6.307V868.062z"/>
                    <path fill-rule="evenodd" clip-rule="evenodd" fill="#FFCB05" d="M255.116,868.062c8.175,0,15.58-3.316,20.939-8.676       c5.363-5.358,8.679-12.765,8.679-20.938c0-8.179-3.316-15.585-8.679-20.943c-5.359-5.359-12.764-8.676-20.939-8.676v8.073       c5.945,0,11.336,2.417,15.23,6.315c3.898,3.894,6.311,9.281,6.311,15.23c0,5.948-2.413,11.332-6.311,15.23       c-3.894,3.894-9.286,6.311-15.23,6.311V868.062z"/>
                    <path fill-rule="evenodd" clip-rule="evenodd" fill="#FFCB05" d="M258.498,749.783c6.824,0.773,12.952,3.874,17.558,8.484       c5.363,5.358,8.679,12.764,8.679,20.938c0,8.179-3.316,15.585-8.679,20.943c-5.359,5.363-12.764,8.679-20.939,8.679v-8.076       c5.945,0,11.336-2.417,15.23-6.312c3.898-3.894,6.311-9.285,6.311-15.234c0-5.944-2.413-11.332-6.311-15.23       c-3.894-3.894-9.286-6.311-15.23-6.311v-7.063L258.498,749.783z"/>
				</g>
                <g>
					<path fill-rule="evenodd" clip-rule="evenodd" fill="#343C18" d="M248.197,897.68c0-3.817,3.099-6.918,6.919-6.918       s6.917,3.101,6.917,6.918c0,3.82-3.097,6.921-6.917,6.921c-0.439,0-0.867-0.04-1.282-0.118c-1.92-1.916-3.786-3.931-5.597-6.05       C248.209,898.184,248.197,897.936,248.197,897.68z"/>
                    <circle fill-rule="evenodd" clip-rule="evenodd" fill="#343C18" cx="255.115" cy="838.447" r="6.918"/>
                    <circle fill-rule="evenodd" clip-rule="evenodd" fill="#343C18" cx="255.115" cy="779.206" r="6.918"/>
				</g>
			</g>
            <g>
				<g>
					<path fill-rule="evenodd" clip-rule="evenodd" fill="#FFCB05" d="M243.78,892.85c1.707-1.119,3.29-2.409,4.727-3.846       c5.361-5.358,8.677-12.764,8.677-20.942c0-8.171-3.316-15.581-8.677-20.939c-5.361-5.358-12.767-8.675-20.943-8.675v8.076       c5.949,0,11.338,2.413,15.232,6.308c3.898,3.897,6.313,9.285,6.313,15.23c0,5.948-2.415,11.336-6.313,15.234       c-1.099,1.094-2.312,2.079-3.627,2.921C240.655,888.521,242.195,890.729,243.78,892.85z"/>
                    <path fill-rule="evenodd" clip-rule="evenodd" fill="#FFCB05" d="M227.563,779.206c8.177,0,15.582,3.316,20.943,8.68       c5.361,5.358,8.677,12.765,8.677,20.942c0,8.175-3.316,15.581-8.677,20.939c-5.361,5.363-12.767,8.68-20.943,8.68v-8.081       c5.949,0,11.338-2.409,15.232-6.308c3.898-3.897,6.313-9.285,6.313-15.23c0-5.952-2.415-11.336-6.313-15.234       c-3.894-3.897-9.284-6.307-15.232-6.307V779.206z"/>
                    <path fill-rule="evenodd" clip-rule="evenodd" fill="#FFCB05" d="M227.563,779.206c8.177,0,15.582-3.316,20.943-8.675       c5.247-5.245,8.539-12.455,8.673-20.431l-8.215,1.99c-0.574,4.951-2.826,9.391-6.168,12.731       c-3.894,3.895-9.284,6.312-15.232,6.312V779.206z"/>
				</g>
                <g>
					<path fill-rule="evenodd" clip-rule="evenodd" fill="#343C18" d="M231.966,873.403c1.536-1.27,2.519-3.189,2.519-5.342       c0-3.821-3.099-6.918-6.921-6.918c-0.313,0-0.625,0.021-0.928,0.062C228.292,865.489,230.071,869.551,231.966,873.403z"/>
                    <circle fill-rule="evenodd" clip-rule="evenodd" fill="#343C18" cx="227.565" cy="808.828" r="6.919"/>
				</g>
			</g>
            <g>
				<path fill-rule="evenodd" clip-rule="evenodd" fill="#FFCB05" d="M224.633,855.781c3.524-4.875,5.605-10.864,5.605-17.334      c0-8.179-3.316-15.585-8.677-20.943c-2.026-2.026-4.35-3.764-6.893-5.14c0.535,3.955,1.141,7.78,1.809,11.508      c3.53,3.829,5.684,8.956,5.684,14.575c0,2.197-0.332,4.325-0.946,6.323C222.277,848.579,223.411,852.257,224.633,855.781z"/>
                <path fill-rule="evenodd" clip-rule="evenodd" fill="#FFCB05" d="M221.925,758.638c5.143,5.326,8.313,12.581,8.313,20.568      c0,8.179-3.316,15.585-8.677,20.943c-2.246,2.25-4.856,4.138-7.729,5.574c-0.33-2.885-0.612-5.854-0.873-8.858      c1.033-0.724,2.002-1.537,2.893-2.425c3.896-3.894,6.309-9.285,6.309-15.234c0-5.944-2.413-11.332-6.309-15.23      c-1.121-1.118-2.364-2.115-3.709-2.97L221.925,758.638z"/>
			</g>
		</g>
        <path fill-rule="evenodd" clip-rule="evenodd" fill="#F4F4F4" d="M935.86,894.807l-0.419,0.31    c-1.037,0.769-2.071,1.525-3.104,2.271l-0.09,0.064c-1.058,0.766-2.115,1.514-3.165,2.255l-0.232,0.162l-0.216,0.151    c-1.05,0.732-2.091,1.456-3.133,2.164l-0.102,0.073c-1.005,0.684-2.006,1.355-3.003,2.019l-0.415,0.276l-0.024,0.017    c-1.106,0.736-2.205,1.448-3.304,2.152l-0.058,0.041l-0.146,0.089l-0.436,0.281c-0.874,0.558-1.741,1.106-2.607,1.644    l-0.167,0.102l-0.696,0.432l-0.028,0.013c-64.188,39.583-111.861,31.107-183.455,31.107c-58.634,0-182.727-0.721-278.068-1.136    l-1.07-0.004h-0.7l-1.762-0.008l-1.754-0.009l-1.746-0.008l-0.224-0.004l-11.804-0.045l-0.293-0.004l-3.072-0.008l-1.672-0.009    l-1.156-0.004h-0.509l-1.652-0.008l-1.644-0.009l-6.49-0.024l-1.176-0.004h-0.423l-1.587-0.004l-12.35-0.041l-1.501-0.008h-0.448    l-1.038-0.004l-1.473-0.004l-1.465-0.004l-1.201-0.005h-0.252l-1.44-0.004l-1.428-0.004l-1.416-0.004l-0.493-0.004h-0.916    l-1.396-0.004l-1.379-0.005h-1.192h-0.179l-1.355-0.004l-1.347-0.004l-1.331-0.004h-0.517h-0.802l-1.306-0.004l-1.294-0.004    h-1.167h-0.11l-1.266-0.005h-1.253h-1.241h-0.533l-0.692-0.004h-1.212l-1.196-0.004h-1.131h-0.053h-1.168h-1.155h-1.144    l-0.537-0.004h-0.586h-1.111h-1.095h-1.082c-1.213,0-2.421-0.008-3.625-0.024h-0.204l-3.316-0.057l-0.736-0.017l-3.271-0.105    l-0.232-0.009l-3.361-0.146l-0.195-0.012l-0.183-0.009c-1.099-0.057-2.193-0.126-3.288-0.195l-0.208-0.012l-0.272-0.017    l-2.905-0.216l-0.761-0.061l-2.865-0.261l-0.916-0.089c-0.928-0.09-1.847-0.188-2.763-0.293l-0.383-0.041l-0.476-0.062    l-2.771-0.342l-0.317-0.04l-0.073-0.009c-1.087-0.146-2.173-0.301-3.247-0.468l-0.317-0.045c-1.005-0.154-2.002-0.321-3.003-0.488    l-0.725-0.126c-0.96-0.167-1.917-0.342-2.869-0.524l-0.732-0.143c-0.956-0.188-1.908-0.379-2.86-0.582l-0.11-0.024l-0.399-0.09    l-2.396-0.545l-0.859-0.199c-0.875-0.212-1.745-0.432-2.612-0.659l-0.846-0.224c-0.911-0.236-1.811-0.488-2.71-0.749l-0.61-0.175    c-0.907-0.265-1.807-0.537-2.702-0.818l-0.716-0.228c-0.765-0.244-1.53-0.5-2.291-0.761l-0.708-0.24    c-0.83-0.289-1.652-0.586-2.474-0.891l-0.781-0.293c-0.806-0.306-1.607-0.619-2.405-0.94l-0.867-0.35    c-0.773-0.317-1.546-0.647-2.311-0.977l-0.944-0.424l-1.912-0.874l-1.176-0.562l-1.929-0.952l-0.752-0.383    c-0.757-0.391-1.501-0.794-2.246-1.2l-0.847-0.464c-0.752-0.419-1.501-0.847-2.246-1.286l-0.691-0.415    c-0.773-0.46-1.538-0.932-2.299-1.416l-0.724-0.468l-1.774-1.18l-0.659-0.439c-0.708-0.488-1.412-0.993-2.108-1.498l-0.797-0.582    c-0.7-0.517-1.4-1.054-2.092-1.591l-0.696-0.553c-0.679-0.537-1.351-1.087-2.018-1.645l-0.765-0.646    c-0.533-0.46-1.066-0.924-1.595-1.396l-0.997-0.899c-0.521-0.477-1.038-0.965-1.55-1.457l-0.773-0.736    c-0.594-0.578-1.18-1.168-1.766-1.766l-0.818-0.851c-0.598-0.619-1.184-1.249-1.766-1.893l-0.712-0.789    c-0.547-0.614-1.088-1.241-1.625-1.872l-0.753-0.899c-0.462-0.557-0.921-1.123-1.375-1.692l-0.664-0.826l-0.002-0.004    c-21.047-26.904-33.775-68.998-33.775-133.643l22.508-5.452c2.438,22.481,16.101,110.913,82.007,139.095h550.012    c67.541-14.607,114.384-48.596,119.511-54c-11.284,18.021-25.18,34.998-42.2,48.312    C940.813,891.088,938.322,892.979,935.86,894.807z"/>
        <g>
			<path fill-rule="evenodd" clip-rule="evenodd" fill="#7C593B" d="M216.239,617.361c0,0,82.868-25.988,142.165-82.088     c0,0,15.165-6.795,17.696,11.931c0,0-18.616,22.225-52.75,40.445c0,0,27.075-7.332,43.156-1.709c0,0,4.158,9.603-6.93,18.579     c0,0-61.918-1.184-99.906,19.674C232.793,623.941,216.239,617.361,216.239,617.361z"/>
            <path fill-rule="evenodd" clip-rule="evenodd" fill="#9D7B63" d="M267.295,606.604c0,0,85.998-12.114,153.662-57.788     c0,0,16.069-4.229,15.507,14.664c0,0-21.993,18.889-58.643,31.291c0,0,27.909-2.815,42.854,5.358c0,0,2.535,10.152-9.867,17.2     c0,0-60.897-11.275-101.778,3.101C282.554,615.795,267.295,606.604,267.295,606.604z"/>
            <path fill-rule="evenodd" clip-rule="evenodd" fill="#FAA21B" d="M95.119,753.686l2.775,25.188c0,0,6.244,14.563,0.606,28.942     c0,0,26.787-7.613,37.498-34.396c0,0,8.458,6.767,9.584,19.454c0,0,10.445-6.188,15.227-21.708c0,0,14.941,2.815,19.169,11.279     c0,0,5.924-5.359,5.924-12.406c0,0,8.736,0,15.22,6.767c0,0,2.588-13.944,43.443-13.176c40.857,0.77,32.117-25.729,28.735-28.548     C269.915,732.258,169.828,722.395,95.119,753.686z"/>
            <path fill-rule="evenodd" clip-rule="evenodd" fill="#240B0E" d="M90.065,693.224l-20.959,11.198c0,0,84.936,2.503,73.966,28.275     c-10.972,25.773,69.637-2.819,67.38-12.687c-2.256-9.868,30.729-36.654-33.268-38.062     C113.188,680.537,90.065,693.224,90.065,693.224z"/>
            <path fill-rule="evenodd" clip-rule="evenodd" fill="#F05666" d="M219.006,718.342c-2.513-0.357-43.848-1.66-43.848-1.66     s-6.107,2.548-34.983-4.684c-28.874-7.227-23.423,4.354-2.669,14.706c20.754,10.355,53.255,18.103,57.52,16.142     C199.292,740.889,219.006,718.342,219.006,718.342z"/>
            <path fill-rule="evenodd" clip-rule="evenodd" fill="#BE1F24" d="M69.106,704.422c0,0-38.623-9.582-34.396-42.008     c4.226-32.427,32.418-41.162,50.179-34.957c17.761,6.201,37.78,22.555,63.153,18.042c0,0-9.027-69.067,67.94-44.82     c0,0,22.276-0.843,32.709-13.529c10.433-12.688,18.888,1.974,18.604,19.454c0,0,40.397,3.174,58.162-5.566     c17.761-8.74,15.938,11.856,4.728,23.266c16.931,2.56,39.742,4.68,51.595,0.069c20.3-7.894,12.691,37.781-37.215,53.003     c0,0,19.743,0.285,25.102,7.052s-29.037,26.786-52.157,29.606c0,0,13.814,4.508,16.634,15.503     c2.82,10.998-33.826,45.955-127.991,30.167c-94.165-15.791-108.26,19.17-108.26,19.17s-41.439-18.038-29.037-53.28     c0,0,7.045-6.767,26.219-3.101c19.171,3.662,60.335,6.767,77.815-5.074C172.892,717.418,146.107,694.014,69.106,704.422z"/>
            <path fill-rule="evenodd" clip-rule="evenodd" fill="#961A1D" d="M91.819,630.269c16.034,7.234,34.092,19.169,56.224,15.23     c0,0-3.249-24.927,10.844-39.575c-8.565,34.57,0.964,58.02,0.964,58.02c-5.076-4.513-8.175-7.336-32.705-13.818     C102.62,643.644,91.819,630.269,91.819,630.269z"/>
            <path fill-rule="evenodd" clip-rule="evenodd" fill="#961A1D" d="M69.106,704.422c0,0-38.623-9.582-34.396-42.008     c0.98-7.54,3.263-13.803,6.405-18.893v0.004c0,0-8.234,36.397,22.178,47.481c0,0,95.207-4.896,129.696,30.655     c0,0-14.229,0.688-33.828,1.371c5.338-1.306,10.056-3.129,13.73-5.615C172.892,717.418,146.107,694.014,69.106,704.422     L69.106,704.422z M71.333,724.006c10.228,0.366,22.662,0.419,35.634,0.285c-4.476-0.529-8.524-1.155-11.892-1.799     C82.216,720.035,74.814,722.265,71.333,724.006z"/>
            <path fill-rule="evenodd" clip-rule="evenodd" fill="#961A1D" d="M333.839,733.316c-4.476,13.48-42.594,40.653-127.686,26.387     c-94.165-15.791-108.26,19.17-108.26,19.17s-31.972-13.921-31.339-41.191c0.049,0.09,8.057,15.54,23.374,13.794     c15.361-1.749,67.944-9.725,123.208,2.963C268.389,767.121,316.676,755.032,333.839,733.316z"/>
            <path fill-rule="evenodd" clip-rule="evenodd" fill="#961A1D" d="M213.204,599.836c0.919,0.269,1.837,0.546,2.779,0.843     C215.047,600.446,214.119,600.162,213.204,599.836L213.204,599.836z M215.982,600.679c16.746,4.089,51.313,5.925,51.313,5.925     c0.285-17.48-8.171-32.142-18.604-19.454C238.258,599.836,215.982,600.679,215.982,600.679z"/>
            <path fill-rule="evenodd" clip-rule="evenodd" fill="#EB7924" d="M69.106,704.422c0,0-5.168-1.281-11.514-4.496     c34.809-9.005,110.423-6.344,135.396,21.736c-21.32,13.814-56.484,15.756-87.779,11.243c-30.949-4.464-38.493,4.573-38.655,4.772     c0.085-3.771,0.795-7.8,2.303-12.085c0,0,7.045-6.767,26.219-3.101c19.171,3.662,60.335,6.767,77.815-5.074     C172.892,717.418,146.107,694.014,69.106,704.422z"/>
            <circle fill-rule="evenodd" clip-rule="evenodd" fill="#D34F26" cx="207.775" cy="652.985" r="43.282"/>
            <circle fill-rule="evenodd" clip-rule="evenodd" fill="#F4F4F4" cx="200.185" cy="648.038" r="22.229"/>
            <path fill-rule="evenodd" clip-rule="evenodd" fill="#343C18" d="M200.185,625.809c0.651,0,1.292,0.028,1.929,0.082     c5.369,4.061,8.84,10.498,8.84,17.748c0,12.276-9.953,22.229-22.229,22.229c-0.649,0-1.292-0.032-1.929-0.086     c-5.369-4.057-8.84-10.493-8.84-17.744C177.956,635.762,187.909,625.809,200.185,625.809z"/>
            <path fill-rule="evenodd" clip-rule="evenodd" fill="#060C07" d="M179.296,655.655c-0.867-2.377-1.341-4.94-1.341-7.617     c0-6.152,2.502-11.719,6.539-15.747h0.063c6.775,0,12.27,5.497,12.27,12.271c0,6.779-5.495,12.272-12.27,12.272     C182.674,656.835,180.89,656.412,179.296,655.655z"/>
            <path fill-rule="evenodd" clip-rule="evenodd" fill="#F4F4F4" d="M196.132,633.336c3.135,0,5.674,2.539,5.674,5.673     c0,3.129-2.539,5.672-5.674,5.672c-3.131,0-5.67-2.543-5.67-5.672C190.462,635.875,193.001,633.336,196.132,633.336z"/>
            <path fill-rule="evenodd" clip-rule="evenodd" fill="#FAA21B" d="M163.096,625.861c0,0,53.851-25.654,78.096,21.709     c0,0,5.911-2.516,4.647-10.352c0,0,20.028,15.995,6.494,56.025c0,0,11.279-2.815,17.2-14.941c0,0,11.556,10.434,35.522,10.148     c0,0-18.607-12.688-20.866-28.76c0,0,9.306,3.67,15.511,0.565c0,0-19.332-14.151-24.813-27.913c0,0,7.751,2.962,14.803-1.408     C251.91,619.359,199.147,580.398,163.096,625.861z"/>
            <path fill-rule="evenodd" clip-rule="evenodd" fill="#240B0E" d="M49.365,650.268c9.648-20.402,34.438-18.648,25.659,8.459     C75.024,658.727,61.208,662.394,49.365,650.268z"/>
            <path fill-rule="evenodd" clip-rule="evenodd" fill="#FAA21B" d="M46.269,659.875c0,0,23.396,13.712,63.151,6.981     c39.754-6.733,55.261,8.725,55.261,8.725s-21.989-4.74-34.115,1.745c0,0,21.122,1.091,27.35,21.439     C121.925,678.478,62.329,707.767,46.269,659.875z"/>
            <path fill-rule="evenodd" clip-rule="evenodd" fill="#F58220" d="M384.954,633.035c0,0-29.883,29.887-73.022,33.269     C331.911,684.41,377.931,661.535,384.954,633.035z"/>
            <path fill-rule="evenodd" clip-rule="evenodd" fill="#F58220" d="M360.394,684.63c0,0-27.1,18.986-60.819,15.739     C312.518,717.044,351.112,705.65,360.394,684.63z"/>
            <path fill-rule="evenodd" clip-rule="evenodd" fill="#F58220" d="M326.56,729.739c0,0-27.099,18.986-60.819,15.739     C278.688,762.153,317.278,750.76,326.56,729.739z"/>
		</g>
	</g>
        <g>
		<path fill-rule="evenodd" clip-rule="evenodd" fill="#9F742E" d="M375.819,729.674h-0.004c-3.284,3.284-3.284,8.659,0,11.943    l135.702,135.697c3.284,3.283,8.655,3.283,11.938,0h0.004c3.284-3.284,3.284-8.659,0-11.943L387.758,729.674    C384.474,726.391,379.103,726.391,375.819,729.674z"/>
            <path fill-rule="evenodd" clip-rule="evenodd" fill="#9F742E" d="M496.07,849.926L496.07,849.926    c-11.637,11.633-11.637,30.672,0,42.31l83.72,83.724c1.555,1.555,3.247,2.901,5.029,4.041h32.255    c1.782-1.14,3.471-2.486,5.029-4.041l0,0c11.633-11.638,11.633-30.676-0.004-42.31l-83.72-83.724    C526.743,838.288,507.704,838.288,496.07,849.926z"/>
            <path fill-rule="evenodd" clip-rule="evenodd" fill="#79491E" d="M579.115,968.533c11.637,11.633,30.676,11.633,42.313,0    c5.566-5.566,8.468-12.83,8.712-20.162c2.096,9.636-0.582,20.134-8.041,27.588c-1.554,1.559-3.243,2.901-5.029,4.041h-32.251    c-1.782-1.14-3.475-2.482-5.029-4.041l-83.72-83.724c-6.071-6.067-8.976-14.152-8.711-22.147    c1.176,5.403,3.853,10.538,8.036,14.722L579.115,968.533z"/>
	</g>
        <g>
		<path fill-rule="evenodd" clip-rule="evenodd" fill="#9F742E" d="M552.87,729.674L552.87,729.674    c-3.284,3.284-3.284,8.659-0.004,11.943l135.701,135.697c3.284,3.283,8.659,3.283,11.943,0l0,0c3.283-3.284,3.283-8.659,0-11.943    L564.808,729.674C561.524,726.391,556.153,726.391,552.87,729.674z"/>
            <path fill-rule="evenodd" clip-rule="evenodd" fill="#9F742E" d="M673.121,849.926L673.121,849.926    c-11.638,11.633-11.638,30.672,0,42.31l83.724,83.724c1.555,1.555,3.243,2.901,5.029,4.041h32.251    c1.782-1.14,3.475-2.486,5.029-4.041l0,0c11.638-11.638,11.638-30.676,0-42.31l-83.724-83.724    C703.797,838.288,684.758,838.288,673.121,849.926z"/>
            <path fill-rule="evenodd" clip-rule="evenodd" fill="#825321" d="M756.169,968.533c11.634,11.633,30.673,11.633,42.31,0    c5.566-5.566,8.472-12.83,8.712-20.162c2.1,9.636-0.582,20.134-8.036,27.588c-1.555,1.559-3.247,2.901-5.029,4.041h-32.251    c-1.786-1.14-3.475-2.482-5.033-4.041l-83.72-83.724c-6.071-6.067-8.972-14.152-8.712-22.147    c1.176,5.403,3.857,10.538,8.036,14.722L756.169,968.533z"/>
	</g>
        <g>
		<path fill-rule="evenodd" clip-rule="evenodd" fill="#9F742E" d="M710.768,729.674L710.768,729.674    c-3.284,3.284-3.284,8.659,0,11.943l135.697,135.697c3.283,3.283,8.658,3.283,11.942,0l0,0c3.283-3.284,3.283-8.659,0-11.943    L722.706,729.674C719.426,726.391,714.051,726.391,710.768,729.674z"/>
            <path fill-rule="evenodd" clip-rule="evenodd" fill="#9F742E" d="M831.019,849.926L831.019,849.926    c-11.638,11.633-11.638,30.672,0,42.31l83.724,83.724c1.555,1.555,3.243,2.901,5.029,4.041h32.251    c1.782-1.14,3.476-2.486,5.029-4.041l0,0c11.638-11.638,11.638-30.676,0-42.31l-83.724-83.724    C861.695,838.288,842.656,838.288,831.019,849.926z"/>
            <path fill-rule="evenodd" clip-rule="evenodd" fill="#825321" d="M914.067,968.533c11.633,11.633,30.672,11.633,42.31,0    c5.566-5.566,8.472-12.83,8.711-20.162c2.1,9.636-0.577,20.134-8.036,27.588c-1.554,1.559-3.247,2.901-5.029,4.041h-32.251    c-1.786-1.14-3.475-2.482-5.033-4.041l-83.72-83.724c-6.071-6.067-8.972-14.152-8.712-22.147    c1.176,5.403,3.857,10.538,8.037,14.722L914.067,968.533z"/>
	</g>
</g>

    <g>
	<path fill-rule="evenodd" clip-rule="evenodd" fill="#9BD3AE" d="M380.075,888.125c-70.386,0-132.2,36.638-167.441,91.875h334.881   C512.269,924.763,450.457,888.125,380.075,888.125z"/>
        <path fill-rule="evenodd" clip-rule="evenodd" fill="#F4F4F4" d="M380.075,920.763c-45.801,0-87.268,18.563-117.285,48.58   c-3.41,3.41-6.669,6.962-9.774,10.657h9.627c1.713-1.885,3.471-3.731,5.273-5.53c28.699-28.703,68.359-46.46,112.158-46.46   s83.451,17.757,112.158,46.46c1.798,1.799,3.556,3.646,5.27,5.53h9.623c-3.101-3.695-6.364-7.247-9.774-10.657   C467.343,939.326,425.872,920.763,380.075,920.763z"/>
        <path fill-rule="evenodd" clip-rule="evenodd" fill="#F4F4F4" d="M380.075,957.021c-27.38,0-52.775,8.488-73.702,22.979h13.647   c17.741-10.015,38.228-15.731,60.054-15.731c21.822,0,42.313,5.717,60.055,15.731h13.639   C432.846,965.51,407.448,957.021,380.075,957.021z"/>
</g>
    <g>
	<path fill-rule="evenodd" clip-rule="evenodd" fill="#9BD3AE" d="M700.001,906.745c58.313,0,109.854,28.951,141.06,73.255H558.937   C590.146,935.696,641.688,906.745,700.001,906.745z"/>
        <path fill-rule="evenodd" clip-rule="evenodd" fill="#F4F4F4" d="M700.001,935.098c39.786,0,75.813,16.126,101.892,42.204   c0.888,0.887,1.762,1.79,2.625,2.698h-8.871c-24.78-23.897-58.496-38.604-95.646-38.604c-37.154,0-70.87,14.702-95.646,38.604   h-8.871c0.863-0.908,1.737-1.812,2.628-2.698C624.183,951.228,660.206,935.098,700.001,935.098z"/>
        <path fill-rule="evenodd" clip-rule="evenodd" fill="#F4F4F4" d="M700.001,966.597c19.291,0,37.447,4.854,53.32,13.403h-15.039   c-11.878-4.586-24.784-7.104-38.281-7.104s-26.404,2.519-38.281,7.104h-15.039C662.55,971.45,680.71,966.597,700.001,966.597z"/>
</g>
</svg>
