<svg width="22" height="22" viewBox="0 0 22 22" fill="none" xmlns="http://www.w3.org/2000/svg">
<path d="M5.5022 11C4.70761 11 4.06437 11.6926 4.06437 12.5481L3.66797 20.027C3.66797 21.1173 4.48959 22 5.5022 22C6.51482 22 7.33464 21.1173 7.33464 20.027L6.94004 12.5481C6.94004 11.6926 6.2968 11 5.5022 11Z" fill="#929AC2"/>
<path d="M16.5022 9.77778C17.2968 9.77778 17.94 9.16214 17.94 8.40165L18.3346 1.75379C18.3346 0.784637 17.5148 0 16.5022 0C15.4896 0 14.668 0.784637 14.668 1.75379L15.0644 8.40165C15.0644 9.16214 15.7076 9.77778 16.5022 9.77778Z" fill="#929AC2"/>
<path d="M6.98955 0.805931C6.98955 0.805931 6.67632 0.476167 6.48209 0.332606C6.20032 0.110869 5.8529 0 5.50684 0C5.11838 0 4.75727 0.125083 4.46319 0.361034C4.40985 0.416469 4.18279 0.625414 3.9954 0.820145C2.81907 1.95868 0.894554 4.93082 0.306391 6.48725C0.21338 6.7232 0.0123104 7.32019 0 7.64C0 7.94418 0.0656553 8.23699 0.199702 8.51416C0.387093 8.86098 0.681174 9.13957 1.0286 9.29166C1.26934 9.38974 1.99018 9.54183 2.00385 9.54183C2.79309 9.69534 4.0761 9.77778 5.49316 9.77778C6.8432 9.77778 8.07287 9.69534 8.87441 9.57025C8.88809 9.55604 9.78264 9.40395 10.0904 9.23623C10.6512 8.93063 11 8.33364 11 7.69543V7.64C10.9863 7.22353 10.6375 6.34795 10.6252 6.34795C10.0371 4.87539 8.20555 1.9729 6.98955 0.805931Z" fill="#929AC2"/>
<path d="M21.8003 12.4216C21.6129 12.0314 21.3188 11.7196 20.9714 11.5469C20.7307 11.4365 20.0085 11.2654 19.9961 11.2654C19.2069 11.0927 17.9239 11 16.5068 11C15.1568 11 13.9271 11.0927 13.1256 11.2335C13.1119 11.2495 12.2174 11.4222 11.9096 11.6092C11.3474 11.953 11 12.6247 11 13.3442V13.4066C11.0137 13.8751 11.3611 14.8586 11.3748 14.8586C11.9629 16.5152 13.7931 19.7821 15.0104 21.0933C15.0104 21.0933 15.3237 21.4643 15.5179 21.6242C15.7983 21.8753 16.1457 22 16.4945 22C16.8816 22 17.2414 21.8593 17.5368 21.5938C17.5902 21.5315 17.8172 21.2964 18.0046 21.0789C19.1796 19.7965 21.1054 16.4528 21.6922 14.7034C21.7866 14.438 21.9877 13.7648 22 13.4066C22 13.0628 21.9343 12.7334 21.8003 12.4216Z" fill="#929AC2"/>
</svg>
