<svg width="22" height="23" viewBox="0 0 22 23" fill="none" xmlns="http://www.w3.org/2000/svg">
<path d="M9.21645 8.20472C14.3066 8.20472 18.4329 6.36803 18.4329 4.10236C18.4329 1.83669 14.3066 0 9.21645 0C4.12635 0 0 1.83669 0 4.10236C0 6.36803 4.12635 8.20472 9.21645 8.20472Z" fill="white"/>
<path d="M11.3507 19.1685C10.7047 19.004 10.2222 18.4773 10.1003 17.8337C9.80884 17.8465 9.51392 17.8533 9.21645 17.8533C4.12537 17.8533 0 16.0182 0 13.751C0 14.6971 0 15.3295 0 16.8876C0 19.154 4.12537 20.99 9.21645 20.99C9.94862 20.99 10.6578 20.9482 11.3414 20.8758C11.0447 20.3499 11.0311 19.7004 11.3507 19.1685Z" fill="white"/>
<path d="M9.21645 16.7284C9.50455 16.7284 9.78753 16.7207 10.0688 16.7096V16.2391C10.0688 15.4516 10.6066 14.7739 11.3593 14.5864C11.1615 14.2515 11.0891 13.8705 11.1359 13.5031C10.5163 13.5611 9.87532 13.5926 9.21645 13.5926C4.12537 13.5926 0 11.7575 0 9.49023C0 10.4363 0 11.0688 0 12.6269C0.000852349 14.8924 4.12537 16.7284 9.21645 16.7284Z" fill="white"/>
<path d="M9.2156 12.4665C10.1259 12.4665 11.0038 12.406 11.8349 12.2961L12.5236 11.6074C12.8534 11.2767 13.2898 11.1079 13.7296 11.1079C14.0254 11.1079 14.322 11.1846 14.5888 11.3406C14.7831 10.5982 15.4565 10.0689 16.2373 10.0689H17.5158C17.5388 10.0689 17.5618 10.074 17.584 10.0748C18.1235 9.55406 18.4312 8.97532 18.4312 8.36418C18.4312 7.53144 18.4312 6.66375 18.4312 5.22754C18.4312 7.49394 14.3058 9.3299 9.21475 9.3299C4.12367 9.3299 0 7.49394 0 5.22754C0 6.17365 0 6.80609 0 8.36418C0 10.6306 4.12452 12.4665 9.2156 12.4665Z" fill="white"/>
<path d="M22.0002 17.5166V16.238L20.4787 15.9892C20.3892 15.6295 20.2477 15.2911 20.0611 14.9791L20.9475 13.7159L20.0432 12.8116L18.7953 13.7091C18.4842 13.5208 18.1433 13.3767 17.781 13.2872L17.5151 11.7734H16.2366L15.9902 13.2829C15.6271 13.3716 15.2845 13.5131 14.9725 13.6997L13.7281 12.8116L12.8238 13.7159L13.6991 14.9672C13.5091 15.2809 13.365 15.6226 13.2747 15.9883L11.772 16.238V17.5166L13.2738 17.7825C13.3633 18.1482 13.5074 18.4908 13.6983 18.8045L12.811 20.0446L13.7153 20.9498L14.9683 20.0728C15.2819 20.2611 15.6237 20.4026 15.986 20.4921L16.2366 22.0016H17.5151L17.7836 20.4879C18.1441 20.3975 18.4851 20.2526 18.7962 20.0642L20.0585 20.9498L20.962 20.0446L20.0611 18.7942C20.2477 18.4831 20.3892 18.1439 20.4779 17.7825L22.0002 17.5166ZM16.8861 18.6707C15.9025 18.6707 15.103 17.8729 15.103 16.8875C15.103 15.9039 15.9025 15.1044 16.8861 15.1044C17.8714 15.1044 18.6692 15.9039 18.6692 16.8875C18.6692 17.8729 17.8714 18.6707 16.8861 18.6707Z" fill="white"/>
</svg>
