<svg width="18" height="18" viewBox="0 0 18 18" fill="none" xmlns="http://www.w3.org/2000/svg">
<g clip-path="url(#clip0_2753_2527)">
<path d="M9.75421 0.620235C9.26096 -0.221189 8.7387 -0.192174 8.24545 0.620235C5.98231 3.98593 2.55859 9.03447 2.55859 11.5587C2.55859 13.3286 3.28396 14.9534 4.44454 16.114C5.60512 17.2746 7.22994 18 8.99983 18C10.7697 18 12.3945 17.2746 13.5551 16.114C14.7157 14.9534 15.4411 13.3286 15.4411 11.5587C15.4411 9.00545 12.0173 3.98593 9.75421 0.620235ZM13.6422 14.4312C13.1779 15.1856 12.5106 15.8529 11.6982 16.3171C11.321 16.5202 10.8568 16.4042 10.6537 16.027C10.4215 15.6208 10.5666 15.1565 10.9438 14.9534C11.5241 14.6343 11.9883 14.1701 12.3365 13.6188C12.6847 13.0675 12.8878 12.4292 12.9168 11.7618C12.9458 11.3266 13.294 11.0075 13.7292 11.0365C14.1644 11.0655 14.4836 11.4137 14.4546 11.8489C14.3965 12.7774 14.1064 13.6478 13.6422 14.4312Z" fill="white"/>
</g>
<defs>
<clipPath id="clip0_2753_2527">
<rect width="18" height="18" fill="white"/>
</clipPath>
</defs>
</svg>
