<svg width="22" height="22" viewBox="0 0 22 22" fill="none" xmlns="http://www.w3.org/2000/svg">
<path d="M20.1668 18.2492V19.8002C20.1668 20.0019 20.0018 20.1669 19.8002 20.1669H2.20016C1.99483 20.1669 1.8335 20.0019 1.8335 19.8002V18.2492C1.8335 18.0475 1.99483 17.8825 2.20016 17.8825H3.5825V16.6982C3.5825 16.4965 3.74383 16.3315 3.94916 16.3315H7.16116C7.3665 16.3315 7.52783 16.4965 7.52783 16.6982V17.8825H9.02383V16.6982C9.02383 16.4965 9.18883 16.3315 9.3905 16.3315H12.6062C12.8078 16.3315 12.9728 16.4965 12.9728 16.6982V17.8825H14.4688V16.6982C14.4688 16.4965 14.6302 16.3315 14.8355 16.3315H18.0475C18.2528 16.3315 18.4142 16.4965 18.4142 16.6982V17.8825H19.8002C20.0018 17.8825 20.1668 18.0475 20.1668 18.2492Z" fill="white"/>
<path d="M19.9762 6.2995L12.0122 1.88116C11.9572 1.85183 11.8948 1.8335 11.8325 1.8335H10.1642C10.1018 1.8335 10.0395 1.85183 9.98816 1.88116L2.0205 6.2995C1.90316 6.3655 1.8335 6.4865 1.8335 6.6185V7.8065C1.8335 8.00816 1.99483 8.17316 2.20016 8.17316H3.5825V9.3575C3.5825 9.55916 3.74383 9.72416 3.94916 9.72416H7.16116C7.3665 9.72416 7.52783 9.55916 7.52783 9.3575V8.17316H9.02383V9.3575C9.02383 9.55916 9.18883 9.72416 9.3905 9.72416H12.6062C12.8078 9.72416 12.9728 9.55916 12.9728 9.3575V8.17316H14.4688V9.3575C14.4688 9.55916 14.6302 9.72416 14.8355 9.72416H18.0475C18.2528 9.72416 18.4142 9.55916 18.4142 9.3575V8.17316H19.8002C20.0018 8.17316 20.1668 8.00816 20.1668 7.8065V6.6185C20.1668 6.4865 20.0935 6.3655 19.9762 6.2995ZM11.0002 6.5085C10.2595 6.5085 9.65816 5.90716 9.65816 5.1665C9.65816 4.4295 10.2595 3.82816 11.0002 3.82816C11.7372 3.82816 12.3385 4.4295 12.3385 5.1665C12.3385 5.90716 11.7372 6.5085 11.0002 6.5085Z" fill="white"/>
<path d="M15.1582 10.4575H17.7249V15.5982H15.1582V10.4575Z" fill="white"/>
<path d="M9.7168 10.4575H12.2835V15.5982H9.7168V10.4575Z" fill="white"/>
<path d="M4.27197 10.4575H6.83863V15.5982H4.27197V10.4575Z" fill="white"/>
</svg>
