<svg width="22" height="22" viewBox="0 0 22 22" fill="none" xmlns="http://www.w3.org/2000/svg">
<path d="M7.69274 20.6603V17.2868C7.69273 16.4319 8.42446 15.7374 9.33082 15.732H12.6588C13.5692 15.732 14.3073 16.4281 14.3073 17.2868V20.6505C14.3072 21.392 14.9415 21.9946 15.7276 22H17.9981C19.0585 22.0026 20.0765 21.6071 20.8272 20.9008C21.578 20.1945 22 19.2354 22 18.2353V8.65243C22 7.84453 21.6203 7.07818 20.9632 6.55985L13.2498 0.741695C11.9014 -0.275965 9.97569 -0.243091 8.66729 0.819923L1.1197 6.55985C0.431594 7.0629 0.0203237 7.83152 0 8.65243V18.2255C0 20.3101 1.7917 22 4.00188 22H6.22055C6.59904 22.0026 6.96299 21.8626 7.2316 21.6111C7.50022 21.3596 7.65128 21.0173 7.65127 20.6603H7.69274Z" fill="#929AC2"/>
</svg>
