<svg width="22" height="22" viewBox="0 0 22 22" fill="none" xmlns="http://www.w3.org/2000/svg">
<path d="M17.7282 4.20706C13.8835 3.37112 13.8835 6.01825 11 6.01825C8.1165 6.01825 8.1165 3.2318 4.27184 4.20706C0.427184 5.18232 -1.49515 18 1.38835 18C4.27184 18 6.19417 14.3776 11 14.3776C15.8058 14.3776 17.7282 18 20.6117 18C23.4951 18 21.5728 5.18232 17.7282 4.20706ZM8.25381 11.4518H6.46879V13.263H4.54646V11.4518H2.76144V9.64064H4.54646V7.82945H6.33148V9.64064H8.25381V11.4518ZM16.4924 12.8451C15.2566 12.8451 14.1581 11.8698 14.1581 10.4766C14.1581 9.08335 15.2566 8.24742 16.4924 8.24742C17.7282 8.24742 18.8266 9.22267 18.8266 10.6159C18.8266 12.0091 17.7282 12.8451 16.4924 12.8451Z" fill="#929AC2"/>
</svg>
