<svg width="22" height="22" viewBox="0 0 22 22" fill="none" xmlns="http://www.w3.org/2000/svg">
<path fill-rule="evenodd" clip-rule="evenodd" d="M0.106014 15.7463L1.04578 8.93211C1.61828 6.50061 3.23856 5.5 4.78322 5.5H17.1946C18.7608 5.5 20.4351 6.43057 20.9212 8.93211L21.8718 15.7463C22.6495 20.7494 19.787 22.0001 16.0496 22.0001H5.91742C2.19077 22.0001 -0.585306 20.189 0.106014 15.7463ZM14.5526 11.1636C15.1492 11.1636 15.6328 10.7156 15.6328 10.163C15.6328 9.61034 15.1492 9.16235 14.5526 9.16235C13.9561 9.16235 13.4724 9.61034 13.4724 10.163C13.4724 10.7156 13.9561 11.1636 14.5526 11.1636ZM8.55469 10.163C8.55469 10.7156 8.07107 11.1636 7.4745 11.1636C6.87793 11.1636 6.39431 10.7156 6.39431 10.163C6.39431 9.61034 6.87793 9.16235 7.4745 9.16235C8.07107 9.16235 8.55469 9.61034 8.55469 10.163Z" fill="white"/>
<path d="M4.91909 5.2518C4.91525 5.33712 4.93347 5.42208 4.97231 5.50004H6.72879C6.7628 5.42078 6.78082 5.33672 6.78201 5.2518C6.78201 3.14253 8.68843 1.43263 11.0401 1.43263C13.3918 1.43263 15.2982 3.14253 15.2982 5.2518C15.2821 5.33392 15.2821 5.41793 15.2982 5.50004H17.0973C17.1134 5.41793 17.1134 5.33392 17.0973 5.2518C16.9606 2.31652 14.2677 0 10.9922 0C7.71673 0 5.02384 2.31652 4.88715 5.2518H4.91909Z" fill="white"/>
</svg>
