<svg width="22" height="22" viewBox="0 0 22 22" fill="none" xmlns="http://www.w3.org/2000/svg">
<path fill-rule="evenodd" clip-rule="evenodd" d="M0.106014 15.7465L1.04578 8.93235C1.61828 6.50086 3.23856 5.50024 4.78322 5.50024H17.1946C18.7608 5.50024 20.4351 6.43082 20.9212 8.93235L21.8718 15.7465C22.6495 20.7496 19.787 22.0004 16.0496 22.0004H5.91742C2.19077 22.0004 -0.585306 20.1893 0.106014 15.7465ZM14.5526 11.1638C15.1492 11.1638 15.6328 10.7158 15.6328 10.1632C15.6328 9.61059 15.1492 9.1626 14.5526 9.1626C13.9561 9.1626 13.4724 9.61059 13.4724 10.1632C13.4724 10.7158 13.9561 11.1638 14.5526 11.1638ZM8.55469 10.1632C8.55469 10.7158 8.07107 11.1638 7.4745 11.1638C6.87793 11.1638 6.39431 10.7158 6.39431 10.1632C6.39431 9.61059 6.87793 9.1626 7.4745 9.1626C8.07107 9.1626 8.55469 9.61059 8.55469 10.1632Z" fill="#929AC2"/>
<path d="M4.91909 5.2518C4.91525 5.33712 4.93347 5.42208 4.97231 5.50004H6.72879C6.7628 5.42078 6.78082 5.33672 6.78201 5.2518C6.78201 3.14253 8.68843 1.43263 11.0401 1.43263C13.3918 1.43263 15.2982 3.14253 15.2982 5.2518C15.2821 5.33392 15.2821 5.41793 15.2982 5.50004H17.0973C17.1134 5.41793 17.1134 5.33392 17.0973 5.2518C16.9606 2.31652 14.2677 0 10.9922 0C7.71673 0 5.02384 2.31652 4.88715 5.2518H4.91909Z" fill="#929AC2"/>
</svg>
