<svg width="22" height="22" viewBox="0 0 22 22" fill="none" xmlns="http://www.w3.org/2000/svg">
<path d="M21.775 3.37483L18.6252 0.224996C18.4811 0.0809042 18.2858 0 18.082 0C17.8782 0 17.6829 0.0809042 17.5388 0.224996C16.4905 1.27347 16.0734 2.67209 16.3553 3.80956L7.58492 12.58L5.99346 10.9885C5.84947 10.8445 5.65408 10.7636 5.45038 10.7636C5.24669 10.7636 5.05129 10.8445 4.9073 10.9885L1.26415 14.6317C0.448967 15.447 0 16.5309 0 17.6837C0 18.8366 0.448967 19.9206 1.26426 20.7358C2.07944 21.551 3.16335 22 4.31629 22C5.46912 22 6.55303 21.551 7.36832 20.7358L11.0115 17.0928C11.1556 16.9487 11.2365 16.7534 11.2365 16.5496C11.2365 16.3458 11.1556 16.1506 11.0115 16.0064L9.42011 14.4151L18.1877 5.64752C18.4197 5.70682 18.6642 5.73815 18.9168 5.73815C19.9217 5.73815 20.9635 5.2726 21.775 4.4612C21.9191 4.31711 22 4.12181 22 3.91802C22 3.71422 21.9191 3.51902 21.775 3.37483ZM18.9168 4.202C18.68 4.202 18.3456 4.14998 18.0979 3.90214C17.6643 3.46864 17.712 2.65786 18.1493 1.92153L20.0788 3.85114C19.6999 4.07634 19.294 4.202 18.9168 4.202Z" fill="#929AC2"/>
</svg>
