<svg width="18" height="19" viewBox="0 0 18 19" fill="none" xmlns="http://www.w3.org/2000/svg">
<path d="M4.99121 6.11889C4.99121 7.18202 5.41354 8.2016 6.16528 8.95335C6.91703 9.70509 7.93662 10.1274 8.99975 10.1274C10.0629 10.1274 11.0825 9.70509 11.8342 8.95335C12.586 8.2016 13.0083 7.18202 13.0083 6.11889C13.0083 5.05576 12.586 4.03617 11.8342 3.28442C11.0825 2.53268 10.0629 2.11035 8.99975 2.11035C7.93662 2.11035 6.91703 2.53268 6.16528 3.28442C5.41354 4.03617 4.99121 5.05576 4.99121 6.11889Z" fill="#0057D9"/>
<path d="M1.94482 14.9138C1.94482 15.9134 2.68076 16.8721 3.99074 17.579C5.30072 18.2859 7.07743 18.683 8.93002 18.683C10.7826 18.683 12.5593 18.2859 13.8693 17.579C15.1793 16.8721 15.9152 15.9134 15.9152 14.9138C15.9152 13.9141 15.1793 12.9554 13.8693 12.2485C12.5593 11.5416 10.7826 11.1445 8.93002 11.1445C7.07743 11.1445 5.30072 11.5416 3.99074 12.2485C2.68076 12.9554 1.94482 13.9141 1.94482 14.9138Z" fill="#0057D9"/>
</svg>
