<svg width="287" height="204" viewBox="0 0 287 204" fill="none" xmlns="http://www.w3.org/2000/svg">
<rect x="0.211914" y="0.314209" width="286.555" height="203.233" rx="6" fill="#E6E8EC"/>
<g opacity="0.2">
<rect x="104.791" y="80.4579" width="55.1199" height="72.7244" rx="9" transform="rotate(-20.8763 104.791 80.4579)" fill="#CBD6FF" stroke="#E6E8EC" stroke-width="2"/>
<path fill-rule="evenodd" clip-rule="evenodd" d="M177.603 119.499L178.066 120.713C179.197 123.678 178.448 126.899 176.405 129.062L160.79 135.018L158.102 127.97L162.907 115.617C163.554 113.954 165.501 113.22 167.085 114.042L177.603 119.499Z" fill="#769CFF"/>
<path fill-rule="evenodd" clip-rule="evenodd" d="M126.544 134.685L128.434 139.643C130.009 143.771 134.632 145.841 138.76 144.267L173.443 131.039C174.999 130.445 176.263 129.419 177.149 128.149L142.101 109.966C139.461 108.597 136.217 109.82 135.139 112.591L126.544 134.685Z" fill="#3E68FF"/>
<circle cx="149.442" cy="80.7319" r="4.5" transform="rotate(-20.8763 149.442 80.7319)" fill="#3E68FF"/>
<rect x="115.939" y="68.2498" width="55.1199" height="72.7244" rx="9" fill="#CBD6FF" stroke="#E6E8EC" stroke-width="2"/>
<path fill-rule="evenodd" clip-rule="evenodd" d="M170.059 130.675V131.974C170.059 135.148 168.211 137.89 165.532 139.183H148.819V131.64L157.711 121.811C158.908 120.487 160.989 120.495 162.176 121.827L170.059 130.675Z" fill="#769CFF"/>
<path fill-rule="evenodd" clip-rule="evenodd" d="M116.939 126.668V131.974C116.939 136.392 120.521 139.974 124.939 139.974H162.059C163.725 139.974 165.271 139.465 166.552 138.595L140.284 109.116C138.306 106.896 134.838 106.883 132.843 109.088L116.939 126.668Z" fill="#3E68FF"/>
<circle cx="157.562" cy="84.4172" r="4.5" fill="#3E68FF"/>
</g>
</svg>
