<svg width="44" height="32" viewBox="0 0 44 32" color="#D2D3F6" xmlns="http://www.w3.org/2000/svg">
<path d="M36.005 0.00059911V0.00428696H41.8694C43.0033 0.00428696 43.6894 1.2811 43.4447 2.88439L43.4207 3.02669L43.3722 3.28595C43.0687 4.90419 41.9303 6.22489 40.7985 6.30346L40.6925 6.30715H37.0365C35.8166 6.30715 34.563 7.72138 34.236 9.46541C33.918 11.1606 34.5935 12.5442 35.7523 12.6198L35.8528 12.6231H38.6516C39.8187 12.6231 40.5115 13.9755 40.1985 15.6445C39.895 17.2627 38.7567 18.584 37.6249 18.6626L37.5188 18.6663H34.7201C33.5372 18.6663 32.3225 19.9955 31.9518 21.6663L31.9195 21.8239L30.9377 27.0604C30.4315 29.7603 28.4902 31.9492 26.6012 31.9492C25.4282 31.9492 24.5005 31.0895 24.1391 29.6802L24.1025 29.5272L19.8201 12.2409C19.7622 12.0065 19.5044 12.0876 19.4255 12.3392L19.4114 12.3957L16.466 28.0988C16.0937 30.0979 14.7181 31.7366 13.3192 31.9261L13.1993 31.9389L13.2085 31.9492H3.74437C3.33716 31.9469 2.93564 31.8537 2.56925 31.6763C1.83912 31.3952 1.20723 30.9072 0.751347 30.2723C0.29546 29.6375 0.0354627 28.8834 0.00334592 28.1029L0 27.9434V3.95564C0 1.05889 1.60753 0.0697522 3.61705 0.0306136L3.74312 0.0293659H10.5612C10.6729 0.0320981 10.7844 0.0406355 10.8952 0.0549431L11.0607 0.0807695C12.7414 0.297458 14.281 1.13107 15.3794 2.41912L13.4556 12.1025C12.6382 3.8816 9.96408 5.22483 6.11297 5.22483H5.4447C5.03671 5.22483 4.70205 5.67076 4.66614 6.23994L4.66294 6.3416V25.7807C4.66302 25.9964 4.74345 26.2043 4.88859 26.364C5.03373 26.5237 5.23319 26.6239 5.4482 26.6449L5.53431 26.6491H8.4102C9.01353 26.6434 9.60817 26.5049 10.1518 26.2435C10.6954 25.9822 11.1745 25.6044 11.5551 25.1371L11.6575 25.006L15.427 4.89193C15.9222 2.2489 16.6108 0.0955774 18.4097 0.00309065L18.5313 0H19.7659C20.9408 0 21.8685 0.860851 22.2299 2.27189L22.2665 2.42515L27.2614 21.7768C27.3213 22.0075 27.5773 21.9259 27.6556 21.6752L27.6694 21.6189L30.5393 6.30675H25.5057C24.3398 6.30675 23.1389 4.95435 22.826 3.28535L22.7775 3.02609C22.4688 1.35669 23.1616 0.00368976 24.3288 0.00368976H32.034V0L36.005 0.00059911Z" fill="currentColor"/>
</svg>
