<svg color="#AFB5D3" viewBox="0 0 1024 1024" version="1.1" xmlns="http://www.w3.org/2000/svg" width="200" height="200">
    <path d="M934.3 197.3l-2.1-2.1c-8.7-8.7-22.7-8.7-31.4 0l-99.9 99.9L708 388c-8.7 8.7-22.7 8.7-31.4 0l-2.1-2.1c-4.2-4.2-6.5-9.8-6.5-15.7 0-5.9 2.3-11.5 6.5-15.7l99.4-99.4C705.7 166.7 600.4 115 488.8 115c-199 0-360.3 161.4-360.3 360.4 0 36.4 5.5 72.6 16.3 107.4l-87.4 87.4c-8.7 8.7-8.7 22.7 0 31.4l2.1 2.1c8.7 8.7 22.7 8.7 31.4 0l37.3-37.3 0.2-0.2 166.5-166.5c4.2-4.2 9.8-6.5 15.7-6.5 5.9 0 11.5 2.3 15.7 6.5l2.1 2.1c8.7 8.7 8.7 22.7 0 31.4L187.9 673.7c37.7 57.2 90.9 102.5 153.3 130.6h295.2c125.4-56.4 212.8-182.4 212.8-328.8 0-46.4-8.9-92.3-26.3-135.2l111.4-111.4c4.2-4.2 6.5-9.8 6.5-15.8s-2.3-11.6-6.5-15.8z m-254.4 75.3c6.6 0 12.5 4 15 10 2.5 6.1 1.1 13.1-3.5 17.7-4.6 4.7-11.6 6-17.7 3.5s-10-8.4-10-15c-0.1-9 7.2-16.2 16.2-16.2z m-180.1-57L505 205l5.2 10.6 11.7 1.7-8.4 8.3 2 11.7-10.5-5.5-10.4 5.5 2-11.7-8.5-8.3 11.7-1.7z m12.7 144.8l10.9-22.1 10.9 22.1 24.4 3.5-17.6 17.2 4.2 24.3-21.9-11.4-21.8 11.5 4.2-24.3-17.7-17.2 24.4-3.6zM393.3 174c16.8 0 31.9 10.1 38.4 25.6 6.4 15.5 2.9 33.4-9 45.2-11.9 11.9-29.7 15.4-45.2 9-15.5-6.4-25.6-21.6-25.6-38.3-0.1-22.9 18.5-41.5 41.4-41.5z m-81.2 209.4v28.9c0 7.7-6.2 14-14 14s-14-6.2-14-14v-28.9h-28.9c-7.7 0-14-6.2-14-14 0-7.7 6.2-14 14-14h28.9v-28.9c0-7.7 6.3-14 14-14s14 6.2 14 14v28.9H341c7.7 0 14 6.2 14 14 0 7.7-6.2 14-14 14h-28.9z m275.7 420.8l-1.3-1.8c33.6-23 57.9-57.1 68.9-96.2l-49-49.2c-3.8-3.7-8.8-5.9-14.1-5.9-5.3 0-10.4 2.1-14.1 5.9l-121 121-78.8-78.8c-2.8-2.9-6.7-4.5-10.8-4.5-4 0-7.9 1.6-10.8 4.5l-27.5 27.5c12.9 30.6 34.4 56.8 61.8 75.6l-1.3 1.8c-47.7-32.7-76.3-86.8-76.3-144.7 0-96.7 78.7-175.3 175.3-175.3s175.3 78.7 175.3 175.3c0.1 57.9-28.5 112.1-76.3 144.8z m161.1-319.7h-21.5V506c0 5.7-4.7 10.4-10.4 10.4s-10.4-4.7-10.4-10.4v-21.5h-21.5c-5.7 0-10.4-4.7-10.4-10.4s4.7-10.4 10.4-10.4h21.5v-21.5c0-5.7 4.7-10.4 10.4-10.4s10.4 4.7 10.4 10.4v21.5h21.5c5.7 0 10.4 4.7 10.4 10.4 0 5.8-4.7 10.4-10.4 10.4z m0 0"
          fill="currentColor"></path>
    <path d="M650.5 806.8c0 0.9-0.4 1.8-1 2.5-0.7 0.7-1.6 1-2.5 1H91.6c-0.9 0-1.8-0.4-2.5-1-0.7-0.7-1-1.6-1-2.5 0-0.9 0.4-1.8 1-2.5 0.7-0.7 1.6-1 2.5-1H647c0.9 0 1.8 0.4 2.5 1 0.7 0.7 1 1.6 1 2.5z m162.8 0c0 2-0.4 3.5-0.8 3.5h-131c-0.5 0-0.8-1.6-0.8-3.5 0-2 0.4-3.6 0.8-3.6h131c0.5 0 0.8 1.6 0.8 3.6z m-140.1 0c0 1.2 0 2.4-0.1 3.5h-18c-0.2-2.4-0.2-4.7 0-7.1h18c0.1 1.2 0.1 2.4 0.1 3.6z m37.9 48.1c0 2-0.4 3.5-0.8 3.5h-131c-0.5 0-0.8-1.6-0.8-3.5 0-2 0.4-3.6 0.8-3.6h131c0.4 0 0.8 1.6 0.8 3.6z m-140.2 0c0 1.2 0 2.4-0.1 3.5h-18c-0.2-2.4-0.2-4.7 0-7.1h18c0.1 1.2 0.1 2.4 0.1 3.6z m61-13.7c0 0.9-0.4 1.8-1 2.5-0.7 0.7-1.6 1-2.5 1H72.9c-0.9 0-1.8-0.4-2.5-1-0.7-0.7-1-1.6-1-2.5 0-1 0.4-1.9 1-2.5 0.7-0.7 1.6-1.1 2.5-1.1h555.4c0.9 0 1.8 0.4 2.5 1 0.7 0.7 1.1 1.6 1.1 2.6z m22.6 0c0 1.2 0 2.4-0.1 3.5h-18c-0.2-2.4-0.2-4.7 0-7.1h18c0.1 1.2 0.2 2.4 0.1 3.6zM825.5 53H783V10.4c-0.3-5.2-4.6-9.3-9.7-9.3-5.2 0-9.5 4.1-9.8 9.3V53h-42.6c-3.6-0.2-7 1.6-8.9 4.7-1.9 3.1-1.9 7 0 10.1 1.9 3.1 5.3 4.9 8.9 4.7h42.6V115c0.3 5.2 4.6 9.3 9.8 9.3 5.2 0 9.5-4.1 9.7-9.3V72.5h42.6c3.6 0.2 7-1.6 8.9-4.7 1.9-3.1 1.9-7 0-10.1-1.9-3.1-5.3-4.9-9-4.7zM167.1 238.5h-18.9v-18.9c0-2.4-1.9-4.3-4.3-4.3s-4.3 1.9-4.3 4.3v18.9h-18.9c-1.1 0-2.2 0.5-3.1 1.3-0.8 0.8-1.3 1.9-1.3 3.1 0 1.1 0.5 2.2 1.3 3.1 0.8 0.8 1.9 1.3 3.1 1.3h18.9V266c0 2.4 1.9 4.3 4.3 4.3s4.3-1.9 4.3-4.3v-18.9h18.9c1.1 0 2.2-0.5 3-1.3 0.8-0.8 1.3-1.9 1.3-3.1 0-1.1-0.5-2.2-1.3-3.1-0.8-0.6-1.9-1.1-3-1.1z m758.3 362l15.3 30.9 34.1 5-24.7 24.1 5.8 34-30.5-16-30.5 16 5.8-34-24.7-24.1 34.1-5 15.3-30.9zM348 34.8l6.5 13.3 14.6 2.1-10.6 10.3 2.5 14.6-13-6.9-13 6.9 2.5-14.6-10.6-10.3 14.6-2.1 6.5-13.3z m207.9 554.5c-29.6 0-52.7-8.3-52.7-18.8 0-0.5 0.4-0.9 0.9-0.9s0.9 0.4 0.9 0.9c0 9.2 23.3 16.9 50.8 16.9 27.6 0 50.8-7.8 50.8-16.9 0.1-0.5 0.5-0.8 0.9-0.8 0.5 0 0.9 0.4 0.9 0.8 0.3 10.5-22.9 18.8-52.5 18.8z m0 0"
          fill="currentColor"></path>
    <path d="M584.2 596.1c-0.5 0-0.9-0.4-0.9-0.9v-9.7c0-0.5 0.4-0.9 0.9-0.9s0.9 0.4 0.9 0.9v9.7c0 0.5-0.4 0.9-0.9 0.9z m-27.2 2.8c-0.5 0-0.9-0.4-0.9-0.9v-9.7c0-0.5 0.4-0.9 0.9-0.9s0.9 0.4 0.9 0.9v9.7c0 0.5-0.4 0.9-0.9 0.9z m-27.2-2.8c-0.5 0-0.9-0.4-0.9-0.9v-9.7c0.1-0.5 0.5-0.8 0.9-0.8 0.5 0 0.9 0.4 0.9 0.8v9.7c0 0.5-0.4 0.9-0.9 0.9z m87.3 3.9l-13.7-4.2 4.2 13.7s0.9 4.8 2.8 6.6c2.4 2.4 5.9 3.3 9.1 2.4 3.3-0.9 5.8-3.4 6.7-6.7 0.9-3.3-0.1-6.8-2.5-9.1-1.8-1.7-6.6-2.7-6.6-2.7z m-181.4-10.7c-29.6 0-52.7-8.3-52.7-18.8 0-0.5 0.4-0.9 0.9-0.9s0.9 0.4 0.9 0.9c0 9.2 23.3 16.9 50.8 16.9s50.8-7.8 50.8-16.9c0.1-0.5 0.5-0.8 0.9-0.8 0.5 0 0.9 0.4 0.9 0.8 0.2 10.5-23 18.8-52.5 18.8z m0 0"
          fill="currentColor"></path>
</svg>