<?xml version="1.0" standalone="no"?><!DOCTYPE svg PUBLIC "-//W3C//DTD SVG 1.1//EN" "http://www.w3.org/Graphics/SVG/1.1/DTD/svg11.dtd"><svg t="1646572219436" class="icon" viewBox="0 0 1024 1024" version="1.1" xmlns="http://www.w3.org/2000/svg" p-id="2038" xmlns:xlink="http://www.w3.org/1999/xlink" width="200" height="200"><defs><style type="text/css"></style></defs><path d="M721.066667 725.333333c-59.733333 55.466667-132.266667 85.333333-209.066667 85.333334-157.866667 0-290.133333-123.733333-298.666667-281.6l12.8 12.8c8.533333 8.533333 17.066667 12.8 29.866667 12.8s21.333333-4.266667 29.866667-12.8c17.066667-17.066667 17.066667-42.666667 0-59.733334l-85.333334-85.333333c-17.066667-17.066667-42.666667-17.066667-59.733333 0l-85.333333 85.333333c-17.066667 17.066667-17.066667 42.666667 0 59.733334s42.666667 17.066667 59.733333 0l12.8-12.8c8.533333 204.8 179.2 366.933333 384 366.933333 98.133333 0 192-38.4 268.8-110.933333 17.066667-17.066667 17.066667-42.666667 0-59.733334-12.8-17.066667-42.666667-17.066667-59.733333 0zM968.533333 482.133333c-17.066667-17.066667-42.666667-17.066667-59.733333 0l-12.8 12.8C887.466667 290.133333 716.8 128 512 128c-98.133333 0-192 38.4-268.8 110.933333-17.066667 17.066667-17.066667 42.666667 0 59.733334 17.066667 17.066667 42.666667 17.066667 59.733333 0 59.733333-55.466667 132.266667-85.333333 209.066667-85.333334 157.866667 0 290.133333 123.733333 298.666667 281.6l-12.8-12.8c-17.066667-17.066667-42.666667-17.066667-59.733334 0s-17.066667 42.666667 0 59.733334l85.333334 85.333333c8.533333 8.533333 21.333333 12.8 29.866666 12.8s21.333333-4.266667 29.866667-12.8l85.333333-85.333333c17.066667-17.066667 17.066667-42.666667 0-59.733334z" fill="#fff" p-id="2039"></path></svg>