<svg width="1669" height="385" viewBox="0 0 1669 385" fill="none" xmlns="http://www.w3.org/2000/svg">
<g clip-path="url(#clip0)">
<g style="mix-blend-mode:luminosity" opacity="0.1">
<path d="M580.799 327.513C655.129 301.542 809.817 247.156 833.924 237.383C864.058 225.168 882.138 261.484 950.944 229.13" stroke="black" stroke-width="0.983506"/>
<path d="M0 110.608C12.8906 98.3926 62.8966 86.4414 100.664 136.359C147.874 198.757 164.95 127.445 236.769 178.288C308.588 229.13 284.481 79.2443 389.448 164.422C494.414 249.599 483.867 199.747 551.167 241.345C585.82 253.561 635.039 185.221 694.805 233.752C738.646 269.352 783.585 257.523 805.074 244.792L810.318 241.345C808.775 242.479 807.021 243.639 805.074 244.792L687.774 321.9C495.084 332.025 75.9375 347.388 0 327.843V110.608Z" fill="url(#paint0_linear)"/>
<path d="M146.873 216.254C93.4352 179.278 33.5357 207.45 10.2656 226.159V329.494L550.165 360.527L1068.97 282.283L1029.8 178.288C992.631 223.848 953.457 201.068 925.834 216.254C849.495 251.91 846.984 209.981 812.33 232.101C740.511 273.699 754.573 240.355 697.821 258.843C507.977 311.336 532.587 239.694 440.176 258.843C347.765 277.991 360.321 232.101 327.174 244.316C294.027 256.532 213.67 262.474 146.873 216.254Z" fill="url(#paint1_linear)"/>
<path d="M77.5627 233.458C96.8484 221.837 93.8016 204.038 89.1141 198.426C48.4333 199.416 13.058 216.246 0 226.187V300.8C5.52455 299.92 34.3708 294.204 62.4958 277.037C97.652 255.578 53.4556 247.984 77.5627 233.458Z" fill="url(#paint2_linear)"/>
<path d="M826.391 239.695C807.909 249.467 654.628 300.551 580.298 324.872L1669.14 319.59V174.326C1628.96 163.762 1630.97 182.91 1598.32 184.891C1565.68 186.872 1489.84 110.608 1439.11 116.551C1373.32 130.087 1367.3 121.173 1344.19 116.551C1321.09 111.929 1260.82 160.79 1189.51 195.786C1101.61 217.245 1075 173.006 1050.39 174.326C1025.78 175.647 961.492 229.791 927.842 239.695C894.193 249.599 849.494 227.479 826.391 239.695Z" fill="url(#paint3_linear)"/>
<path d="M449.213 294.498C389.347 309.024 335.542 290.646 316.122 279.642L311.1 307.374C350.776 322.78 436.858 353.858 463.778 354.915C490.698 355.971 544.637 333.565 568.242 322.23C499.939 319.919 457.751 294.498 449.213 294.498Z" fill="url(#paint4_linear)"/>
<path d="M452.729 306.053C448.309 302.092 449.213 296.699 450.218 294.498C388.745 307.968 336.546 290.867 318.131 280.632C340.229 300.771 434.649 329.692 440.675 326.522C448.209 322.561 442.182 320.58 442.684 317.278C443.187 313.977 458.254 311.006 452.729 306.053Z" fill="url(#paint5_linear)"/>
<path d="M1147.94 263.24C1118.03 263.24 1108.58 269.778 1107.59 273.047L1670 287.758L1668.52 218.454C1660.49 218.672 1642.44 222.116 1634.57 234.146C1624.73 249.183 1610.95 248.203 1605.05 249.51C1595.21 257.356 1585.86 258.664 1576.51 253.76C1557.32 242.318 1557.81 252.125 1551.91 249.51C1549.45 245.261 1534.69 242.972 1537.64 248.203C1540.59 253.433 1541.08 257.029 1528.29 258.664C1507.62 263.567 1506.64 255.721 1495.32 258.664C1484.01 261.606 1485.97 252.125 1479.58 253.76C1460.88 257.029 1459.9 258.01 1436.77 236.761C1413.64 215.512 1405.28 212.57 1394.95 227.608C1384.61 242.645 1383.14 237.415 1372.31 232.511C1361.49 227.608 1359.52 250.164 1349.68 242.972C1326.55 224.339 1319.66 226.3 1313.76 228.915C1307.86 231.531 1311.79 248.203 1302.44 248.203C1283.75 244.28 1296.05 253.433 1287.68 252.125C1249.79 242.645 1249.79 257.029 1239.95 252.125C1214.86 238.722 1207.97 258.01 1196.16 255.721C1159.26 248.203 1185.34 263.24 1147.94 263.24Z" fill="url(#paint6_linear)"/>
<path d="M1332.64 32.3637C1309.34 31.3072 1287.44 42.9283 1279.4 48.8709L1597.82 43.5886C1583.42 40.9474 1552.62 35.0048 1544.58 32.3637C1534.54 29.0622 1510.93 9.58373 1475.27 21.7991C1439.62 34.0144 1424.05 -7.58377 1411.49 5.622C1385.88 27.0814 1393.41 19.1579 1372.32 18.4976C1351.22 17.8373 1361.77 33.6842 1332.64 32.3637Z" fill="url(#paint7_linear)"/>
<path d="M59.9846 287.101C38.69 251.445 8.87276 260.139 0 268.943V341.245C104.129 340.694 307.987 338.736 299.549 335.302C289.002 331.01 259.873 332.991 248.322 329.359C236.77 325.728 246.313 324.737 227.73 318.795C209.147 312.852 215.174 305.589 208.645 298.656C181.525 279.508 208.645 320.445 190.063 311.862C171.48 303.278 180.018 323.087 162.942 311.862C145.866 300.637 147.373 311.532 137.328 305.589C127.284 299.646 134.315 273.895 116.235 276.206C98.1542 278.517 106.19 297.335 82.0828 296.015C57.9757 294.694 70.0292 297.005 59.9846 287.101Z" fill="url(#paint8_linear)"/>
<path d="M1020.66 279.56C644.867 339.167 184.596 335.966 0 326.915V516H1670V279.56C1571.78 262.782 1304.41 239.293 1020.66 279.56Z" fill="url(#paint9_linear)"/>
<path d="M175.607 294.168C150.697 281.491 126.723 250.589 117.851 236.723C123.877 242.336 154.514 263.135 203.732 280.302C252.951 297.47 206.746 310.015 175.607 294.168Z" fill="url(#paint10_linear)"/>
<path d="M98.2633 249.269C90.6294 243.458 98.7656 235.403 103.788 232.101C96.7566 242.996 109.312 248.278 114.335 255.871C117.348 279.642 98.2633 283.604 103.788 275.68C109.312 267.757 107.806 256.532 98.2633 249.269Z" fill="url(#paint11_linear)"/>
<path d="M1348.71 149.565C1356.35 131.341 1345.53 119.742 1339.17 116.221C1347.71 116.881 1369.4 124.372 1390.4 123.814C1411.97 123.24 1437.61 114.57 1452.17 116.881C1409.98 119.852 1411.99 157.159 1390.9 192.484C1369.81 227.809 1363.78 197.436 1363.78 182.25C1363.78 167.063 1339.17 172.345 1348.71 149.565Z" fill="url(#paint12_linear)"/>
<path d="M1433.09 180.269C1429.47 170.497 1438.95 160.35 1444.14 156.499C1449.75 151.216 1452.67 155.508 1452.67 158.149C1434.59 171.025 1442.13 180.269 1439.11 183.571C1421.54 197.767 1423.55 204.039 1422.04 202.389C1412.5 191.164 1430.07 184.231 1433.09 180.269Z" fill="url(#paint13_linear)"/>
<path d="M1495.86 194.464C1476.18 181.259 1471.59 164.311 1471.76 157.488C1477.11 165.522 1490.94 183.174 1503.4 189.512C1518.97 197.436 1534.54 216.584 1530.52 216.584C1508.92 214.273 1504.4 202.058 1495.86 194.464Z" fill="url(#paint14_linear)"/>
<path d="M1480.8 151.546C1489.84 154.737 1512.34 164.488 1530.02 177.957C1531.36 170.474 1523.39 154.715 1480.8 151.546Z" fill="url(#paint15_linear)"/>
<path d="M1054.4 214.003C1066.45 187.856 1049.88 178.727 1039.83 176.966C1043.69 175.426 1053.6 172.339 1064.44 176.037C1117.48 202.448 1155.85 202.498 1168.41 199.746C1105.63 233.421 1064.95 248.668 1067.96 244.707C1070.97 240.745 1073.48 235.793 1072.48 225.558C1071.48 215.324 1054.4 224.898 1054.4 214.003Z" fill="url(#paint16_linear)"/>
<path d="M13.2474 370.895H7.52735L0.000976562 403.944H43.3529C47.9289 403.944 81.3861 405 97.5427 405.527C116.81 405 159.62 404.538 176.72 406.913C198.095 409.881 192.977 406.913 214.954 406.913H255.295H285.1H307.679C312.195 406.913 319.119 406.913 337.483 408.496C355.848 410.079 363.675 408.496 365.783 408.496C367.89 408.496 379.932 406.913 383.244 406.913C386.555 406.913 386.254 408.496 389.867 408.496C392.757 408.496 412.346 407.44 421.779 406.913L425.391 403.944C422.281 403.548 414.373 401.846 407.629 398.205C403.715 395.83 403.414 397.018 398.296 396.028C393.179 395.039 394.082 396.028 386.254 393.06C382.341 390.487 379.631 391.674 377.825 389.893C376.38 388.468 374.212 389.299 373.309 389.893H365.783C364.277 389.431 359.4 387.716 351.934 384.55C347.719 383.165 347.719 383.956 341.698 381.186C340.012 379.602 338.186 378.811 337.483 378.613C336.38 378.679 333.871 378.771 332.667 378.613C331.161 378.415 324.839 378.019 323.635 377.426C322.431 376.832 321.527 376.238 320.925 374.853C320.323 373.468 315.205 374.259 310.69 374.853C306.174 375.447 299.852 372.478 299.852 372.082C299.852 371.686 296.841 371.489 295.336 370.499C293.83 369.51 287.207 370.499 281.487 370.499C275.767 370.499 271.552 372.874 270.95 372.874C270.348 372.874 267.037 372.478 264.628 371.489C262.701 370.697 259.41 370.763 258.005 370.895C257.102 371.093 254.754 371.686 252.586 372.478C249.876 373.468 244.156 372.082 242.049 371.489C239.942 370.895 236.028 371.489 233.017 371.489C230.609 371.489 227.799 371.884 226.695 372.082C226.193 371.884 225.13 371.37 224.889 370.895C224.588 370.301 220.975 370.895 214.954 371.489C208.933 372.082 211.04 371.489 210.438 370.895C209.836 370.301 204.417 370.103 203.815 370.103C203.213 370.103 200.805 370.895 198.396 371.489C195.988 372.082 194.181 370.895 192.977 370.103C191.773 369.312 188.762 369.707 188.16 369.707C187.558 369.707 182.741 370.895 180.634 371.489C178.526 372.082 177.623 371.489 176.72 370.103C175.817 368.718 173.409 370.895 172.204 370.895C171 370.895 167.086 372.082 165.581 371.489C164.076 370.895 164.979 370.895 164.377 369.707C163.775 368.52 158.958 370.103 157.453 370.895C156.248 371.528 150.127 371.159 147.217 370.895L143.303 370.103C142.099 370.367 139.57 370.895 139.088 370.895C138.486 370.895 137.282 370.499 136.078 370.103C135.114 369.787 134.071 369.312 133.669 369.114C132.867 369.444 131.02 370.262 130.057 370.895C128.852 371.686 125.842 370.895 120.724 370.895C117.412 372.676 116.81 370.895 115.004 368.52C114.402 367.333 112.595 369.114 111.391 369.707C110.187 370.301 107.176 370.895 106.273 370.103C105.37 369.312 103.263 369.707 102.059 369.114C100.854 368.52 100.854 369.114 100.252 369.114C99.7705 369.114 96.0375 369.773 94.2311 370.103C93.0269 370.367 90.4378 370.737 89.7153 370.103C88.9928 369.47 87.4072 369.576 86.7048 369.707H81.5868C80.0816 369.707 75.2647 370.103 74.3615 370.103C73.4584 370.103 69.5446 370.103 67.7383 369.707C65.932 369.312 65.932 369.707 60.2119 370.895C54.4919 372.082 56.5993 370.895 55.3951 370.103C54.4317 369.47 54.1908 369.839 54.1908 370.103C53.1873 370.103 50.819 370.262 49.374 370.895C47.5676 371.686 43.3529 370.895 41.5465 370.103C39.7402 369.312 39.4392 370.103 34.3212 370.103C29.2033 370.103 29.8054 370.895 28.9022 370.895C27.9991 370.895 26.4938 370.895 21.3759 370.103C20.4125 370.42 15.5555 370.763 13.2474 370.895Z" fill="#FAAC68"/>
</g>
<circle cx="440" cy="175" r="34" transform="rotate(67.2659 440 175)" fill="#E4E6E9"/>
<circle cx="440.922" cy="174.613" r="33" transform="rotate(67.2659 440.922 174.613)" fill="#EEF0F3"/>
<circle cx="440.922" cy="174.613" r="21" transform="rotate(67.2659 440.922 174.613)" fill="white"/>
<path d="M434.099 172.572C433.969 172.626 433.892 172.658 433.819 172.477L432.981 170.413L430.855 171.278L432.401 175.085L429.311 176.342L430.137 178.374L433.227 177.117L433.738 178.38L430.652 179.635L431.436 181.569L434.528 180.315L435.115 181.77C435.51 182.738 437.738 185.871 440.941 184.56C441.824 184.245 442.574 183.64 443.069 182.845C443.565 182.05 443.777 181.11 443.671 180.179C443.671 180.179 445.654 181.666 447.603 180.654C449.552 179.643 449.476 177.826 449.407 176.791C449.322 175.999 449.147 175.219 448.884 174.467L452.115 173.154L451.35 171.301L448.14 172.611L447.532 171.118L450.764 169.815L449.985 167.943L446.758 169.254L445.158 165.317L443.254 166.085L444.131 168.243C444.219 168.46 444.11 168.505 444.038 168.534L434.099 172.572ZM445.613 171.891L446.544 174.187C446.703 174.581 447.153 176.629 445.521 177.28C445.079 177.471 444.583 177.497 444.123 177.354C443.663 177.21 443.27 176.907 443.014 176.498C442.899 176.34 442.801 176.17 442.721 175.991L441.695 173.46L445.613 171.891ZM439.69 174.33L441.137 177.921C441.237 178.183 441.284 178.462 441.273 178.742C441.262 179.022 441.194 179.297 441.073 179.55C440.952 179.803 440.781 180.028 440.57 180.213C440.359 180.398 440.113 180.537 439.846 180.623C438.553 181.151 437.527 180.251 437.138 179.719C437.079 179.642 437.029 179.558 436.991 179.468L435.581 176.009L439.69 174.33Z" fill="#EEF0F3"/>
<circle cx="281.498" cy="131.498" r="34" transform="rotate(-150.936 281.498 131.498)" fill="#E4E6E9"/>
<circle cx="281.012" cy="132.372" r="33" transform="rotate(-150.936 281.012 132.372)" fill="#EEF0F3"/>
<circle cx="281.012" cy="132.372" r="21" transform="rotate(-150.936 281.012 132.372)" fill="white"/>
<path d="M287.636 129.757C287.705 129.634 287.745 129.562 287.915 129.658L289.85 130.763L290.986 128.768L287.417 126.732L289.067 123.833L287.162 122.747L285.511 125.646L284.328 124.969L285.977 122.075L284.165 121.04L282.51 123.938L281.149 123.157C280.241 122.641 276.552 121.557 274.846 124.568C274.347 125.361 274.131 126.3 274.234 127.231C274.336 128.163 274.751 129.032 275.41 129.698C275.41 129.698 272.932 129.756 272.026 131.757C271.12 133.757 272.303 135.137 272.997 135.908C273.554 136.478 274.174 136.983 274.845 137.411L273.118 140.442L274.866 141.424L276.578 138.41L277.979 139.207L276.245 142.23L278.015 143.219L279.74 140.193L283.433 142.298L284.454 140.517L282.43 139.363C282.226 139.246 282.284 139.145 282.323 139.077L287.636 129.757ZM279.009 137.413L276.858 136.184C276.489 135.973 274.869 134.642 275.749 133.121C275.978 132.698 276.352 132.37 276.802 132.199C277.252 132.027 277.749 132.022 278.202 132.185C278.391 132.239 278.573 132.311 278.747 132.402L281.118 133.757L279.009 137.413ZM282.156 131.833L278.797 129.906C278.557 129.762 278.348 129.571 278.183 129.345C278.018 129.118 277.902 128.86 277.84 128.586C277.779 128.313 277.774 128.03 277.825 127.754C277.877 127.479 277.984 127.217 278.141 126.984C278.831 125.77 280.194 125.842 280.828 126.02C280.922 126.044 281.013 126.079 281.099 126.126L284.346 127.973L282.156 131.833Z" fill="#EEF0F3"/>
<circle cx="386.235" cy="288.236" r="34" transform="rotate(-112.385 386.235 288.236)" fill="#E4E6E9"/>
<circle cx="385.31" cy="288.617" r="33" transform="rotate(-112.385 385.31 288.617)" fill="#EEF0F3"/>
<circle cx="385.31" cy="288.617" r="21" transform="rotate(-112.385 385.31 288.617)" fill="white"/>
<path d="M392.12 290.7C392.251 290.646 392.328 290.615 392.4 290.796L393.225 292.866L395.357 292.013L393.834 288.197L396.932 286.959L396.118 284.922L393.021 286.161L392.517 284.894L395.61 283.658L394.839 281.719L391.739 282.954L391.161 281.495C390.772 280.526 388.563 277.379 385.352 278.671C384.467 278.98 383.714 279.58 383.213 280.372C382.713 281.164 382.495 282.103 382.595 283.034C382.595 283.034 380.622 281.535 378.666 282.535C376.711 283.535 376.776 285.352 376.839 286.387C376.919 287.18 377.089 287.961 377.347 288.714L374.108 290.008L374.862 291.866L378.08 290.575L378.679 292.072L375.439 293.355L376.207 295.232L379.442 293.941L381.018 297.887L382.927 297.131L382.063 294.967C381.976 294.75 382.085 294.706 382.157 294.677L392.12 290.7ZM380.602 291.311L379.686 289.009C379.53 288.614 379.092 286.563 380.727 285.922C381.171 285.734 381.667 285.711 382.126 285.857C382.585 286.003 382.976 286.309 383.229 286.719C383.344 286.879 383.441 287.049 383.52 287.228L384.531 289.766L380.602 291.311ZM386.541 288.907L385.116 285.308C385.017 285.045 384.972 284.766 384.985 284.486C384.997 284.206 385.067 283.932 385.189 283.679C385.312 283.427 385.484 283.203 385.696 283.019C385.908 282.836 386.155 282.698 386.422 282.613C387.719 282.094 388.74 283 389.125 283.535C389.184 283.612 389.233 283.696 389.271 283.786L390.66 287.254L386.541 288.907Z" fill="#EEF0F3"/>
</g>
<defs>
<linearGradient id="paint0_linear" x1="405.159" y1="99.8848" x2="405.159" y2="337.258" gradientUnits="userSpaceOnUse">
<stop stop-color="#F1FBFC"/>
<stop offset="1" stop-color="#C1F2F9"/>
</linearGradient>
<linearGradient id="paint1_linear" x1="539.618" y1="178.288" x2="539.618" y2="329.494" gradientUnits="userSpaceOnUse">
<stop stop-color="#86BBA6"/>
<stop offset="1" stop-color="#80B5A4"/>
</linearGradient>
<linearGradient id="paint2_linear" x1="92.0617" y1="198.426" x2="35.1823" y2="314.847" gradientUnits="userSpaceOnUse">
<stop stop-color="#4F8E74"/>
<stop offset="0.9999" stop-color="#85BAA8"/>
</linearGradient>
<linearGradient id="paint3_linear" x1="1403.46" y1="47.2207" x2="1408.01" y2="336.522" gradientUnits="userSpaceOnUse">
<stop stop-color="#C9F2F4"/>
<stop offset="1" stop-color="#6CAFA4"/>
</linearGradient>
<linearGradient id="paint4_linear" x1="439.671" y1="279.642" x2="324.559" y2="334.365" gradientUnits="userSpaceOnUse">
<stop stop-color="#9EDAC2"/>
<stop offset="1" stop-color="#8AC8B4" stop-opacity="0.1"/>
</linearGradient>
<linearGradient id="paint5_linear" x1="453.115" y1="280.632" x2="443.573" y2="344.181" gradientUnits="userSpaceOnUse">
<stop stop-color="#4F8E74"/>
<stop offset="0.9999" stop-color="#85BAA8"/>
</linearGradient>
<linearGradient id="paint6_linear" x1="1388.8" y1="218.199" x2="1388.8" y2="287.758" gradientUnits="userSpaceOnUse">
<stop stop-color="#326386"/>
<stop offset="1" stop-color="#0F4166"/>
</linearGradient>
<linearGradient id="paint7_linear" x1="1438.61" y1="3" x2="1438.61" y2="48.8709" gradientUnits="userSpaceOnUse">
<stop stop-color="#F1FBFC"/>
<stop offset="1" stop-color="#C1F2F9"/>
</linearGradient>
<linearGradient id="paint8_linear" x1="149.902" y1="261.153" x2="149.902" y2="341.245" gradientUnits="userSpaceOnUse">
<stop stop-color="#326386"/>
<stop offset="1" stop-color="#0F4166"/>
</linearGradient>
<linearGradient id="paint9_linear" x1="833.565" y1="257.327" x2="833.565" y2="516" gradientUnits="userSpaceOnUse">
<stop stop-color="#97E3C9"/>
<stop offset="1" stop-color="#71AF93"/>
</linearGradient>
<linearGradient id="paint10_linear" x1="224.636" y1="236.723" x2="201.97" y2="321.85" gradientUnits="userSpaceOnUse">
<stop stop-color="#4F8E74"/>
<stop offset="0.9999" stop-color="#85BAA8"/>
</linearGradient>
<linearGradient id="paint11_linear" x1="114.54" y1="232.101" x2="81.3123" y2="263.13" gradientUnits="userSpaceOnUse">
<stop stop-color="#4F8E74"/>
<stop offset="0.9999" stop-color="#85BAA8"/>
</linearGradient>
<linearGradient id="paint12_linear" x1="1451.48" y1="116.221" x2="1409.64" y2="231.618" gradientUnits="userSpaceOnUse">
<stop stop-color="#4F8E74"/>
<stop offset="0.9999" stop-color="#85BAA8"/>
</linearGradient>
<linearGradient id="paint13_linear" x1="1452.47" y1="153.989" x2="1421.29" y2="202.477" gradientUnits="userSpaceOnUse">
<stop stop-color="#4F8E74"/>
<stop offset="0.9999" stop-color="#85BAA8"/>
</linearGradient>
<linearGradient id="paint14_linear" x1="1530.8" y1="157.488" x2="1500.12" y2="227.245" gradientUnits="userSpaceOnUse">
<stop stop-color="#4F8E74"/>
<stop offset="0.9999" stop-color="#85BAA8"/>
</linearGradient>
<linearGradient id="paint15_linear" x1="1529.85" y1="151.546" x2="1521.52" y2="186.779" gradientUnits="userSpaceOnUse">
<stop stop-color="#4F8E74"/>
<stop offset="0.9999" stop-color="#85BAA8"/>
</linearGradient>
<linearGradient id="paint16_linear" x1="1167.62" y1="174.29" x2="1144.56" y2="268.716" gradientUnits="userSpaceOnUse">
<stop stop-color="#4F8E74"/>
<stop offset="0.9999" stop-color="#85BAA8"/>
</linearGradient>
<clipPath id="clip0">
<rect width="1669" height="385" fill="white"/>
</clipPath>
</defs>
</svg>
