<svg width="18" height="18" viewBox="0 0 18 18" fill="none" xmlns="http://www.w3.org/2000/svg">
<path d="M13.8383 1.49571H4.84191C3.64041 1.49571 2.66211 2.47311 2.66211 3.67551V14.2406C2.66211 15.4421 3.63951 16.4204 4.84191 16.4204H11.6189C12.0608 16.4204 12.4784 16.2494 12.7934 15.9398L15.5168 13.2623C15.8354 12.9491 16.0181 12.5135 16.0181 12.0671V11.5514C16.0181 11.2535 15.776 11.0114 15.4781 11.0114C15.1802 11.0114 14.9381 11.2535 14.9381 11.5514V12.0671C14.9381 12.2255 14.8733 12.3803 14.7599 12.4919L12.0365 15.1685C11.9252 15.2782 11.7752 15.3396 11.6189 15.3395H4.84191C4.23531 15.3395 3.74211 14.8463 3.74211 14.2397V3.67371C3.74211 3.06711 4.23531 2.57391 4.84191 2.57391H13.8383C14.4449 2.57391 14.9381 3.06711 14.9381 3.67371V7.24941C14.9381 7.54731 15.1802 7.78941 15.4781 7.78941C15.776 7.78941 16.0181 7.54731 16.0181 7.24941V3.67371C16.0172 2.47311 15.0398 1.49571 13.8383 1.49571Z" fill="black"/>
<path d="M12.4947 4.81219H6.15328C5.85538 4.81219 5.61328 5.05429 5.61328 5.35219C5.61328 5.65009 5.85538 5.89219 6.15328 5.89219H12.4947C12.7926 5.89219 13.0347 5.65009 13.0347 5.35219C13.0347 5.05429 12.7935 4.81219 12.4947 4.81219ZM12.4947 7.70119H6.15328C5.85538 7.70119 5.61328 7.94329 5.61328 8.24119C5.61328 8.53909 5.85538 8.78119 6.15328 8.78119H12.4947C12.7926 8.78119 13.0347 8.53909 13.0347 8.24119C13.0347 7.94329 12.7935 7.70119 12.4947 7.70119ZM8.40868 11.0123H6.15328C5.85538 11.0123 5.61328 11.2544 5.61328 11.5523C5.61328 11.8502 5.85538 12.0923 6.15328 12.0923H8.40868C8.70658 12.0923 8.94868 11.8502 8.94868 11.5523C8.94868 11.2544 8.70658 11.0123 8.40868 11.0123Z" fill="#FF313C"/>
<path d="M13.7516 11.0914H11.4593C10.9616 11.0914 10.5566 11.4964 10.5566 11.9941V14.3062C10.5566 14.6041 10.7987 14.8462 11.0966 14.8462C11.3945 14.8462 11.6366 14.6041 11.6366 14.3062V12.1723H13.7516C14.0495 12.1723 14.2916 11.9302 14.2916 11.6323C14.2916 11.3344 14.0495 11.0914 13.7516 11.0914Z" fill="black"/>
</svg>
