<svg width="40" height="40" viewBox="0 0 40 40" fill="none" xmlns="http://www.w3.org/2000/svg">
<rect width="40" height="40" rx="20" fill="#B3B7DD"/>
<path d="M29.5095 11.0004V11.0026H33.0129C33.6903 11.0026 34.1002 11.7653 33.954 12.7231L33.9397 12.8082L33.9107 12.963C33.7294 13.9298 33.0493 14.7188 32.3732 14.7657L32.3098 14.7679H30.1257C29.397 14.7679 28.648 15.6128 28.4527 16.6547C28.2627 17.6674 28.6663 18.494 29.3586 18.5391L29.4186 18.5411H31.0906C31.7878 18.5411 32.2017 19.349 32.0147 20.3461C31.8334 21.3128 31.1534 22.1022 30.4772 22.1491L30.4139 22.1513H28.7419C28.0352 22.1513 27.3096 22.9454 27.0881 23.9435L27.0688 24.0377L26.4823 27.166C26.1799 28.7789 25.0201 30.0866 23.8917 30.0866C23.1909 30.0866 22.6367 29.573 22.4208 28.7311L22.3989 28.6396L19.8406 18.3127C19.806 18.1727 19.652 18.2211 19.6048 18.3715L19.5964 18.4052L17.8369 27.7863C17.6145 28.9806 16.7926 29.9595 15.9569 30.0728L15.8853 30.0804L15.8908 30.0866H10.2369C9.99363 30.0852 9.75376 30.0295 9.53488 29.9235C9.0987 29.7556 8.72121 29.4641 8.44886 29.0848C8.17651 28.7055 8.02119 28.255 8.002 27.7888L8 27.6935V13.3631C8 11.6326 8.96034 11.0417 10.1608 11.0183L10.2362 11.0175H14.3093C14.376 11.0192 14.4426 11.0243 14.5088 11.0328L14.6077 11.0483C15.6117 11.1777 16.5315 11.6757 17.1877 12.4452L16.0384 18.2301C15.5501 13.3189 13.9526 14.1213 11.6519 14.1213H11.2527C11.0089 14.1213 10.809 14.3877 10.7876 14.7278L10.7857 14.7885V26.4015C10.7857 26.5303 10.8338 26.6545 10.9205 26.7499C11.0072 26.8454 11.1263 26.9052 11.2548 26.9178L11.3062 26.9203H13.0243C13.3847 26.9168 13.74 26.8341 14.0647 26.678C14.3894 26.5219 14.6757 26.2962 14.9031 26.017L14.9642 25.9387L17.2162 13.9225C17.512 12.3435 17.9234 11.0571 18.998 11.0018L19.0707 11H19.8082C20.5101 11 21.0643 11.5143 21.2802 12.3572L21.3021 12.4488L24.2861 24.0095C24.3219 24.1474 24.4748 24.0986 24.5215 23.9488L24.5298 23.9152L26.2443 14.7677H23.2372C22.5407 14.7677 21.8233 13.9597 21.6363 12.9627L21.6073 12.8078C21.423 11.8105 21.8368 11.0022 22.5341 11.0022H27.1372V11L29.5095 11.0004Z" fill="white"/>
</svg>
