<svg width="109" height="260" viewBox="0 0 109 260" fill="none" xmlns="http://www.w3.org/2000/svg">
<path d="M54.7199 182L5.78287 124.775C2.69615 121.166 1 116.573 1 111.823V1M54.7199 182L13.9222 121.619C12.2767 119.184 11.3974 116.312 11.3974 113.373V1M54.7199 182L26.0993 125.143C23.6963 120.369 22.4446 115.099 22.4446 109.755V1M54.7199 182L34.9282 124.604C33.6905 121.015 33.0586 117.244 33.0586 113.447V1M54.7199 182L44.3869 122.069C44.0557 120.148 43.8893 118.203 43.8893 116.254V1M54.7199 182L54.2866 1M54.7199 182L103.275 124.76C106.33 121.159 108.007 116.59 108.007 111.869V1M54.7199 182L95.1225 121.6C96.7437 119.176 97.6091 116.326 97.6091 113.41V1M54.7199 182L82.99 125.075C85.3394 120.344 86.5619 115.134 86.5619 109.852V1M54.7199 182L74.1466 124.513C75.3394 120.983 75.9479 117.282 75.9479 113.556V1M54.7199 182L64.6579 121.958C64.9636 120.111 65.1173 118.242 65.1173 116.369V1" stroke="#FD6592" stroke-opacity="0.1" stroke-width="0.86645"/>
<rect x="10" y="178.965" width="45.3183" height="80.9256" fill="url(#paint0_linear_2760_2765)"/>
<rect x="55.3184" y="178.965" width="44.7788" height="80.9256" fill="url(#paint1_linear_2760_2765)"/>
<path d="M55.3183 182.47L10 178.963L55.3183 175.996L100.367 178.963L55.3183 182.47Z" fill="#DDE2EE"/>
<rect x="45.0684" y="178.963" width="19.9616" height="2.15802" fill="#DDE2EE"/>
<path d="M14.8793 100.178H19.8914C20.2359 100.178 20.5148 100.454 20.5148 100.795C20.5148 101.135 20.2359 101.411 19.8914 101.411H14.8793C14.5348 101.411 14.2559 101.135 14.2559 100.795C14.2559 100.454 14.5348 100.178 14.8793 100.178Z" fill="#FFB400"/>
<path d="M17.3891 97.6934C17.7336 97.6934 18.0125 97.9693 18.0125 98.3102V103.269C18.0125 103.61 17.7336 103.886 17.3891 103.886C17.0445 103.886 16.7656 103.61 16.7656 103.269V98.3102C16.7656 97.9693 17.0445 97.6934 17.3891 97.6934Z" fill="#FFB400"/>
<path d="M42.3916 103.399L44.8115 104.04C45.1479 104.129 45.3447 104.47 45.2545 104.803C45.1643 105.135 44.8197 105.33 44.4834 105.241L42.0635 104.6C41.7272 104.51 41.5303 104.17 41.6205 103.837C41.719 103.504 42.0553 103.309 42.3916 103.399Z" fill="#043EB8"/>
<path d="M46.8541 99.9179L47.5022 102.312C47.5924 102.645 47.3955 102.986 47.0592 103.075C46.7229 103.164 46.3783 102.969 46.2881 102.637L45.64 100.234C45.5498 99.9016 45.7467 99.5608 46.083 99.4715C46.4193 99.3903 46.7639 99.5851 46.8541 99.9179Z" fill="#2868F0"/>
<path d="M52.1295 101.995L50.3576 103.748C50.1115 103.991 49.7178 103.991 49.4717 103.748C49.2256 103.504 49.2256 103.115 49.4717 102.871L51.2436 101.118C51.4896 100.875 51.8834 100.875 52.1295 101.118C52.3756 101.362 52.3756 101.751 52.1295 101.995Z" fill="#8FB3FF"/>
<path d="M90.0197 103.156C87.9443 103.156 86.2627 104.82 86.2627 106.881C86.2627 108.935 87.9443 110.599 90.0197 110.599C92.0951 110.599 93.785 108.935 93.785 106.881C93.7768 104.82 92.0951 103.156 90.0197 103.156ZM90.0197 109.357C88.6334 109.357 87.5096 108.245 87.5096 106.873C87.5096 105.502 88.6334 104.39 90.0197 104.39C91.4061 104.39 92.5299 105.502 92.5299 106.873C92.5217 108.245 91.3978 109.357 90.0197 109.357Z" fill="#FFB400"/>
<path d="M75.6559 96.0703L71.8906 97.5799V102.539L75.6559 101.029V96.0703Z" fill="#FFB400"/>
<path d="M67.4941 101.028L71.2594 102.538V97.5791L67.4941 96.0696V101.028ZM75.6562 95.5745L71.6203 94L67.4941 95.4122L71.6039 97.1409L75.6562 95.5745Z" fill="#FFD200"/>
<path d="M88.2226 124.98L50.6113 120.021V139.687L88.2226 143.59V124.98Z" fill="#C82D5B"/>
<path d="M20.5225 126.457L50.6115 120.021V142.349L20.5225 148.785V126.457Z" fill="#F04477"/>
<path d="M55.624 133.898L88.2232 124.979V173L55.624 176V133.898Z" fill="#F04477"/>
<path d="M20.5225 126.457L55.6236 133.899V176L20.5225 173V126.457Z" fill="#FD6592"/>
<path d="M55.6235 133.834L20.5223 126.457L13 141.342L49.3563 149.791L55.6235 133.834Z" fill="#FF96B5"/>
<path d="M55.624 133.898L88.2232 124.979L97.0006 139.863L65.6564 150.024L55.624 133.898Z" fill="#FF6A96"/>
<path d="M73.2607 126.083C73.2607 126.083 74.6553 117.383 81.9396 113.049C81.9396 113.049 82.5795 113.763 83.8428 115.37C83.8428 115.37 80.5287 114.851 73.2607 126.083Z" fill="#FD6592"/>
<path d="M55.624 125.725C55.624 125.725 55.7635 120.961 59.2908 110.207C59.2908 110.207 59.9307 110.921 61.1939 112.528C61.1939 112.528 59.865 113.673 55.624 125.725Z" fill="#FF5B5B"/>
<path d="M43.3688 124.867C43.3688 124.867 39.3984 113.326 29.6777 108.115C29.6777 108.115 28.0535 110.363 26.2734 111.078C26.2652 111.078 37.4543 114.933 43.3688 124.867Z" fill="#FFA9A9"/>
<defs>
<linearGradient id="paint0_linear_2760_2765" x1="32.6592" y1="178.965" x2="32.6592" y2="259.89" gradientUnits="userSpaceOnUse">
<stop stop-color="#C3C9DB"/>
<stop offset="1" stop-color="#C3C9DB" stop-opacity="0"/>
</linearGradient>
<linearGradient id="paint1_linear_2760_2765" x1="77.7078" y1="178.965" x2="77.7078" y2="259.89" gradientUnits="userSpaceOnUse">
<stop stop-color="#B3B8C5"/>
<stop offset="1" stop-color="#B3B8C5" stop-opacity="0"/>
</linearGradient>
</defs>
</svg>
