<svg width="117" height="260" viewBox="0 0 117 260" fill="none" xmlns="http://www.w3.org/2000/svg">
<path d="M54.7199 182L5.78287 124.775C2.69615 121.166 1 116.573 1 111.823V1M54.7199 182L13.9222 121.619C12.2767 119.184 11.3974 116.312 11.3974 113.373V1M54.7199 182L26.0993 125.143C23.6963 120.369 22.4446 115.099 22.4446 109.755V1M54.7199 182L34.9282 124.604C33.6905 121.015 33.0586 117.244 33.0586 113.447V1M54.7199 182L44.3869 122.069C44.0557 120.148 43.8893 118.203 43.8893 116.254V1M54.7199 182L54.2866 1M54.7199 182L103.275 124.76C106.33 121.159 108.007 116.59 108.007 111.869V1M54.7199 182L95.1225 121.6C96.7437 119.176 97.6091 116.326 97.6091 113.41V1M54.7199 182L82.99 125.075C85.3394 120.344 86.5619 115.134 86.5619 109.852V1M54.7199 182L74.1466 124.513C75.3394 120.983 75.9479 117.282 75.9479 113.556V1M54.7199 182L64.6579 121.958C64.9636 120.111 65.1173 118.242 65.1173 116.369V1" stroke="#7B61FF" stroke-opacity="0.1" stroke-width="0.86645"/>
<rect x="10" y="178.965" width="45.3183" height="80.9256" fill="url(#paint0_linear_2764_2781)"/>
<rect x="55.3184" y="178.965" width="44.7788" height="80.9256" fill="url(#paint1_linear_2764_2781)"/>
<path d="M55.3183 182.47L10 178.963L55.3183 175.996L100.367 178.963L55.3183 182.47Z" fill="#DDE2EE"/>
<path d="M20 145.982H55.2743V177.531L20 174.806V145.982Z" fill="#927CFF"/>
<path d="M55.2744 145.982H90.1288V174.806L55.2744 177.531L55.2744 145.982Z" fill="#7B61FF"/>
<path d="M55.2743 148.711L20 145.982L55.2743 143.672L90.3387 145.982L55.2743 148.711Z" fill="#C9BEFF"/>
<path d="M39.7897 142.55C39.7897 142.55 31.0094 141.81 26.1423 134.871C26.1423 134.871 26.8066 134.179 28.3145 132.799C28.3145 132.799 28.0446 136.143 39.7897 142.55Z" fill="#8FB3FF"/>
<path d="M65.0004 143.552C65.0004 143.552 73.7807 142.812 78.6478 135.873C78.6478 135.873 77.9835 135.181 76.4756 133.801C76.4756 133.801 76.7454 137.145 65.0004 143.552Z" fill="#8FB3FF"/>
<path d="M49.5891 139.787C44.8141 137.579 41.838 133.854 42.9419 131.467C44.0458 129.079 48.8115 128.933 53.5865 131.141C58.3615 133.349 61.3376 137.074 60.2337 139.462C59.1298 141.849 54.3641 141.995 49.5891 139.787Z" fill="url(#paint2_linear_2764_2781)"/>
<path d="M51.2714 136.147C46.9991 134.171 44.0773 131.398 44.7454 129.953C45.4135 128.508 49.4186 128.938 53.691 130.914C57.9633 132.889 60.8851 135.662 60.217 137.107C59.5489 138.552 55.5438 138.122 51.2714 136.147Z" fill="url(#paint3_linear_2764_2781)"/>
<path fill-rule="evenodd" clip-rule="evenodd" d="M52.0001 134.272C55.1021 135.707 58.0548 135.971 58.7409 134.903L58.7487 134.907L59.5903 133.087L57.3479 132.049C56.4969 131.31 55.3402 130.57 53.9988 129.949C52.6574 129.329 51.3439 128.928 50.2296 128.758L47.9866 127.722L47.145 129.542L47.153 129.546C46.784 130.76 48.8981 132.838 52.0001 134.272Z" fill="url(#paint4_linear_2764_2781)"/>
<path fill-rule="evenodd" clip-rule="evenodd" d="M53.0591 132.277C48.2841 130.07 45.027 126.952 46.0438 124.753C47.0605 122.554 51.6504 122.789 56.4254 124.997C61.2004 127.204 64.3523 130.549 63.3355 132.748C62.3188 134.947 57.8341 134.485 53.0591 132.277Z" fill="url(#paint5_linear_2764_2781)"/>
<path fill-rule="evenodd" clip-rule="evenodd" d="M54.1122 130.002C49.7141 127.969 46.7035 125.121 47.2963 123.839C47.8891 122.557 51.7129 123.646 56.1109 125.679C60.5089 127.713 63.8157 129.92 63.2229 131.203C62.6301 132.485 58.5102 132.036 54.1122 130.002Z" fill="url(#paint6_linear_2764_2781)"/>
<path fill-rule="evenodd" clip-rule="evenodd" d="M54.5401 129.376C57.87 130.915 61.0169 131.196 61.5688 130.002C61.5865 129.964 61.6013 129.924 61.6133 129.884L61.6214 129.888L65.0929 122.38L53.0342 116.804L49.5627 124.313L49.571 124.316C49.5481 124.352 49.5278 124.388 49.5101 124.426C48.9582 125.62 51.2102 127.836 54.5401 129.376Z" fill="url(#paint7_linear_2764_2781)"/>
<path fill-rule="evenodd" clip-rule="evenodd" d="M58.0033 121.586C53.2283 119.378 50.1748 115.821 51.0484 113.931C51.922 112.042 56.1738 113.008 60.9488 115.215C65.7238 117.423 69.2138 120.037 68.3402 121.926C67.4665 123.816 62.7783 123.794 58.0033 121.586Z" fill="url(#paint8_linear_2764_2781)"/>
<path fill-rule="evenodd" clip-rule="evenodd" d="M58.9501 119.538C54.552 117.504 51.5413 114.656 52.1342 113.374C52.727 112.092 56.5508 113.181 60.9488 115.215C65.3468 117.248 68.6536 119.456 68.0608 120.738C67.468 122.02 63.3481 121.571 58.9501 119.538Z" fill="url(#paint9_linear_2764_2781)"/>
<path fill-rule="evenodd" clip-rule="evenodd" d="M59.4679 118.12C62.5699 119.554 65.5226 119.819 66.2087 118.751L66.2165 118.755L67.4895 116.002L55.8858 110.636L54.6128 113.39L54.6207 113.393C54.2518 114.608 56.3659 116.686 59.4679 118.12Z" fill="url(#paint10_linear_2764_2781)"/>
<path d="M61.0553 114.988C56.2803 112.781 53.2572 109.157 54.303 106.895C55.3487 104.634 60.0674 104.59 64.8424 106.797C69.6174 109.005 72.6405 112.629 71.5947 114.89C70.549 117.152 65.8303 117.196 61.0553 114.988Z" fill="url(#paint11_linear_2764_2781)"/>
<path d="M62.9478 110.893C59.178 109.15 56.5459 106.82 57.0688 105.689C57.5917 104.558 61.0716 105.054 64.8413 106.797C68.611 108.54 71.2431 110.87 70.7202 112.001C70.1973 113.132 66.7175 112.636 62.9478 110.893Z" fill="url(#paint12_linear_2764_2781)"/>
<path fill-rule="evenodd" clip-rule="evenodd" d="M63.1141 123.98C62.2391 123.67 61.0222 124.552 60.3483 126.01C59.6511 127.518 59.799 129.07 60.6786 129.477L97.0823 146.308L99.6071 140.848L63.2033 124.016L63.1141 123.98Z" fill="url(#paint13_linear_2764_2781)"/>
<path d="M99.6066 140.85C100.486 141.257 100.634 142.809 99.9369 144.317C99.2398 145.825 97.9615 146.717 97.0819 146.311C96.2023 145.904 96.0544 144.352 96.7516 142.844C97.4488 141.336 98.727 140.443 99.6066 140.85Z" fill="url(#paint14_linear_2764_2781)"/>
<defs>
<linearGradient id="paint0_linear_2764_2781" x1="32.6592" y1="178.965" x2="32.6592" y2="259.89" gradientUnits="userSpaceOnUse">
<stop stop-color="#C3C9DB"/>
<stop offset="1" stop-color="#C3C9DB" stop-opacity="0"/>
</linearGradient>
<linearGradient id="paint1_linear_2764_2781" x1="77.7078" y1="178.965" x2="77.7078" y2="259.89" gradientUnits="userSpaceOnUse">
<stop stop-color="#B3B8C5"/>
<stop offset="1" stop-color="#B3B8C5" stop-opacity="0"/>
</linearGradient>
<linearGradient id="paint2_linear_2764_2781" x1="61.2948" y1="137.167" x2="44.003" y2="129.172" gradientUnits="userSpaceOnUse">
<stop stop-color="#7B61FF"/>
<stop offset="0.712627" stop-color="#8A73FD"/>
<stop offset="1" stop-color="#A18EFF"/>
</linearGradient>
<linearGradient id="paint3_linear_2764_2781" x1="44.7694" y1="129.966" x2="60.2165" y2="137.108" gradientUnits="userSpaceOnUse">
<stop stop-color="#7B61FF"/>
<stop offset="1" stop-color="#441FFF"/>
</linearGradient>
<linearGradient id="paint4_linear_2764_2781" x1="46.6671" y1="130.576" x2="58.2708" y2="135.941" gradientUnits="userSpaceOnUse">
<stop stop-color="#A08EF8"/>
<stop offset="0.287373" stop-color="#9581FC"/>
<stop offset="1" stop-color="#4627E2"/>
</linearGradient>
<linearGradient id="paint5_linear_2764_2781" x1="64.2817" y1="130.702" x2="46.9899" y2="122.707" gradientUnits="userSpaceOnUse">
<stop stop-color="#7B61FF"/>
<stop offset="0.712627" stop-color="#8A73FD"/>
<stop offset="1" stop-color="#A18EFF"/>
</linearGradient>
<linearGradient id="paint6_linear_2764_2781" x1="47.173" y1="124.172" x2="63.0744" y2="131.524" gradientUnits="userSpaceOnUse">
<stop stop-color="#7B61FF"/>
<stop offset="1" stop-color="#441FFF"/>
</linearGradient>
<linearGradient id="paint7_linear_2764_2781" x1="49.5718" y1="124.293" x2="61.6305" y2="129.869" gradientUnits="userSpaceOnUse">
<stop stop-color="#A08EF8"/>
<stop offset="0.287373" stop-color="#9581FC"/>
<stop offset="1" stop-color="#4627E2"/>
</linearGradient>
<linearGradient id="paint8_linear_2764_2781" x1="68.9038" y1="120.707" x2="51.6121" y2="112.712" gradientUnits="userSpaceOnUse">
<stop stop-color="#7B61FF"/>
<stop offset="0.712627" stop-color="#8A73FD"/>
<stop offset="1" stop-color="#A18EFF"/>
</linearGradient>
<linearGradient id="paint9_linear_2764_2781" x1="52.0109" y1="113.707" x2="67.9123" y2="121.059" gradientUnits="userSpaceOnUse">
<stop stop-color="#7B61FF"/>
<stop offset="1" stop-color="#441FFF"/>
</linearGradient>
<linearGradient id="paint10_linear_2764_2781" x1="54.1867" y1="114.311" x2="65.7904" y2="119.676" gradientUnits="userSpaceOnUse">
<stop stop-color="#A08EF8"/>
<stop offset="0.287373" stop-color="#9581FC"/>
<stop offset="1" stop-color="#4627E2"/>
</linearGradient>
<linearGradient id="paint11_linear_2764_2781" x1="72.6" y1="112.716" x2="55.3082" y2="104.721" gradientUnits="userSpaceOnUse">
<stop stop-color="#7B61FF"/>
<stop offset="0.712627" stop-color="#8A73FD"/>
<stop offset="1" stop-color="#A18EFF"/>
</linearGradient>
<linearGradient id="paint12_linear_2764_2781" x1="57.09" y1="105.7" x2="70.7198" y2="112.002" gradientUnits="userSpaceOnUse">
<stop stop-color="#7B61FF"/>
<stop offset="1" stop-color="#441FFF"/>
</linearGradient>
<linearGradient id="paint13_linear_2764_2781" x1="77.2794" y1="137.152" x2="79.8041" y2="131.692" gradientUnits="userSpaceOnUse">
<stop stop-color="#6143F5"/>
<stop offset="0.287373" stop-color="#9480FF"/>
<stop offset="1" stop-color="#8D77FF"/>
</linearGradient>
<linearGradient id="paint14_linear_2764_2781" x1="99.9324" y1="144.313" x2="96.7522" y2="142.843" gradientUnits="userSpaceOnUse">
<stop stop-color="#7B61FF"/>
<stop offset="1" stop-color="#5938FF"/>
</linearGradient>
</defs>
</svg>
